<?xml version="1.0" encoding="UTF-8" standalone="no"?><!DOCTYPE svg PUBLIC "-//W3C//DTD SVG 1.1//EN" "http://www.w3.org/Graphics/SVG/1.1/DTD/svg11.dtd"><svg width="100%" height="100%" viewBox="0 0 40 40" version="1.1" xmlns="http://www.w3.org/2000/svg" xmlns:xlink="http://www.w3.org/1999/xlink" xml:space="preserve" xmlns:serif="http://www.serif.com/" style="fill-rule:evenodd;clip-rule:evenodd;stroke-linejoin:round;stroke-miterlimit:2;"><path id="COLLAPSE" d="M21.211,11.943l-0.737,5.755c-0,0.591 0.476,1.068 1.066,1.068l5.749,-0.739c0.17,-0.024 0.341,-0.103 0.472,-0.238c0.333,-0.334 0.333,-0.869 0,-1.203l-0.96,-0.961l2.134,-2.133c0.353,-0.353 0.353,-0.925 0,-1.278l-1.916,-1.918c-0.353,-0.353 -0.924,-0.353 -1.278,-0l-2.129,2.132l-0.96,-0.957c-0.334,-0.333 -0.869,-0.333 -1.203,0c-0.134,0.131 -0.214,0.302 -0.238,0.472Zm-3.062,0c-0.024,-0.17 -0.103,-0.341 -0.238,-0.472c-0.333,-0.333 -0.869,-0.333 -1.202,0l-0.96,0.957l-2.131,-2.132c-0.352,-0.353 -0.924,-0.353 -1.277,-0l-1.916,1.918c-0.353,0.353 -0.353,0.925 0,1.278l2.134,2.133l-0.96,0.961c-0.333,0.334 -0.333,0.869 0,1.203c0.131,0.135 0.302,0.214 0.472,0.238l5.749,0.739c0.591,-0 1.067,-0.477 1.067,-1.068l-0.738,-5.755Zm3.062,15.234c0.024,0.17 0.104,0.341 0.238,0.472c0.334,0.333 0.869,0.333 1.203,-0l0.96,-0.957l2.129,2.132c0.354,0.353 0.925,0.353 1.278,0l1.916,-1.918c0.353,-0.353 0.353,-0.925 0,-1.278l-2.134,-2.133l0.96,-0.961c0.333,-0.333 0.333,-0.869 0,-1.203c-0.131,-0.135 -0.302,-0.214 -0.472,-0.238l-5.749,-0.739c-0.59,0 -1.066,0.477 -1.066,1.068l0.737,5.755Zm-3.062,-0l0.738,-5.755c-0,-0.591 -0.476,-1.068 -1.067,-1.068l-5.749,0.739c-0.17,0.024 -0.341,0.103 -0.472,0.238c-0.333,0.334 -0.333,0.87 0,1.203l0.96,0.961l-2.134,2.133c-0.353,0.353 -0.353,0.925 0,1.278l1.916,1.918c0.353,0.353 0.925,0.353 1.277,0l2.131,-2.132l0.96,0.957c0.333,0.333 0.869,0.333 1.202,-0c0.135,-0.131 0.214,-0.302 0.238,-0.472Z" style="fill:#d4d4d4;fill-opacity:0.6;"/></svg>