<?xml version="1.0" encoding="UTF-8" standalone="no"?><!DOCTYPE svg PUBLIC "-//W3C//DTD SVG 1.1//EN" "http://www.w3.org/Graphics/SVG/1.1/DTD/svg11.dtd"><svg width="100%" height="100%" viewBox="0 0 40 40" version="1.1" xmlns="http://www.w3.org/2000/svg" xmlns:xlink="http://www.w3.org/1999/xlink" xml:space="preserve" xmlns:serif="http://www.serif.com/" style="fill-rule:evenodd;clip-rule:evenodd;stroke-linejoin:round;stroke-miterlimit:2;"><path id="COLLAPSE" d="M18.64,8.68l-1.054,8.22c-0,0.845 0.68,1.526 1.524,1.526l8.211,-1.056c0.244,-0.034 0.488,-0.147 0.675,-0.34c0.476,-0.476 0.476,-1.242 0,-1.719l-1.371,-1.373l3.048,-3.046c0.505,-0.504 0.505,-1.321 0,-1.826l-2.737,-2.74c-0.504,-0.505 -1.32,-0.505 -1.825,0l-3.042,3.046l-1.372,-1.367c-0.476,-0.476 -1.241,-0.476 -1.717,0c-0.193,0.187 -0.306,0.431 -0.34,0.675Zm-4.375,-0c-0.034,-0.244 -0.147,-0.488 -0.34,-0.675c-0.476,-0.476 -1.241,-0.476 -1.717,0l-1.371,1.367l-3.044,-3.046c-0.504,-0.505 -1.32,-0.505 -1.824,0l-2.737,2.74c-0.505,0.505 -0.505,1.322 -0,1.826l3.048,3.046l-1.371,1.373c-0.476,0.477 -0.476,1.243 0,1.719c0.187,0.193 0.431,0.306 0.674,0.34l8.212,1.056c0.844,-0 1.524,-0.681 1.524,-1.526l-1.054,-8.22Zm4.375,21.76c0.034,0.244 0.147,0.488 0.34,0.675c0.476,0.476 1.241,0.476 1.717,-0l1.372,-1.367l3.042,3.046c0.505,0.505 1.321,0.505 1.825,-0l2.737,-2.74c0.505,-0.505 0.505,-1.322 0,-1.826l-3.048,-3.046l1.371,-1.373c0.476,-0.477 0.476,-1.243 0,-1.719c-0.187,-0.193 -0.431,-0.306 -0.675,-0.34l-8.211,-1.056c-0.844,0 -1.524,0.681 -1.524,1.526l1.054,8.22Zm-4.375,0l1.054,-8.22c0,-0.845 -0.68,-1.526 -1.524,-1.526l-8.212,1.056c-0.243,0.034 -0.487,0.147 -0.674,0.34c-0.476,0.476 -0.476,1.242 0,1.719l1.371,1.373l-3.048,3.046c-0.505,0.504 -0.505,1.321 -0,1.826l2.737,2.74c0.504,0.505 1.32,0.505 1.824,-0l3.044,-3.046l1.371,1.367c0.476,0.476 1.241,0.476 1.717,-0c0.193,-0.187 0.306,-0.431 0.34,-0.675Z" style="fill:#fff;fill-opacity:0.5;"/></svg>