<?xml version="1.0" encoding="UTF-8" standalone="no"?><!DOCTYPE svg PUBLIC "-//W3C//DTD SVG 1.1//EN" "http://www.w3.org/Graphics/SVG/1.1/DTD/svg11.dtd"><svg width="100%" height="100%" viewBox="0 0 40 40" version="1.1" xmlns="http://www.w3.org/2000/svg" xmlns:xlink="http://www.w3.org/1999/xlink" xml:space="preserve" xmlns:serif="http://www.serif.com/" style="fill-rule:evenodd;clip-rule:evenodd;stroke-linejoin:round;stroke-miterlimit:2;"><path id="COLLAPSE" d="M22.422,5.923l-1.321,10.303c-0,1.059 0.852,1.912 1.91,1.912l10.292,-1.323c0.306,-0.042 0.611,-0.184 0.846,-0.426c0.596,-0.597 0.596,-1.557 -0,-2.154l-1.719,-1.721l3.821,-3.818c0.632,-0.633 0.632,-1.657 0,-2.289l-3.43,-3.434c-0.633,-0.633 -1.655,-0.633 -2.288,-0l-3.814,3.818l-1.718,-1.714c-0.597,-0.597 -1.556,-0.597 -2.153,0c-0.241,0.235 -0.384,0.54 -0.426,0.846Zm-5.484,-0c-0.042,-0.306 -0.184,-0.611 -0.426,-0.846c-0.596,-0.597 -1.555,-0.597 -2.152,0l-1.719,1.714l-3.814,-3.818c-0.632,-0.633 -1.655,-0.633 -2.287,-0l-3.431,3.434c-0.632,0.632 -0.632,1.656 0,2.289l3.821,3.818l-1.718,1.721c-0.597,0.597 -0.597,1.557 -0,2.154c0.234,0.242 0.539,0.384 0.844,0.426l10.293,1.323c1.058,0 1.911,-0.853 1.911,-1.912l-1.322,-10.303Zm5.484,27.274c0.042,0.306 0.185,0.611 0.426,0.846c0.597,0.597 1.556,0.597 2.153,-0l1.718,-1.714l3.814,3.818c0.633,0.633 1.655,0.633 2.288,0l3.43,-3.434c0.632,-0.632 0.632,-1.656 0,-2.289l-3.821,-3.818l1.719,-1.72c0.596,-0.598 0.596,-1.558 -0,-2.155c-0.235,-0.242 -0.54,-0.384 -0.846,-0.426l-10.292,-1.323c-1.058,-0 -1.91,0.853 -1.91,1.912l1.321,10.303Zm-5.484,0l1.322,-10.303c-0,-1.059 -0.853,-1.912 -1.911,-1.912l-10.293,1.323c-0.305,0.042 -0.61,0.184 -0.844,0.426c-0.597,0.597 -0.597,1.557 -0,2.155l1.718,1.72l-3.821,3.818c-0.632,0.633 -0.632,1.657 0,2.289l3.431,3.434c0.632,0.633 1.655,0.633 2.287,0l3.814,-3.818l1.719,1.714c0.597,0.597 1.556,0.597 2.152,-0c0.242,-0.235 0.384,-0.54 0.426,-0.846Z" style="fill:#fff;fill-opacity:0.85;"/></svg>