<?xml version="1.0" encoding="UTF-8" standalone="no"?><!DOCTYPE svg PUBLIC "-//W3C//DTD SVG 1.1//EN" "http://www.w3.org/Graphics/SVG/1.1/DTD/svg11.dtd"><svg width="100%" height="100%" viewBox="0 0 40 40" version="1.1" xmlns="http://www.w3.org/2000/svg" xmlns:xlink="http://www.w3.org/1999/xlink" xml:space="preserve" xmlns:serif="http://www.serif.com/" style="fill-rule:evenodd;clip-rule:evenodd;stroke-linejoin:round;stroke-miterlimit:2;"><path id="COLLAPSE" d="M22.816,3.965l-1.509,11.773c0,1.21 0.974,2.185 2.183,2.185l11.761,-1.511c0.348,-0.049 0.698,-0.211 0.966,-0.487c0.682,-0.683 0.682,-1.779 -0,-2.462l-1.964,-1.966l4.366,-4.363c0.722,-0.723 0.722,-1.893 0,-2.616l-3.92,-3.924c-0.723,-0.723 -1.891,-0.723 -2.614,-0l-4.358,4.363l-1.964,-1.958c-0.681,-0.683 -1.778,-0.683 -2.459,-0c-0.276,0.268 -0.439,0.617 -0.488,0.966Zm-6.265,-0c-0.049,-0.349 -0.211,-0.698 -0.487,-0.966c-0.681,-0.683 -1.778,-0.683 -2.459,-0l-1.964,1.958l-4.359,-4.363c-0.722,-0.723 -1.891,-0.723 -2.613,-0l-3.92,3.924c-0.723,0.723 -0.723,1.893 -0,2.616l4.366,4.363l-1.964,1.966c-0.682,0.683 -0.682,1.779 0,2.462c0.268,0.276 0.617,0.438 0.965,0.487l11.762,1.511c1.209,0 2.183,-0.975 2.183,-2.185l-1.51,-11.773Zm6.265,31.166c0.049,0.349 0.212,0.698 0.488,0.966c0.681,0.683 1.778,0.683 2.459,0l1.964,-1.958l4.358,4.363c0.723,0.723 1.891,0.723 2.614,0l3.92,-3.924c0.722,-0.723 0.722,-1.893 0,-2.616l-4.366,-4.363l1.964,-1.966c0.682,-0.682 0.682,-1.779 -0,-2.462c-0.268,-0.276 -0.618,-0.438 -0.966,-0.487l-11.761,-1.511c-1.209,-0 -2.183,0.975 -2.183,2.185l1.509,11.773Zm-6.265,-0l1.51,-11.773c-0,-1.21 -0.974,-2.185 -2.183,-2.185l-11.762,1.511c-0.348,0.049 -0.697,0.211 -0.965,0.487c-0.682,0.683 -0.682,1.78 0,2.462l1.964,1.966l-4.366,4.363c-0.723,0.723 -0.723,1.893 -0,2.616l3.92,3.924c0.722,0.723 1.891,0.723 2.613,0l4.359,-4.363l1.964,1.958c0.681,0.683 1.778,0.683 2.459,0c0.276,-0.268 0.438,-0.617 0.487,-0.966Z" style="fill:#b6b6b6;"/></svg>