<?xml version="1.0" encoding="UTF-8" standalone="no"?>
<!DOCTYPE svg PUBLIC "-//W3C//DTD SVG 1.1//EN" "http://www.w3.org/Graphics/SVG/1.1/DTD/svg11.dtd">
<svg width="100%" height="100%" viewBox="0 0 306 311" version="1.1" xmlns="http://www.w3.org/2000/svg" xmlns:xlink="http://www.w3.org/1999/xlink" xml:space="preserve" xmlns:serif="http://www.serif.com/" style="fill-rule:evenodd;clip-rule:evenodd;stroke-linecap:round;stroke-linejoin:round;">
    <g transform="matrix(1,0,0,1,-906,-623)">
        <g transform="matrix(2.16828,0,0,2.16828,1083.57,745.514)">
            <path d="M0,-6.857C-10.27,-5.589 -20.561,-4.837 -30.911,-4.797C-41.123,-4.758 -51.621,-6.36 -61.776,-5.358C-62.774,-5.26 -62.988,-3.958 -62.013,-3.609C-52.657,-0.252 -41.774,-0.191 -31.943,0.138C-21.295,0.495 -10.626,0.275 0,-0.479C4.132,-0.773 4.006,-7.352 0,-6.857" style="fill:rgb(224,223,230);fill-rule:nonzero;"/>
        </g>
        <g transform="matrix(2.16828,0,0,2.16828,1194.13,764.267)">
            <path d="M0,61.509C-0.216,56.314 -0.488,51.07 -1.248,45.921C-2.051,40.484 -3.705,35.225 -4.44,29.776C-5.192,24.19 -4.929,18.434 -5.242,12.787C-5.559,7.067 -5.919,1.331 -5.906,-4.4C-5.901,-6.259 -8.751,-6.713 -9.195,-4.846C-11.904,6.562 -10.014,16.679 -8.273,28.001C-7.458,33.298 -7.991,38.673 -8.431,43.974C-8.726,47.525 -8.948,51.076 -9.22,54.625C-24.329,55.569 -39.562,55.649 -54.688,55.934C-70.834,56.238 -86.618,56.976 -102.639,58.968C-104.25,59.168 -104.955,61.642 -103.058,62.064C-87.325,65.561 -71.847,67.193 -55.731,67.704C-39.373,68.222 -23.08,67.78 -6.725,67.769C-4.307,67.768 -2.578,66.673 -1.529,65.112C-0.561,64.325 0.067,63.128 0,61.509" style="fill:rgb(224,223,230);fill-rule:nonzero;"/>
        </g>
        <g transform="matrix(2.16828,0,0,2.16828,1002.38,868.711)">
            <path d="M0,-29.584C-0.834,-31.065 -3.035,-30.667 -3.511,-29.125C-4.078,-27.286 -4.352,-25.415 -4.489,-23.527C-4.606,-23.645 -4.71,-23.774 -4.836,-23.883C-5.935,-24.835 -7.788,-24.831 -8.549,-23.405C-9.782,-21.091 -9.603,-18.406 -9.899,-15.839C-10.241,-12.881 -10.792,-9.988 -11.71,-7.15C-12.008,-6.23 -12.084,-5.394 -12.003,-4.636C-12.838,-4.437 -13.64,-4.166 -14.356,-3.741C-15.814,-2.877 -15.695,-0.889 -14.356,0.001C-12.334,1.344 -9.139,1.328 -6.757,1.349C-4.024,1.373 -0.837,1.481 1.517,-0.034C2.772,-0.842 3.306,-2 3.29,-3.139C3.896,-3.827 4.314,-4.771 4.378,-6.012C4.752,-13.247 3.587,-23.211 0,-29.584" style="fill:rgb(224,223,230);fill-rule:nonzero;"/>
        </g>
        <g transform="matrix(2.16828,0,0,2.16828,1063.25,864.358)">
            <path d="M0,-29.355C-0.252,-31.014 -2.647,-30.843 -3.181,-29.507C-3.662,-30.394 -4.215,-31.224 -4.884,-31.959C-5.356,-32.479 -6.157,-32.277 -6.508,-31.75C-8.531,-28.712 -8.739,-24.797 -9.247,-21.239C-9.947,-16.344 -10.812,-11.525 -11.872,-6.689C-12.119,-5.56 -12.003,-4.554 -11.647,-3.692C-12.546,-3.361 -13.432,-2.992 -14.298,-2.563C-16.032,-1.704 -15.471,0.899 -13.781,1.398C-9.882,2.548 -5.723,2.587 -1.686,2.934C0.516,3.124 2.267,1.341 2.756,-0.657C3.469,-1.212 3.961,-2.031 3.936,-3.088C3.732,-11.686 1.295,-20.822 0,-29.355" style="fill:rgb(224,223,230);fill-rule:nonzero;"/>
        </g>
        <g transform="matrix(2.16828,0,0,2.16828,964.241,724.282)">
            <path d="M0,-3.742C-1.357,-6.06 -4.491,-6.345 -6.42,-4.569C-6.426,-4.564 -6.427,-4.563 -6.433,-4.557C-6.488,-4.522 -6.541,-4.484 -6.598,-4.451C-6.656,-4.417 -6.718,-4.389 -6.777,-4.357C-7.684,-4.173 -8.543,-3.787 -9.159,-3.082C-9.78,-2.373 -10.211,-1.351 -9.869,-0.399C-9.552,0.481 -9.128,1.19 -8.322,1.709C-7.791,2.051 -7.131,2.25 -6.51,2.358C-5.108,2.603 -3.839,2.575 -2.443,2.263C0.155,1.681 1.281,-1.552 0,-3.742" style="fill:rgb(224,223,230);fill-rule:nonzero;"/>
        </g>
        <g transform="matrix(2.16828,0,0,2.16828,989.97,728.007)">
            <path d="M0,-6.003C-0.726,-6.943 -1.651,-7.475 -2.827,-7.634C-4.051,-7.798 -5.652,-7.492 -6.468,-6.442C-6.684,-6.163 -6.922,-5.916 -7.176,-5.68C-7.426,-5.515 -7.677,-5.352 -7.916,-5.167C-8.283,-4.883 -8.591,-4.561 -8.945,-4.265C-10.494,-2.971 -10.098,0.055 -8.277,0.917C-7.792,1.147 -7.3,1.388 -6.783,1.535C-5.875,1.795 -4.945,1.67 -4.037,1.491C-3.05,1.296 -2.082,0.869 -1.216,0.365C1.029,-0.941 1.568,-3.974 0,-6.003" style="fill:rgb(224,223,230);fill-rule:nonzero;"/>
        </g>
        <g transform="matrix(2.16828,0,0,2.16828,1003.61,726.881)">
            <path d="M0,-6.603L-1.383,-6.652C-3.136,-6.715 -4.811,-5.067 -4.732,-3.303C-4.653,-1.542 -3.258,0.112 -1.383,0.046L0,-0.004C1.723,-0.065 3.382,-1.477 3.3,-3.303C3.217,-5.144 1.85,-6.537 0,-6.603" style="fill:rgb(224,223,230);fill-rule:nonzero;"/>
        </g>
        <g transform="matrix(2.16828,0,0,2.16828,1166.55,838.887)">
            <path d="M0,-48.464C-4.361,-48.341 -9.198,-48.448 -13.677,-47.746C-13.744,-47.998 -13.814,-48.247 -13.886,-48.495C-12.863,-48.221 -11.709,-48.325 -10.868,-48.817C-8.983,-49.92 -8.676,-52.095 -9.525,-53.938C-10.265,-55.546 -11.271,-56.926 -11.831,-58.633C-12.375,-60.29 -12.511,-62.017 -12.974,-63.685C-13.339,-65 -15.378,-65.411 -16.035,-64.085C-17.346,-61.435 -17.636,-57.917 -17.188,-54.679C-17.898,-54.72 -18.654,-54.297 -18.879,-53.55C-21.107,-46.166 -19.718,-36.242 -18.993,-28.656C-18.921,-27.903 -18.669,-27.275 -18.317,-26.745C-18.368,-25.7 -18.408,-24.653 -18.432,-23.603C-19.755,-23.514 -20.977,-22.763 -21.183,-21.26C-22.262,-13.416 -22.815,-5.57 -24.239,2.238C-24.51,3.722 -24.28,4.962 -23.744,5.941C-26.39,6.529 -28.943,7.372 -31.028,8.723C-32.525,9.693 -32.339,12.099 -30.522,12.594C-28.288,13.202 -25.918,13.164 -23.636,13.568C-21.268,13.987 -18.954,14.584 -16.657,15.289C-16.002,15.49 -15.396,15.574 -14.836,15.571C-12.987,16.947 -10.358,16.906 -9.073,14.695C-7.273,11.597 -8.392,6.834 -8.508,3.429C-8.704,-2.375 -8.964,-8.175 -9.278,-13.973C-9.574,-19.441 -9.897,-24.894 -10.478,-30.339C-10.856,-33.888 -11.14,-37.597 -12.332,-40.969C-12.457,-41.832 -12.591,-42.693 -12.746,-43.546C-8.55,-42.727 -4.034,-42.524 0,-42.144C4.002,-41.766 4.129,-48.58 0,-48.464" style="fill:rgb(224,223,230);fill-rule:nonzero;"/>
        </g>
        <g transform="matrix(2.16828,0,0,2.16828,1125.78,889.002)">
            <path d="M0,-89.99C4.384,-90.033 8.768,-90.095 13.151,-90.179C15.255,-90.219 17.286,-89.407 18.782,-87.928C20.279,-86.449 21.114,-84.428 21.099,-82.324C20.991,-66.241 20.818,-50.158 20.818,-34.075C20.818,-23.555 20.892,-10.818 21.107,-0.299C-15.897,0.438 -52.61,-0.13 -89.644,0.904C-90.254,-27.215 -90.401,-55.124 -90.713,-83.238C-90.736,-85.277 -89.928,-87.238 -88.478,-88.673C-87.027,-90.107 -85.056,-90.894 -83.016,-90.847C-61.13,-90.342 -39.244,-89.93 -17.358,-89.914" style="fill:none;fill-rule:nonzero;stroke:rgb(82,93,125);stroke-width:1.38px;"/>
        </g>
        <g transform="matrix(2.16822,0.016733,0.016733,-2.16822,929.348,731.774)">
            <path d="M-0.001,-0.284C24.532,-0.207 49.068,-0.314 73.601,-0.284" style="fill:none;fill-rule:nonzero;stroke:rgb(82,93,125);stroke-width:1.38px;"/>
        </g>
        <g transform="matrix(2.16828,0,0,2.16828,1126.92,733.85)">
            <path d="M0,-0.019C3.897,-0.007 7.794,0 11.691,0C14.626,0 17.56,-0.004 20.495,-0.012" style="fill:none;fill-rule:nonzero;stroke:rgb(82,93,125);stroke-width:1.38px;"/>
        </g>
        <g transform="matrix(2.16828,0,0,2.16828,962.474,857.735)">
            <path d="M0,-32.706C1.738,-32.85 3.486,-32.903 5.238,-32.903C8.195,-32.903 11.165,-32.753 14.12,-32.638C14.209,-21.99 15.198,-11.316 15.443,-0.677C10.402,-0.346 5.374,-0.271 0.331,0.197C0.349,-4.282 0.386,-8.789 0.386,-13.304C0.386,-19.778 0.311,-26.267 0,-32.706Z" style="fill:none;fill-rule:nonzero;stroke:rgb(82,93,125);stroke-width:1.38px;stroke-linecap:butt;"/>
        </g>
        <g transform="matrix(2.16828,0,0,2.16828,1020.03,854.715)">
            <path d="M0,-44.866C5.522,-44.467 11.14,-44.18 16.705,-43.932C17.12,-29.442 16.757,-14.779 17.364,-0.279C13.438,-0.049 9.575,0 5.683,0C4.252,0 2.817,-0.007 1.373,-0.013C1.115,-4.614 1.066,-9.217 1.066,-13.822C1.066,-16.663 1.085,-19.505 1.085,-22.347C1.085,-29.856 0.954,-37.365 0,-44.866Z" style="fill:none;fill-rule:nonzero;stroke:rgb(82,93,125);stroke-width:1.38px;stroke-linecap:butt;"/>
        </g>
        <g transform="matrix(-2.14351,-0.326868,-0.326868,2.14351,1079.04,850.177)">
            <path d="M-7.005,-93.093C-12.669,-63.02 -17.669,-33.172 -23.964,-3.209C-18.299,-1.664 -12.721,-0.333 -7.005,0.539C-6.358,0.638 -5.71,0.73 -5.061,0.817C-0.5,-29.03 4.149,-58.863 9.779,-88.547" style="fill:none;fill-rule:nonzero;stroke:rgb(82,93,125);stroke-width:1.38px;"/>
        </g>
        <g transform="matrix(2.16828,0,0,2.16828,1061.91,642.299)">
            <path d="M0,14.453C7.465,9.859 14.716,4.836 22.061,0C27.573,4.232 33.454,7.996 39.379,11.683" style="fill:none;fill-rule:nonzero;stroke:rgb(82,93,125);stroke-width:1.38px;"/>
        </g>
        <g transform="matrix(2.16828,0,0,2.16828,948.202,717.429)">
            <path d="M0,-4.693C-0.843,-4.356 -1.227,-3.542 -1.227,-2.693C-1.227,-1.177 0.054,0 0.838,0C2.179,0 3.352,-0.67 4.358,-1.341" style="fill:none;fill-rule:nonzero;stroke:rgb(82,93,125);stroke-width:1.38px;"/>
        </g>
        <g transform="matrix(2.16828,0,0,2.16828,972.553,717.705)">
            <path d="M0,-4.15C-0.344,-3.668 -0.516,-3.062 -0.516,-2.473C-0.516,-0.861 0.803,0 1.913,0C2.091,0 2.271,-0.035 2.445,-0.122" style="fill:none;fill-rule:nonzero;stroke:rgb(82,93,125);stroke-width:1.38px;"/>
        </g>
        <g transform="matrix(-1.94729,0.953681,0.953681,1.94729,1002.92,715.228)">
            <path d="M3.276,-4.953C3.756,-4.659 4.104,-4.256 4.324,-3.806C4.942,-2.545 4.56,-0.912 3.276,-0.283C3.239,-0.265 3.201,-0.248 3.162,-0.232C2.072,0.233 1.064,-0.323 -0.057,-0.707" style="fill:none;fill-rule:nonzero;stroke:rgb(82,93,125);stroke-width:1.38px;"/>
        </g>
    </g>
</svg>
