<?xml version="1.0" encoding="UTF-8" standalone="no"?>
<!DOCTYPE svg PUBLIC "-//W3C//DTD SVG 1.1//EN" "http://www.w3.org/Graphics/SVG/1.1/DTD/svg11.dtd">
<svg width="100%" height="100%" viewBox="0 0 280 235" version="1.1" xmlns="http://www.w3.org/2000/svg" xmlns:xlink="http://www.w3.org/1999/xlink" xml:space="preserve" xmlns:serif="http://www.serif.com/" style="fill-rule:evenodd;clip-rule:evenodd;stroke-linejoin:round;">
    <g transform="matrix(1,0,0,1,-548,-617)">
        <g transform="matrix(1.54562,0,0,1.54562,689.064,757.533)">
            <path d="M0,-36.238C-0.749,-37.161 -2.222,-37.148 -3.181,-36.648C-7.779,-34.25 -8.127,-26.171 -10.178,-21.736C-12.878,-15.898 -16.21,-11.998 -22.355,-9.709C-27.714,-7.714 -33.603,-7.436 -39.202,-8.455C-43.299,-9.2 -48.657,-12.684 -52.732,-11.48C-53.324,-11.305 -53.887,-10.691 -53.834,-10.034C-53.369,-4.245 -44.673,-1.525 -39.856,-0.522C-32.908,0.923 -25.4,0.218 -18.808,-2.377C-11.897,-5.096 -7.162,-9.39 -3.806,-16.02C-1.087,-21.391 4.334,-30.902 0,-36.238" style="fill:rgb(224,223,230);fill-rule:nonzero;"/>
        </g>
        <g transform="matrix(1.54562,0,0,1.54562,656.786,709.706)">
            <path d="M0,-26.309C-3.193,-30.75 -9.448,-29.82 -14.352,-28.938C-19.359,-28.038 -24.452,-25.954 -28.142,-22.356C-35.043,-15.623 -35.27,-1.025 -25.964,3.953C-25.05,4.441 -24.206,3.804 -24.083,2.874C-23.121,-4.389 -28.668,-12.271 -21.152,-17.797C-18.573,-19.694 -15.363,-20.742 -12.234,-21.258C-8.461,-21.881 -4.115,-20.482 -0.919,-22.803C0.118,-23.556 0.872,-25.096 0,-26.309" style="fill:rgb(224,223,230);fill-rule:nonzero;"/>
        </g>
        <g transform="matrix(1.54562,0,0,1.54562,668.949,699.146)">
            <path d="M0,-7.435C-3.092,-9.766 -7.161,-7.364 -10.387,-6.27C-13.702,-5.145 -17.283,-4.082 -20.305,-2.297C-20.844,-1.979 -20.859,-1.155 -20.305,-0.84C-14.702,2.331 -7.754,1.491 -1.766,0.14C-0.261,-0.2 0.913,-1.521 1.332,-2.958L1.537,-3.659C1.991,-5.216 1.189,-6.538 0,-7.435" style="fill:rgb(224,223,230);fill-rule:nonzero;"/>
        </g>
        <g transform="matrix(1.54562,0,0,1.54562,614.032,760.989)">
            <path d="M0,-14.445C-0.093,-15.773 -0.674,-17.29 -1.98,-17.899C-2.201,-18.002 -2.422,-18.104 -2.643,-18.208C-5.121,-19.362 -7.184,-18.985 -9.275,-17.351C-12.389,-14.921 -15.458,-12.422 -18.38,-9.76C-20.195,-8.106 -24.371,-2.243 -26.884,-2.817C-28.605,-3.212 -29.87,-1.78 -29.575,-0.127C-28.712,4.708 -23.319,4.917 -19.712,3.015C-13.733,-0.139 -8.41,-5.142 -2.643,-8.756C-1.084,-9.733 0.203,-11.552 0.067,-13.481L0,-14.445Z" style="fill:rgb(224,223,230);fill-rule:nonzero;"/>
        </g>
        <g transform="matrix(1.54562,0,0,1.54562,724.672,684.193)">
            <path d="M0,-5.915C-3.389,-11.061 -8.896,-17.71 -15.548,-18.052C-16.277,-18.089 -16.621,-17.266 -16.331,-16.687C-14.28,-12.604 -10.448,-9.53 -8.093,-5.574C-5.519,-1.251 -5.114,3.353 -3.249,7.844C-2.152,10.483 0.619,12.174 3.395,10.547C8.811,7.372 2.319,-2.393 0,-5.915" style="fill:rgb(224,223,230);fill-rule:nonzero;"/>
        </g>
        <g transform="matrix(1.54562,0,0,1.54562,798.474,754.177)">
            <path d="M0,40.299C1.454,37.331 0.862,33.493 0.854,30.182C0.839,24.654 0.694,19.125 0.474,13.603C0.042,2.842 -1.419,-7.585 -3.347,-18.143C-3.799,-20.622 -7.488,-19.902 -7.582,-17.57C-7.945,-8.473 -8.369,0.581 -8.461,9.702C-8.508,14.253 -8.468,18.804 -8.537,23.355C-8.567,25.305 -8.602,27.256 -8.639,29.206C-8.673,30.96 -7.985,35.213 -8.931,36.716C-10.334,38.946 -9.576,41.126 -7.995,42.423C-8.533,43.941 -8.353,45.653 -6.948,46.961C-8.979,46.976 -11.555,47.627 -13.255,47.763C-18.449,48.177 -23.647,48.542 -28.849,48.842C-38.929,49.423 -49.022,49.768 -59.118,49.877C-69.213,49.987 -79.313,49.853 -89.405,49.584C-94.61,49.445 -99.815,49.117 -105.022,49.137C-109.021,49.153 -112.926,49.782 -116.911,49.831C-117.644,49.84 -118.578,50.395 -118.697,51.192C-120.15,60.921 -96.893,59.625 -91.358,59.869C-77.362,60.488 -63.351,60.494 -49.349,60.076C-35.347,59.658 -21.357,58.797 -7.415,57.442C-2.598,56.974 3.428,56.857 5.168,51.28C6.584,46.744 3.427,42.848 0,40.299" style="fill:rgb(224,223,230);fill-rule:nonzero;"/>
        </g>
        <g transform="matrix(1.54562,0,0,1.54562,665.294,788.084)">
            <path d="M0,6.567C-0.121,2.712 0.118,-1.442 -0.588,-5.241C-1.836,-11.958 -8.585,-10.282 -8.902,-4.115C-9.007,-2.096 -8.803,-0.03 -8.729,1.989C-8.677,3.434 -7.919,6.804 -8.507,8.092C-8.155,8.877 -8.236,9.213 -8.749,9.103C-9.726,9.239 -10.707,9.292 -11.692,9.262C-13.143,9.407 -14.241,9.656 -15.505,10.362C-16.462,10.897 -16.619,12.051 -16.188,12.97C-13.749,18.176 -4.763,18.525 -1.46,14.032C0.164,11.821 0.082,9.168 0,6.567" style="fill:rgb(224,223,230);fill-rule:nonzero;"/>
        </g>
        <g transform="matrix(1.54562,0,0,1.54562,702.339,797.727)">
            <path d="M0,-10.46C-0.519,-14.682 -0.822,-19.783 -4.346,-22.617C-5.646,-23.663 -7.945,-23.851 -8.813,-22.042C-11.069,-17.329 -8.943,-12.02 -8.564,-7.037C-8.381,-4.623 -8.162,-2.073 -9.342,0.12C-10.9,3.017 -13.587,3.386 -16.426,4.401C-17.897,4.929 -18.677,6.861 -17.391,8.058C-11.662,13.391 -3.157,8.441 -0.781,2.169C0.733,-1.832 0.512,-6.287 0,-10.46" style="fill:rgb(224,223,230);fill-rule:nonzero;"/>
        </g>
        <g transform="matrix(1.54562,0,0,1.54562,742.269,790.217)">
            <path d="M0,-11.854C-0.762,-16.884 -1.405,-22.583 -4.996,-26.435C-6.04,-27.555 -8.339,-27.405 -9.021,-25.917C-11.789,-19.879 -10.055,-12.185 -9.365,-5.799C-9.099,-3.326 -8.028,0.832 -9.059,3.273C-10.204,5.989 -14.041,5.755 -16.556,6.659C-19.517,7.722 -19.642,11.79 -16.556,12.81C-7.812,15.701 0.047,12.472 1.009,2.652C1.475,-2.097 0.71,-7.16 0,-11.854" style="fill:rgb(224,223,230);fill-rule:nonzero;"/>
        </g>
        <g transform="matrix(1.54562,0,0,1.54562,777.533,793.272)">
            <path d="M0,-20.222C-0.477,-26.018 -1.026,-32.877 -5.348,-37.176C-7.007,-38.826 -9.738,-37.997 -10.414,-35.838C-12.53,-29.074 -9.674,-20.646 -9.53,-13.651C-9.408,-7.714 -8.175,2.696 -16.167,3.45C-18.076,3.63 -19.253,5.427 -18.326,7.212C-17.799,8.226 -17.086,8.997 -16.261,9.561C-23.215,9.426 -30.64,10.787 -37.239,11.189C-46.986,11.783 -56.771,12.288 -66.533,12.492C-69.098,12.546 -68.94,16.062 -66.533,16.367C-56.446,17.641 -46.438,18.413 -36.264,18.281C-27.526,18.168 -16.776,18.604 -8.762,14.722C-6.93,13.835 -7.376,10.826 -9.281,10.341C-8.92,10.236 -8.562,10.118 -8.212,9.975C-3.543,8.075 -1.318,3.228 -0.488,-1.479C0.592,-7.609 0.508,-14.039 0,-20.222" style="fill:rgb(224,223,230);fill-rule:nonzero;"/>
        </g>
        <g transform="matrix(1.54562,0,0,1.54562,780.53,729.865)">
            <path d="M0,-9.8C-3.068,-13.759 -6.814,-13.001 -11.455,-12.753C-18.337,-12.385 -25.22,-12.139 -32.105,-11.863C-39.412,-11.57 -46.489,-10.366 -53.739,-9.802C-54.655,-9.731 -54.672,-8.409 -53.739,-8.364C-48.471,-8.115 -43.303,-7.21 -38.006,-7.075C-32.434,-6.933 -26.861,-6.95 -21.288,-6.899C-18.666,-6.875 -16.044,-6.81 -13.422,-6.749C-11.614,-6.707 -7.83,-7.289 -6.376,-6.379C-4.888,-5.448 -4.248,-1.751 -3.622,-0.28C-2.905,1.406 -2.334,2.175 -0.861,3.288C0.026,3.959 1.472,3.612 2.206,2.892C6.099,-0.924 2.753,-6.247 0,-9.8" style="fill:rgb(224,223,230);fill-rule:nonzero;"/>
        </g>
        <g transform="matrix(-1.53473,0.183141,0.183141,1.53473,627.99,766.023)">
            <path d="M-0.021,-7.104C0.537,-4.859 1.056,-2.63 1.468,-0.353C1.64,0.603 0.17,0.761 -0.021,-0.175C-0.482,-2.434 -0.826,-4.687 -1.138,-6.97C-1.239,-7.708 -0.19,-7.786 -0.021,-7.104" style="fill:rgb(224,223,230);fill-rule:nonzero;"/>
        </g>
        <g transform="matrix(1.54562,0,0,1.54562,628.708,745.62)">
            <path d="M0,-62.06C-14.718,-60.059 -25.17,-46.314 -25.341,-31.746C-25.554,-13.648 -10.655,1.062 7.765,0.591C26.347,0.116 38.391,-15.471 37.507,-34.111C36.675,-51.855 21.154,-63.122 4.24,-62.621C2.761,-62.577 1.498,-62.264 0,-62.06Z" style="fill:none;fill-rule:nonzero;stroke:rgb(82,93,125);stroke-width:1.94px;"/>
        </g>
        <g transform="matrix(1.54562,0,0,1.54562,631.535,731.253)">
            <path d="M0,-43.462C-10.307,-42.061 -17.627,-32.435 -17.747,-22.232C-17.896,-9.558 -7.462,0.744 5.438,0.414C18.452,0.082 26.886,-10.834 26.268,-23.889C25.685,-36.315 14.815,-44.206 2.97,-43.855C1.934,-43.824 1.049,-43.605 0,-43.462Z" style="fill:none;fill-rule:nonzero;stroke:rgb(82,93,125);stroke-width:1.94px;"/>
        </g>
        <g transform="matrix(1.54562,0,0,1.54562,594.413,763.689)">
            <path d="M0,-25.811C-20.24,-5.571 -19.647,-6.604 -19.647,-4.952C-19.647,-2.371 -17.209,0 -14.353,0C-8.402,0 3.349,-13.615 7.384,-17.651" style="fill:none;fill-rule:nonzero;stroke:rgb(82,93,125);stroke-width:1.94px;stroke-linecap:round;"/>
        </g>
        <g transform="matrix(1.12207,1.06296,1.06296,-1.12207,591.286,729.761)">
            <path d="M-1.394,-3.498C1.858,-5.234 5.466,-3.958 8.778,-3.498" style="fill:none;fill-rule:nonzero;stroke:rgb(82,93,125);stroke-width:1.94px;stroke-linecap:round;"/>
        </g>
        <g transform="matrix(1.54562,0,0,1.54562,610.682,833.983)">
            <path d="M0,-10.391C1.799,-10.349 3.595,-10.331 5.388,-10.331C16.308,-10.331 27.151,-11.004 38.07,-11.004C57.822,-11.004 48.481,-7.437 58.631,-7.437C60.927,-7.437 65.508,-7.959 66.512,-7.959C67.423,-7.959 68.33,-7.844 69.21,-7.844C70.599,-7.844 72.753,-8.499 72.753,-9.472C72.753,-9.728 72.664,-10.037 72.664,-10.278C72.664,-10.926 79.967,-10.779 80.615,-10.779C94.646,-10.779 107.295,-9.755 115.211,-9.755C117.413,-9.755 119.609,-9.798 121.802,-9.868C121.817,-9.459 121.826,-9.049 121.826,-8.639C121.826,-5.962 121.466,-3.289 120.444,-1.026C84.691,0.361 32.26,0.613 16.318,0.613C12.331,0.613 8.344,0.609 4.357,0.606C1.937,-1.803 -0.007,-5.186 -0.007,-9.886C-0.007,-10.054 -0.004,-10.223 0,-10.391Z" style="fill:none;fill-rule:nonzero;stroke:rgb(82,93,125);stroke-width:1.94px;"/>
        </g>
        <g transform="matrix(1.54562,0,0,1.54562,619.629,816.789)">
            <path d="M0,-48.038C-0.022,-40.748 -0.09,-33.469 -0.09,-26.189C-0.09,-17.465 0.007,-8.741 0.396,0" style="fill:none;fill-rule:nonzero;stroke:rgb(82,93,125);stroke-width:1.94px;stroke-linecap:round;"/>
        </g>
        <g transform="matrix(0.0288263,1.54535,1.54535,-0.0288263,796.906,709.876)">
            <path d="M-7.404,-67.152C-8.098,-49.872 -7.627,-32.449 -7.405,-15.071L-7.404,-15.035C-7.318,-10.38 -1.935,-8.133 1.743,-8.144C24.343,-8.216 46.732,-7.468 69.432,-7.563" style="fill:none;fill-rule:nonzero;stroke:rgb(82,93,125);stroke-width:1.94px;stroke-linecap:round;"/>
        </g>
        <g transform="matrix(1.54562,0,0,1.54562,619.039,697.021)">
            <path d="M0,13.436C0.113,12.873 0.152,12.251 0.152,11.598C0.152,10.109 -0.051,8.455 -0.051,6.95C-0.051,0 3.767,2.137 28.772,1.001" style="fill:none;fill-rule:nonzero;stroke:rgb(82,93,125);stroke-width:1.94px;stroke-linecap:round;"/>
        </g>
        <g transform="matrix(1.54562,0,0,1.54562,640.486,803.305)">
            <path d="M0,-21.028C1.185,-21.024 2.375,-21.017 3.568,-21.017C5.579,-21.017 7.597,-21.036 9.605,-21.121C9.627,-14.05 9.848,-6.977 9.948,0.091C8.375,0.018 6.801,-0.083 5.228,-0.083C4.029,-0.083 2.308,0.018 0.429,0.093C0.234,-6.825 0,-13.742 0,-20.66L0,-21.028Z" style="fill:none;fill-rule:nonzero;stroke:rgb(82,93,125);stroke-width:1.94px;"/>
        </g>
        <g transform="matrix(1.54562,0,0,1.54562,674.965,801.836)">
            <path d="M0,-29.221C1.279,-29.196 2.546,-29.067 3.836,-29.067C4.643,-29.067 8.212,-29.303 10.833,-29.49C10.837,-19.572 11.471,-9.728 11.556,0.189C7.862,0.193 4.194,0.209 0.488,0.269C0.489,-0.759 0.489,-1.788 0.489,-2.818C0.489,-11.611 0.448,-20.438 0,-29.221Z" style="fill:none;fill-rule:nonzero;stroke:rgb(82,93,125);stroke-width:1.94px;"/>
        </g>
        <g transform="matrix(1.54562,0,0,1.54562,712.472,801.567)">
            <path d="M0,-41.385C1.663,-41.582 3.327,-41.636 4.991,-41.636C6.972,-41.636 8.951,-41.56 10.932,-41.56C11.011,-41.56 11.09,-41.56 11.169,-41.561C11.538,-30.434 12.138,-3.609 12.138,-2.606C12.138,-1.708 12.126,-0.81 12.1,0.089C11.595,0.08 11.09,0.076 10.587,0.076C7.333,0.076 4.106,0.23 0.845,0.251C0.516,-13.58 0.325,-27.55 0,-41.385Z" style="fill:none;fill-rule:nonzero;stroke:rgb(82,93,125);stroke-width:1.94px;"/>
        </g>
        <g transform="matrix(1.54562,0,0,1.54562,747.242,799.768)">
            <path d="M0,-48.358C2.178,-48.327 4.377,-48.246 6.578,-48.246C8.09,-48.246 9.603,-48.284 11.11,-48.402C11.79,-37.913 12.612,-2.566 12.639,-0.412C8.68,-0.216 4.721,-0.146 0.761,0.044C0.431,-16.096 0.179,-32.216 0,-48.358Z" style="fill:none;fill-rule:nonzero;stroke:rgb(82,93,125);stroke-width:1.94px;"/>
        </g>
        <g transform="matrix(0.562023,1.43981,1.43981,-0.562023,725.332,666.05)">
            <path d="M-8.526,-12.48C-0.799,-10.515 8.01,-10.754 18.269,-12.48" style="fill:none;fill-rule:nonzero;stroke:rgb(82,93,125);stroke-width:1.94px;stroke-linecap:round;"/>
        </g>
        <g transform="matrix(1.38997,0.675953,0.675953,-1.38997,656.118,623.303)">
            <path d="M-1.995,-8.666C14.628,-2.542 26.945,-2.868 37.635,-8.666" style="fill:none;fill-rule:nonzero;stroke:rgb(82,93,125);stroke-width:1.94px;stroke-linecap:round;stroke-miterlimit:10;stroke-dasharray:2.59,5.82;"/>
        </g>
    </g>
</svg>
