<?xml version="1.0" encoding="UTF-8" standalone="no"?>
<!DOCTYPE svg PUBLIC "-//W3C//DTD SVG 1.1//EN" "http://www.w3.org/Graphics/SVG/1.1/DTD/svg11.dtd">
<svg width="100%" height="100%" viewBox="0 0 280 235" version="1.1" xmlns="http://www.w3.org/2000/svg" xmlns:xlink="http://www.w3.org/1999/xlink" xml:space="preserve" xmlns:serif="http://www.serif.com/" style="fill-rule:evenodd;clip-rule:evenodd;stroke-linecap:round;stroke-linejoin:round;">
    <g transform="matrix(1,0,0,1,-235,-617)">
        <g transform="matrix(1.54562,0,0,1.54562,328.814,730.493)">
            <path d="M0,-30.936C-1.259,-35.066 -6.924,-34.925 -8.245,-30.936C-9.58,-26.905 -12.984,-23.892 -16.979,-22.604C-18.923,-21.978 -19.253,-18.781 -16.979,-18.326C-12.771,-17.483 -8.97,-18.371 -5.938,-20.497C-5.535,-18.512 -5.47,-16.631 -6.277,-15.189C-8.197,-11.759 -11.263,-8.915 -13.464,-5.597C-15.777,-5.231 -18.091,-4.735 -20.306,-4.171C-22.312,-3.662 -25.746,-2.644 -25.106,0.138C-24.469,2.905 -21,3.223 -18.676,3.541C-15.206,4.013 -11.758,4.13 -8.287,3.637C-5.975,3.31 -4.865,1.456 -4.767,-0.546C-1.208,-4.148 3.005,-8.789 4.54,-13.25C6.628,-19.322 1.697,-25.374 0,-30.936" style="fill:rgb(224,223,230);fill-rule:nonzero;"/>
        </g>
        <g transform="matrix(1.54562,0,0,1.54562,307.856,774.576)">
            <path d="M0,-10.003C-5.309,-10.878 -10.609,-10.859 -15.948,-10.261C-19.979,-9.809 -24.997,-9.681 -27.794,-6.41C-28.205,-5.931 -28.369,-5.056 -27.794,-4.599C-24.715,-2.146 -20.635,-2.366 -16.861,-1.933C-11.685,-1.339 -6.566,-0.312 -1.388,0.248C4.407,0.875 5.804,-9.046 0,-10.003" style="fill:rgb(224,223,230);fill-rule:nonzero;"/>
        </g>
        <g transform="matrix(1.54562,0,0,1.54562,379.401,670.797)">
            <path d="M0,6.299C-1.031,3.743 -1.868,1.188 -2.673,-1.441C-3.365,-3.7 -3.849,-6.346 -5.231,-8.269C-5.896,-9.195 -7.247,-9.574 -8.127,-8.642C-12.213,-4.315 -11.285,3.792 -10.188,9.108C-8.79,15.873 2.525,12.555 0,6.299" style="fill:rgb(224,223,230);fill-rule:nonzero;"/>
        </g>
        <g transform="matrix(1.54562,0,0,1.54562,308.371,825.044)">
            <path d="M0,-17.901C-1.815,-19.39 -4.664,-19.437 -5.938,-17.135C-6.828,-15.532 -6.92,-14.561 -6.86,-12.771C-6.823,-11.653 -6.258,-10.047 -6.887,-9.021C-8.148,-6.964 -12.09,-7.539 -14.117,-7.532C-15.966,-7.526 -26.301,-8.381 -25.635,-4.256C-25.091,-0.893 -19.392,-0.47 -16.791,0.022C-12.975,0.744 -8.992,1.536 -5.176,0.39C1.514,-1.617 6.107,-12.889 0,-17.901" style="fill:rgb(224,223,230);fill-rule:nonzero;"/>
        </g>
        <g transform="matrix(1.54562,0,0,1.54562,464.553,845.162)">
            <path d="M0,-43.416C-2.153,-40.024 -3.372,-36.118 -5.466,-32.664C-7.772,-28.859 -10.617,-25.605 -13.727,-22.441C-19.719,-16.342 -27.042,-11.798 -35.354,-9.645C-43.685,-7.487 -52.222,-7.75 -60.521,-9.929C-64.916,-11.083 -69.252,-12.778 -73.294,-14.843C-76.883,-16.676 -80.058,-18.89 -83.891,-20.137C-84.463,-20.323 -85.008,-19.73 -84.852,-19.176C-82.337,-10.245 -71.778,-4.444 -63.624,-1.454C-53.897,2.113 -42.705,2.688 -32.664,0.114C-23.066,-2.345 -14.025,-7.733 -7.109,-14.805C-0.769,-21.286 6.321,-32.399 5.882,-41.823C5.735,-44.961 1.706,-46.104 0,-43.416" style="fill:rgb(224,223,230);fill-rule:nonzero;"/>
        </g>
        <g transform="matrix(1.54562,0,0,1.54562,441.36,814.636)">
            <path d="M0,-23.651C-0.459,-26.259 -3.775,-27.165 -5.83,-26.023C-9.54,-23.961 -10.857,-19.411 -13.621,-16.28C-16.618,-12.883 -20.27,-10.033 -24.334,-8.013C-29.38,-5.506 -34.183,-6.298 -39.54,-7.226C-43.35,-7.885 -47.765,-9.446 -51.444,-7.775C-51.858,-7.587 -51.879,-7.058 -51.724,-6.706C-49.713,-2.122 -42.545,0.077 -38.091,1.508C-31.856,3.514 -26.036,3.175 -20.058,0.527C-14.99,-1.719 -10.404,-5.249 -6.726,-9.386C-3.217,-13.334 0.972,-18.132 0,-23.651" style="fill:rgb(224,223,230);fill-rule:nonzero;"/>
        </g>
        <g transform="matrix(1.54562,0,0,1.54562,404.494,786.618)">
            <path d="M0,-11.902C-1.758,-9.215 -3.417,-6.511 -6.467,-5.133C-8.621,-4.16 -15.625,-2.731 -17.05,-5.284C-17.835,-6.692 -20.492,-6.577 -20.763,-4.798C-21.763,1.783 -12.868,4.319 -7.719,4.117C-0.525,3.835 6.578,-1.295 8.347,-8.383C9.621,-13.487 2.826,-16.221 0,-11.902" style="fill:rgb(224,223,230);fill-rule:nonzero;"/>
        </g>
        <g transform="matrix(1.54562,0,0,1.54562,457.254,758.286)">
            <path d="M0,-45.366C-4.438,-44.339 -7.223,-39.515 -10.22,-36.3C-14.006,-32.24 -17.807,-28.193 -21.568,-24.11C-25.108,-20.266 -28.649,-16.422 -32.172,-12.562C-35.182,-9.267 -39.66,-5.494 -40.593,-0.967C-40.73,-0.303 -40.178,0.339 -39.479,0.148C-35.218,-1.012 -32.167,-5.102 -29.179,-8.184C-25.317,-12.169 -21.494,-16.192 -17.661,-20.204C-14.053,-23.98 -10.48,-27.792 -6.896,-31.591C-3.787,-34.884 1.488,-38.46 2.268,-43.098C2.502,-44.487 1.462,-45.705 0,-45.366" style="fill:rgb(224,223,230);fill-rule:nonzero;"/>
        </g>
        <g transform="matrix(1.54562,0,0,1.54562,473.809,684.045)">
            <path d="M0,-19.17C-0.469,-20.383 -0.982,-20.991 -1.994,-21.762C-3.616,-22.999 -5.879,-22.204 -7.25,-21.084C-12.834,-16.521 -17.022,-10.123 -18.49,-3.026C-19.292,0.852 -14.748,3.829 -11.727,0.911C-7.997,-2.694 -1.679,-8.413 -2.021,-14.181C-1.72,-14.438 -1.431,-14.701 -1.116,-14.949C-0.025,-15.808 0.495,-17.89 0,-19.17" style="fill:rgb(224,223,230);fill-rule:nonzero;"/>
        </g>
        <g transform="matrix(1.54562,0,0,1.54562,471.987,757.992)">
            <path d="M0,-10.856C-4.809,-10.323 -10.597,-8.976 -14.326,-5.725C-16.851,-3.524 -14.688,0.352 -11.749,0.495C-9.576,0.6 -7.354,0.014 -5.229,-0.389C-3.069,-0.799 -0.881,-1.006 1.277,-1.42C6.522,-2.427 5.409,-11.456 0,-10.856" style="fill:rgb(224,223,230);fill-rule:nonzero;"/>
        </g>
        <g transform="matrix(1.54562,0,0,1.54562,497.765,705.605)">
            <path d="M0,-20.485C-0.875,-22.436 -3.393,-22.545 -5.045,-21.808C-7.792,-20.584 -8.347,-18.459 -9.634,-15.901C-10.515,-14.151 -12.222,-9.902 -14.048,-8.685C-13.527,-9.112 -15.816,-8.826 -16.216,-8.825C-17.472,-8.819 -18.729,-8.853 -19.984,-8.845C-22.249,-8.831 -24.607,-9.118 -26.513,-7.757C-27.01,-7.403 -27.291,-6.856 -27.13,-6.24C-25.648,-0.549 -14.099,2.06 -9.333,-0.323C-6.217,-1.881 -4.037,-5.971 -2.377,-8.856C-0.138,-12.748 1.931,-16.178 0,-20.485" style="fill:rgb(224,223,230);fill-rule:nonzero;"/>
        </g>
        <g transform="matrix(1.54562,0,0,1.54562,479.468,788.651)">
            <path d="M0,-12.395C-3.041,-11.602 -5.817,-10.544 -8.97,-9.939C-10.676,-9.612 -12.75,-8.791 -14.467,-8.781C-16.825,-8.767 -17.535,-9.187 -18.508,-11.445C-19.495,-13.736 -22.59,-12.276 -22.759,-10.293C-23.371,-3.122 -20.086,1.341 -12.394,0.584C-6.664,0.021 3.903,0.289 5.673,-6.722C6.536,-10.144 3.444,-13.293 0,-12.395" style="fill:rgb(224,223,230);fill-rule:nonzero;"/>
        </g>
        <g transform="matrix(1.54562,0,0,1.54562,474.203,719.366)">
            <path d="M0,9.717C-3.407,3.914 -7.219,-2.734 -12.684,-6.818C-14.873,-8.454 -17.178,-5.76 -16.815,-3.641C-15.786,2.361 -12.396,8.363 -10.095,13.973C-9.201,16.154 -7.377,18.171 -4.77,18.028C-3.204,17.942 -1.921,17.619 -0.864,16.41C0.762,14.55 1.301,11.932 0,9.717" style="fill:rgb(224,223,230);fill-rule:nonzero;"/>
        </g>
        <g transform="matrix(1.54562,0,0,1.54562,419.704,803.883)">
            <path d="M0,-0.482C-9.228,-0.014 -17.545,3.129 -26.929,1.311C-30.974,0.528 -35.092,-0.602 -37.717,-3.989C-40.051,-7 -40.935,-10.76 -43.275,-13.79C-43.628,-14.249 -44.349,-14.376 -44.678,-13.79C-50.01,-4.3 -42.439,6.083 -33.381,9.367C-22.607,13.271 -6.333,13.894 2.387,5.28C4.392,3.298 2.967,-0.632 0,-0.482" style="fill:rgb(224,223,230);fill-rule:nonzero;"/>
        </g>
        <g transform="matrix(1.54562,0,0,1.54562,399.615,775.155)">
            <path d="M0,-14.786C-2.292,-16.399 -5.678,-15.159 -7.018,-12.946C-7.071,-12.857 -7.109,-12.766 -7.156,-12.678C-7.152,-12.674 -7.151,-12.672 -7.147,-12.667C-6.941,-12.39 -6.942,-12.39 -7.147,-12.656C-7.15,-12.662 -7.154,-12.669 -7.157,-12.675C-7.158,-12.674 -7.158,-12.673 -7.159,-12.672C-7.229,-12.763 -7.319,-12.881 -7.434,-13.03C-7.937,-13.533 -8.645,-13.824 -9.356,-13.827C-12.491,-13.836 -14.225,-10.64 -13.925,-7.817C-13.56,-4.387 -11.336,-1.478 -7.932,-0.538C-0.137,1.613 7.397,-9.578 0,-14.786" style="fill:rgb(224,223,230);fill-rule:nonzero;"/>
        </g>
        <g transform="matrix(1.54562,0,0,1.54562,388.54,755.21)">
            <path d="M0,0.215C-0.018,0.179 -0.05,0.135 -0.062,0.102C-0.17,0 -0.146,0.041 0,0.215" style="fill:rgb(224,223,230);fill-rule:nonzero;"/>
        </g>
        <g transform="matrix(1.54562,0,0,1.54562,388.54,755.565)">
            <path d="M0,-0.015C0.002,-0.01 0.005,-0.005 0.008,0L0.009,-0.003C0.005,-0.008 0.003,-0.01 0,-0.015" style="fill:rgb(224,223,230);fill-rule:nonzero;"/>
        </g>
        <g transform="matrix(-0.73552,-1.35939,-1.35939,0.73552,461.887,714.855)">
            <path d="M-12.044,7.178C-6.641,6.201 -1.151,6.183 4.277,7.178" style="fill:none;fill-rule:nonzero;stroke:rgb(82,93,125);stroke-width:1.94px;"/>
        </g>
        <g transform="matrix(1.54562,0,0,1.54562,428.531,823.936)">
            <path d="M0,-82.252C-1.061,-82.877 -2.158,-83.472 -3.289,-84.037C-6.098,-85.441 -8.722,-86.638 -11.747,-87.479C-15.724,-88.584 -19.795,-89.143 -23.865,-89.177C-49.458,-89.399 -72.884,-68.95 -72.777,-40.88C-72.668,-15.839 -52.287,7.147 -22.898,6.635C-1.954,6.27 15.322,-7.653 21.254,-26.362" style="fill:none;fill-rule:nonzero;stroke:rgb(82,93,125);stroke-width:1.94px;"/>
        </g>
        <g transform="matrix(1.54562,0,0,1.54562,411.145,801.911)">
            <path d="M0,-53.858C-1.763,-54.739 -3.409,-55.49 -5.308,-56.017C-7.803,-56.712 -10.358,-57.062 -12.913,-57.084C-28.973,-57.223 -43.675,-44.39 -43.607,-26.775C-43.539,-11.06 -30.749,3.365 -12.306,3.043C1.918,2.795 13.446,-7.418 16.173,-20.618" style="fill:none;fill-rule:nonzero;stroke:rgb(82,93,125);stroke-width:1.94px;"/>
        </g>
        <g transform="matrix(-0.633158,-1.40998,-1.40998,0.633158,438.51,734.151)">
            <path d="M-8.864,5.737C-4.675,4.821 -0.423,4.805 3.712,5.737" style="fill:none;fill-rule:nonzero;stroke:rgb(82,93,125);stroke-width:1.94px;"/>
        </g>
        <g transform="matrix(1.54562,0,0,1.54562,394.146,782.93)">
            <path d="M0,-29.387C-0.719,-29.501 -1.443,-29.561 -2.167,-29.567C-10.088,-29.636 -17.34,-23.306 -17.306,-14.617C-17.273,-6.866 -10.964,0.249 -1.867,0.091C6.118,-0.049 12.38,-6.555 12.481,-14.355C12.515,-16.989 11.945,-19.473 10.798,-21.658" style="fill:none;fill-rule:nonzero;stroke:rgb(82,93,125);stroke-width:1.94px;"/>
        </g>
        <g transform="matrix(1.54562,0,0,1.54562,388.661,665.562)">
            <path d="M0,61.381L0.365,61.017L55.618,0" style="fill:none;fill-rule:nonzero;stroke:rgb(82,93,125);stroke-width:1.94px;"/>
        </g>
        <g transform="matrix(1.54562,0,0,1.54562,497.477,668.664)">
            <path d="M0,-0.863C-4.14,5.188 -8.401,11.093 -12.541,17.034C-18.728,16.689 -24.831,15.656 -31.037,14.971C-31.866,9.274 -32.806,3.574 -33.722,-2.12C-28.318,-7.431 -22.739,-12.637 -17.187,-17.897C-16.752,-12.558 -15.994,-7.284 -15.135,-2.029C-10.12,-1.717 -5.041,-1.066 0,-0.863Z" style="fill:none;fill-rule:nonzero;stroke:rgb(82,93,125);stroke-width:1.94px;stroke-linecap:butt;"/>
        </g>
        <g transform="matrix(1.54516,-0.0376854,-0.0376854,-1.54516,390.388,762.027)">
            <path d="M-0.008,0.667L54.704,0.667" style="fill:none;fill-rule:nonzero;stroke:rgb(82,93,125);stroke-width:1.94px;"/>
        </g>
        <g transform="matrix(1.54562,0,0,1.54562,474.054,758.918)">
            <path d="M0,0.764C2.405,3.661 4.914,6.474 7.727,9.065C0.031,10.047 -7.753,10.411 -15.556,10.653C-17.833,7.502 -19.832,4.13 -21.896,0.837C-19.311,-2.405 -16.657,-5.523 -14.068,-8.76C-6.894,-9.113 0.28,-9.475 7.454,-9.889C5.027,-6.281 2.523,-2.749 0,0.764Z" style="fill:none;fill-rule:nonzero;stroke:rgb(82,93,125);stroke-width:1.94px;stroke-linecap:butt;"/>
        </g>
        <g transform="matrix(1.54562,0,0,1.54562,313.708,700.384)">
            <path d="M0,-19.046C-0.844,-19.255 -1.702,-19.343 -2.553,-19.317C-7.722,-19.152 -12.038,-14.957 -11.833,-8.942C-11.679,-4.452 -7.462,-0.162 -2.806,0.033C3.477,0.297 7.964,-4.854 7.915,-9.824C7.888,-12.492 6.79,-14.386 5.371,-15.924C3.911,-17.505 2.06,-18.539 0,-19.046Z" style="fill:none;fill-rule:nonzero;stroke:rgb(82,93,125);stroke-width:1.94px;stroke-linecap:butt;"/>
        </g>
        <g transform="matrix(-1.44941,-0.536777,-0.536777,1.44941,299.305,734.462)">
            <path d="M6.008,-21.79C10.747,-16.238 10.386,-8.941 7.962,-2.394C7.407,-0.896 6.744,0.564 6.008,1.954C4.489,1.352 2.963,0.763 1.431,0.196C-2.95,-1.427 -7.392,-2.883 -11.94,-4.052" style="fill:none;fill-rule:nonzero;stroke:rgb(82,93,125);stroke-width:1.94px;"/>
        </g>
        <g transform="matrix(0.78718,1.33014,1.33014,-0.78718,330.822,698.326)">
            <path d="M-2.977,-5.22C0.802,-3.324 5.229,-4.373 9.156,-5.22" style="fill:none;fill-rule:nonzero;stroke:rgb(82,93,125);stroke-width:1.94px;"/>
        </g>
        <g transform="matrix(1.54562,0,0,1.54562,298.933,814.544)">
            <path d="M0,-19.84C1.078,-13.586 1.058,-7.149 1.494,-0.839C-6.816,-0.371 -15.212,-0.659 -23.516,0C-23.641,-2.822 -23.848,-5.656 -24.137,-8.407" style="fill:none;fill-rule:nonzero;stroke:rgb(82,93,125);stroke-width:1.94px;"/>
        </g>
        <g transform="matrix(1.54562,0,0,1.54562,282.047,813.764)">
            <path d="M0,-13.746C0.254,-11.586 0.254,-9.363 0.254,-7.14C0.254,-5.842 0.512,-2.702 0.75,0" style="fill:none;fill-rule:nonzero;stroke:rgb(82,93,125);stroke-width:1.94px;"/>
        </g>
        <g transform="matrix(-0.180094,-1.53509,-1.53509,0.180094,283.288,813.257)">
            <path d="M-0.302,0.269C-0.128,0.269 0.054,0.269 0.239,0.269" style="fill:none;fill-rule:nonzero;stroke:rgb(82,93,125);stroke-width:1.94px;"/>
        </g>
        <g transform="matrix(-0.0649236,-1.54425,-1.54425,0.0649236,367.385,687.395)">
            <path d="M-1.042,0.999C-0.376,1.002 0.29,1.002 0.958,0.999" style="fill:none;fill-rule:nonzero;stroke:rgb(82,93,125);stroke-width:1.94px;"/>
        </g>
        <g transform="matrix(-0.0190541,-1.5455,-1.5455,0.0190541,372.109,664.724)">
            <path d="M-4.434,4.38C-1.517,4.387 1.406,4.378 4.326,4.38" style="fill:none;fill-rule:nonzero;stroke:rgb(82,93,125);stroke-width:1.94px;stroke-dasharray:2.66,6;"/>
        </g>
        <g transform="matrix(1.54562,0,0,1.54562,365.142,647.883)">
            <path d="M0,1.998C-0.013,1.332 -0.027,0.665 -0.044,0L-2.044,0.005" style="fill:none;fill-rule:nonzero;stroke:rgb(82,93,125);stroke-width:1.94px;"/>
        </g>
        <g transform="matrix(-1.54561,0.00405876,0.00405876,1.54561,266.768,648.247)">
            <path d="M-51.79,-0.068L0,-0.068" style="fill:none;fill-rule:nonzero;stroke:rgb(82,93,125);stroke-width:1.94px;stroke-dasharray:2.82,6.35;"/>
        </g>
        <g transform="matrix(1.54562,0,0,1.54562,259.185,651.261)">
            <path d="M0,-2.005L-2,-2L-1.977,0" style="fill:none;fill-rule:nonzero;stroke:rgb(82,93,125);stroke-width:1.94px;"/>
        </g>
        <g transform="matrix(0.0177159,1.54552,1.54552,-0.0177159,299.978,706.343)">
            <path d="M-27.641,-27.96L28.282,-27.96" style="fill:none;fill-rule:nonzero;stroke:rgb(82,93,125);stroke-width:1.94px;stroke-dasharray:2.39,5.38;"/>
        </g>
        <g transform="matrix(1.54562,0,0,1.54562,257.34,760.069)">
            <path d="M0,-1.999L0.023,0L2.023,-0.011" style="fill:none;fill-rule:nonzero;stroke:rgb(82,93,125);stroke-width:1.94px;"/>
        </g>
        <g transform="matrix(1.54559,-0.00886921,-0.00886921,-1.54559,273.659,760.065)">
            <path d="M-0,0.058L20.389,0.059" style="fill:none;fill-rule:nonzero;stroke:rgb(82,93,125);stroke-width:1.94px;stroke-dasharray:2.45,5.52;"/>
        </g>
        <g transform="matrix(1.54559,-0.00927354,-0.00927354,-1.54559,311.768,759.764)">
            <path d="M-0,0.006L2,0.006" style="fill:none;fill-rule:nonzero;stroke:rgb(82,93,125);stroke-width:1.94px;"/>
        </g>
    </g>
</svg>
