<?xml version="1.0" encoding="UTF-8" standalone="no"?>
<!DOCTYPE svg PUBLIC "-//W3C//DTD SVG 1.1//EN" "http://www.w3.org/Graphics/SVG/1.1/DTD/svg11.dtd">
<svg width="100%" height="100%" viewBox="0 0 306 311" version="1.1" xmlns="http://www.w3.org/2000/svg" xmlns:xlink="http://www.w3.org/1999/xlink" xml:space="preserve" xmlns:serif="http://www.serif.com/" style="fill-rule:evenodd;clip-rule:evenodd;stroke-linecap:round;stroke-linejoin:round;stroke-miterlimit:10;">
    <g transform="matrix(1,0,0,1,-260,-623)">
        <g transform="matrix(2.05363,0,0,2.05363,433.548,798.543)">
            <path d="M0,-24.228C-0.722,-25.304 -2.622,-25.278 -2.941,-23.844C-3.468,-21.47 -3.418,-18.885 -3.795,-16.533C-4.289,-16.344 -4.77,-16.032 -5.221,-15.569C-4.529,-17.457 -4.868,-19.522 -6.745,-20.646C-8.513,-21.705 -11.147,-21.108 -12.135,-19.233C-13.053,-17.491 -14.065,-15.097 -15.822,-14.029C-16.999,-13.314 -18.906,-13.331 -19.367,-14.895C-20.14,-17.522 -24.587,-17.163 -24.332,-14.223C-24.052,-10.986 -21.885,-8.586 -19.016,-7.579C-21.836,-8.203 -23.98,-10.268 -26.477,-12.241C-27.246,-12.849 -28.432,-12.709 -28.727,-11.647C-30.526,-5.158 -22.911,-0.353 -17.43,0.397C-12.476,1.076 -7.384,-0.825 -3.52,-4.091C2.971,-8.236 4.408,-17.66 0,-24.228" style="fill:rgb(224,223,230);fill-rule:nonzero;"/>
        </g>
        <g transform="matrix(2.05363,0,0,2.05363,425.251,747.336)">
            <path d="M0,-9.642C-1.744,-10.564 -3.634,-10.002 -4.717,-8.405C-5.167,-7.741 -5.654,-7.089 -6.073,-6.404C-6.49,-5.722 -6.759,-4.93 -7.076,-4.197C-7.721,-2.704 -7.619,-1.105 -6.247,-0.046C-5.063,0.869 -3.071,0.922 -2.023,-0.297C-1.356,-1.073 -0.606,-1.838 -0.045,-2.694C0.422,-3.407 0.812,-4.186 1.237,-4.925C2.136,-6.49 1.654,-8.768 0,-9.642" style="fill:rgb(224,223,230);fill-rule:nonzero;"/>
        </g>
        <g transform="matrix(2.05363,0,0,2.05363,334.849,761.353)">
            <path d="M0,-29.304C-1.636,-27.749 -3.141,-26.097 -4.531,-24.371C-4.02,-25.103 -3.486,-25.823 -2.913,-26.52C-0.127,-29.908 3.288,-32.743 7.088,-34.913C7.087,-34.907 7.088,-34.901 7.087,-34.895C4.498,-33.181 2.099,-31.299 0,-29.304M45.932,-44.76C40.736,-46.166 36.294,-47.32 31.348,-47.26C24.811,-48.672 17.243,-47.098 11.245,-44.953C3.167,-42.064 -4.118,-37.017 -9.242,-30.089C-16.317,-20.524 -18.49,-8.193 -15.809,3.047C-15.881,3.661 -15.953,4.276 -16.007,4.894C-16.091,5.875 -15.486,6.555 -14.7,6.874C-13.288,10.938 -11.206,14.79 -8.455,18.232C-7.546,19.368 -5.977,17.921 -6.547,16.759C-8.859,12.044 -10.3,6.856 -10.817,1.59C-8.374,-8.441 -3.056,-17.677 4.779,-24.525C14.591,-33.1 25.505,-35.412 37.994,-37.093C40.745,-37.463 40.709,-40.273 39.309,-41.964C41.253,-42 43.166,-41.833 45.007,-41.404C47.182,-40.898 48.102,-44.173 45.932,-44.76" style="fill:rgb(224,223,230);fill-rule:nonzero;"/>
        </g>
        <g transform="matrix(2.05363,0,0,2.05363,497.929,820.949)">
            <path d="M0,40.546C-1.19,40.919 -2.565,41.082 -3.914,41.093C-2.301,40.36 -0.992,39.059 -0.175,37.36C1.051,34.812 0.414,28.249 2.987,26.523C0.544,29.076 1.928,31.625 2.795,34.483C3.798,37.791 3.538,39.437 0,40.546M19.112,8.231C18.096,7.197 16.612,6.668 15.159,6.718C14.242,4.725 11.542,3.712 9.43,5.59C7.835,7.008 5.854,8.002 3.629,6.881C2.71,6.418 1.636,6.599 0.851,7.136C0.737,6.891 0.62,6.652 0.501,6.438C-0.183,5.204 -1.126,4.171 -2.361,3.476C-5.335,1.804 -8.412,2.843 -11.43,3.713C-11.905,3.849 -13.066,4.376 -13.538,4.196C-15.069,3.611 -14.426,1.524 -14.301,0.454C-14.137,-0.951 -13.962,-2.365 -14.151,-3.78C-14.459,-6.08 -15.303,-7.75 -17.617,-8.395C-18.578,-8.663 -19.465,-7.338 -18.639,-6.639C-15.708,-4.155 -19.892,1.115 -19.616,4.402C-19.367,7.362 -17.167,9.501 -14.34,10.124C-11.967,10.647 -7.748,8.876 -6.222,10.65C-5.21,11.827 -5.301,13.343 -3.829,14.325C-2.502,15.211 -0.969,15.431 0.537,14.874C1.711,14.441 2.394,13.617 2.652,12.692C4.818,14.036 7.569,14.463 10.012,13.857C10.253,14.574 10.642,15.262 11.185,15.87C11.664,16.408 12.244,16.776 12.87,17.019C14.713,19.758 15.509,24.367 11.347,24.79C10.055,24.921 8.809,24.792 7.615,24.79C8.846,22.928 8.399,19.715 5.763,19.14C1.482,18.208 -2.402,20.788 -3.903,24.855C-5.452,29.055 -2.574,37.131 -6.97,39.846C-7.371,40.093 -7.504,40.574 -7.414,40.99C-8.704,41.377 -9.334,42.933 -8.275,44.168C-4.373,48.721 1.761,49.209 6.843,46.164C9.316,44.682 11.492,42.254 12.149,39.393C12.645,37.232 11.993,35.489 11.339,33.737C13.494,33.884 16.463,33.744 17.237,33.387C20.148,32.042 22.238,29.13 23.328,26.201C25.718,19.776 23.82,13.02 19.112,8.231" style="fill:rgb(224,223,230);fill-rule:nonzero;"/>
        </g>
        <g transform="matrix(2.05363,0,0,2.05363,476.567,906.128)">
            <path d="M0,-14.507C0.115,-17.169 -2.514,-18.597 -4.821,-18.18C-7.558,-17.684 -9.03,-14.819 -9.818,-12.215C-11.732,-12.94 -14.12,-11.738 -14.737,-9.694C-15.324,-7.747 -14.56,-5.573 -15.921,-3.844C-17.099,-2.348 -19.15,-2.231 -20.822,-2.759C-23.603,-3.638 -25.177,0.395 -22.77,1.862C-19.113,4.09 -14.382,3.895 -10.967,1.281C-10.287,0.761 -9.658,0.129 -9.107,-0.578C-7.213,0.659 -3.855,-0.405 -4.03,-3.17C-4.153,-5.1 -3.977,-6.942 -3.018,-8.655C-1.835,-10.766 -0.114,-11.876 0,-14.507" style="fill:rgb(224,223,230);fill-rule:nonzero;"/>
        </g>
        <g transform="matrix(-2.05154,-0.0926392,-0.0926392,2.05154,530.347,835.075)">
            <path d="M14.511,-67.337C15.055,-68.065 16.261,-67.561 15.981,-66.638C10.605,-48.934 3.89,-28.854 14.511,-11.717C18.584,-5.144 7.48,0.832 3.813,-6.096C-7.202,-26.903 1.411,-49.832 14.511,-67.337" style="fill:rgb(224,223,230);fill-rule:nonzero;"/>
        </g>
        <g transform="matrix(2.05363,0,0,2.05363,381.306,865.691)">
            <path d="M0,-0.226C-0.178,-0.266 -0.355,-0.295 -0.532,-0.329C0.439,-1.944 -0.349,-4.582 -2.851,-4.734C-6.047,-4.929 -9.112,-5.356 -12.012,-6.788C-14.548,-8.04 -16.434,-4.68 -14.2,-3.046C-12.955,-2.136 -11.628,-1.345 -10.236,-0.714C-11.713,-0.811 -13.202,-1.043 -14.716,-1.576C-19.911,-3.403 -23.372,-6.976 -27.055,-10.854C-28.366,-12.234 -30.204,-10.743 -29.963,-9.16C-28.995,-2.803 -23.931,2.605 -18.614,5.859C-13.269,9.13 -4.612,12.008 1.153,8.595C4.587,6.563 4.142,0.702 0,-0.226" style="fill:rgb(224,223,230);fill-rule:nonzero;"/>
        </g>
        <g transform="matrix(2.05363,0,0,2.05363,509.014,824.666)">
            <path d="M0,-31.536C-0.042,-32.799 -1.986,-32.809 -1.97,-31.536C-1.905,-26.249 -3.671,-20.741 -6.092,-16.071C-8.223,-11.96 -11.914,-8.931 -13.906,-4.869C-15.171,-2.289 -12.433,1.273 -9.638,-0.602C-0.363,-6.822 0.334,-21.601 0,-31.536" style="fill:rgb(224,223,230);fill-rule:nonzero;"/>
        </g>
        <g transform="matrix(1.85868,-0.873329,-0.873329,-1.85868,517.038,756.272)">
            <path d="M-17.089,-18.578C-9.449,-12.667 -3.127,-4.872 1.12,4.168C12.238,27.829 2.456,54.222 -17.089,69.453C-56.531,96.387 -90.103,75.221 -101.637,51.708C-114.272,26.485 -106.497,-2.531 -85.744,-18.694" style="fill:none;fill-rule:nonzero;stroke:rgb(82,93,125);stroke-width:1.46px;"/>
        </g>
        <g transform="matrix(1.79625,-0.995433,-0.995433,-1.79625,495.745,736.887)">
            <path d="M-14.426,-18.951C-9.895,-15.041 -6.002,-10.296 -3.022,-4.918C7.441,13.962 0.838,36.246 -14.426,49.871C-45.435,74.234 -74.261,58.646 -85.058,39.91C-96.737,20.033 -92.148,-4.008 -76.338,-18.518" style="fill:none;fill-rule:nonzero;stroke:rgb(82,93,125);stroke-width:1.46px;"/>
        </g>
        <g transform="matrix(2.05363,0,0,2.05363,397.157,785.085)">
            <path d="M0,-25.843C-6.988,-25.525 -12.054,-19.134 -12.054,-12.43C-12.054,-4.584 -4.353,0.016 0.869,0.016C6.752,0.016 13.706,-6.025 13.706,-14.071C13.706,-21.791 6.961,-25.859 0.682,-25.859C0.455,-25.859 0.227,-25.853 0,-25.843Z" style="fill:none;fill-rule:nonzero;stroke:rgb(82,93,125);stroke-width:1.46px;stroke-linecap:butt;stroke-miterlimit:4;"/>
        </g>
        <g transform="matrix(2.05363,0,0,2.05363,399.338,713.108)">
            <path d="M0,9.195C5.955,3.528 12.207,-1.883 18.873,-6.617C16.391,0.83 14.097,8.365 11.458,15.812" style="fill:none;fill-rule:nonzero;stroke:rgb(82,93,125);stroke-width:1.46px;stroke-miterlimit:4;"/>
        </g>
        <g transform="matrix(2.05363,0,0,2.05363,391.124,760.044)">
            <path d="M0,-1.964C-0.076,-1.659 -0.112,-1.352 -0.112,-1.048C-0.112,1.212 1.877,3.312 4.083,3.312C5.967,3.312 7.945,1.785 7.945,-0.741C7.945,-3.757 5.953,-5.276 3.347,-5.276C2.05,-5.276 1.044,-4.104 0.366,-3.426C0.366,-3.061 0.125,-2.465 0,-1.964Z" style="fill:none;fill-rule:nonzero;stroke:rgb(82,93,125);stroke-width:1.46px;stroke-linecap:butt;stroke-miterlimit:4;"/>
        </g>
        <g transform="matrix(2.05363,0,0,2.05363,398.008,659.807)">
            <path d="M0,9.354C-0.447,7.415 -0.559,5.453 -0.559,3.485C-0.559,2.324 -0.52,1.161 -0.488,0" style="fill:none;fill-rule:nonzero;stroke:rgb(82,93,125);stroke-width:1.46px;stroke-miterlimit:4;"/>
        </g>
        <g transform="matrix(1.2726,-1.6118,-1.6118,-1.2726,459.369,698.403)">
            <path d="M-1.688,3.483C1.266,3.678 4.229,3.508 7.188,3.483" style="fill:none;fill-rule:nonzero;stroke:rgb(82,93,125);stroke-width:1.46px;stroke-miterlimit:4;"/>
        </g>
        <g transform="matrix(2.04288,-0.209898,-0.209898,-2.04288,474.549,754.916)">
            <path d="M-0.027,0.52C3.39,0.759 6.766,0.604 10.149,0.52" style="fill:none;fill-rule:nonzero;stroke:rgb(82,93,125);stroke-width:1.46px;stroke-miterlimit:4;"/>
        </g>
        <g transform="matrix(-1.68981,-1.16702,-1.16702,1.68981,328.019,690.061)">
            <path d="M-8.661,2.7C-5.483,3.082 -2.31,2.666 0.842,2.7" style="fill:none;fill-rule:nonzero;stroke:rgb(82,93,125);stroke-width:1.46px;stroke-miterlimit:4;"/>
        </g>
        <g transform="matrix(2.0335,-0.286866,-0.286866,-2.0335,303.92,763.255)">
            <path d="M-0.041,0.587C2.737,0.545 5.489,0.448 8.356,0.586" style="fill:none;fill-rule:nonzero;stroke:rgb(82,93,125);stroke-width:1.46px;stroke-miterlimit:4;"/>
        </g>
        <g transform="matrix(1.32999,-1.56477,-1.56477,-1.32999,340.295,824.5)">
            <path d="M-1.453,3.143C1.294,3.115 4.055,3.263 6.795,3.143" style="fill:none;fill-rule:nonzero;stroke:rgb(82,93,125);stroke-width:1.46px;stroke-miterlimit:4;"/>
        </g>
        <g transform="matrix(2.05363,0,0,2.05363,422.643,800.003)">
            <path d="M0,51.806C3.123,52.397 6.245,52.949 9.368,52.949C13.579,52.949 17.13,52.493 17.13,48.413C17.13,46.332 14.831,43.953 14.831,39.628C14.831,35.356 17.892,32.992 21.613,32.992C26.243,32.992 29.761,35.001 29.761,39.709C29.761,42.866 26.201,49.263 26.201,49.846C26.201,50.899 27.414,50.83 34.343,50.83C36.042,50.83 37.744,50.775 39.439,50.653C38.544,47.563 37.809,44.408 37.809,41.316C37.809,36.857 38.602,34.247 42.71,34.247C46.048,34.247 46.759,35.977 48.997,35.977C52.376,35.977 54.016,33.026 54.016,29.913C54.016,26.918 52.347,23.33 47.486,23.33C45.522,23.33 43.397,23.76 41.439,23.76C37.417,23.76 35.224,21.727 35.224,17.421C35.224,16.291 35.347,15.089 35.466,13.879C32.639,14.292 29.808,14.726 26.939,15.388C26.434,15.505 25.813,15.579 25.174,15.579C23.444,15.579 21.589,15.032 21.589,13.288C21.589,10.778 24.649,8.379 24.649,5.452C24.649,0.928 18.894,-1.143 15.975,-1.143C11.177,-1.143 7.805,1.619 7.805,7.222C7.805,7.586 7.81,7.95 7.81,8.313C7.81,12.997 13.671,13.185 13.671,15.62C13.671,16.802 12.259,17.747 11.478,17.747C8.858,17.747 6.303,17.812 3.748,17.812C2.637,17.812 1.526,17.8 0.41,17.764C0.559,19.647 0.687,21.542 0.687,23.46C0.687,27.257 0.798,30.488 -3.109,30.488C-5.727,30.488 -5.743,27.25 -9.446,27.25C-12.907,27.25 -16.432,30.035 -16.432,33.536C-16.432,36.005 -13.738,41.268 -10.384,41.268C-7.524,41.268 -4.398,38.392 -2.238,38.392C-0.35,38.392 0.377,43.558 0.377,45.811C0.377,47.795 0.129,49.797 0,51.806Z" style="fill:none;fill-rule:nonzero;stroke:rgb(82,93,125);stroke-width:1.46px;stroke-linecap:butt;stroke-miterlimit:4;"/>
        </g>
    </g>
</svg>
