<?xml version="1.0" encoding="UTF-8" standalone="no"?>
<!DOCTYPE svg PUBLIC "-//W3C//DTD SVG 1.1//EN" "http://www.w3.org/Graphics/SVG/1.1/DTD/svg11.dtd">
<svg width="100%" height="100%" viewBox="0 0 306 311" version="1.1" xmlns="http://www.w3.org/2000/svg" xmlns:xlink="http://www.w3.org/1999/xlink" xml:space="preserve" xmlns:serif="http://www.serif.com/" style="fill-rule:evenodd;clip-rule:evenodd;stroke-linejoin:round;">
    <g transform="matrix(1,0,0,1,-577,-623)">
        <g transform="matrix(2.08136,0,0,2.08136,729.757,821.086)">
            <path d="M0,-19.895C-0.192,-22.842 -3.694,-23.098 -4.809,-20.934C-4.814,-20.945 -4.818,-20.955 -4.822,-20.967C-4.472,-23.619 -6.564,-26.684 -9.935,-25.764C-12.029,-25.192 -14.035,-24.408 -16.171,-23.968C-18.164,-23.557 -20.353,-23.697 -22.119,-22.629C-23.335,-21.893 -23.912,-19.768 -22.617,-18.761C-21.411,-17.824 -19.776,-17.28 -17.985,-17.006C-17.557,-16.493 -16.913,-16.121 -16.051,-16.047C-15.279,-15.98 -14.496,-15.952 -13.711,-15.942C-13.397,-14.956 -12.572,-14.157 -11.228,-14.157C-9.793,-14.157 -8.954,-15.072 -8.693,-16.151C-8.52,-16.166 -8.345,-16.176 -8.174,-16.192C-7.137,-16.289 -6.209,-16.754 -5.551,-17.441C-6.215,-14.392 -7.402,-11.509 -9.027,-8.854C-12.909,-4.546 -17.285,-1.682 -23.266,-1.421C-28.932,-1.173 -33.028,-3.997 -38.269,-5.293C-39.282,-5.544 -40.328,-4.615 -40.005,-3.556C-37.926,3.257 -28.997,6.579 -22.487,6.672C-14.348,6.789 -6.74,2.637 -1.863,-3.706C-0.777,-5.118 -0.934,-6.67 -1.721,-7.926C-0.346,-11.726 0.272,-15.73 0,-19.895" style="fill:rgb(224,223,230);fill-rule:nonzero;"/>
        </g>
        <g transform="matrix(2.08136,0,0,2.08136,793.761,836.304)">
            <path d="M0,-5.588C-1.013,-7.32 -3.548,-8.137 -5.301,-6.978C-6.498,-6.186 -7.643,-5.264 -8.958,-4.666C-10.26,-4.074 -11.683,-3.937 -13.021,-3.464C-14.751,-2.853 -15.329,-0.371 -13.554,0.617C-10.084,2.549 -4.619,1.848 -1.39,-0.287C0.353,-1.44 1.098,-3.711 0,-5.588" style="fill:rgb(224,223,230);fill-rule:nonzero;"/>
        </g>
        <g transform="matrix(2.08136,0,0,2.08136,788.875,796.252)">
            <path d="M0,-11.435C-2.339,-12.422 -5.376,-11.179 -5.982,-8.563C-5.993,-8.515 -6.036,-8.36 -6.075,-8.216C-6.127,-8.107 -6.187,-7.972 -6.202,-7.931C-6.21,-7.907 -6.209,-7.9 -6.211,-7.885C-6.225,-7.873 -6.23,-7.87 -6.245,-7.856C-6.285,-7.819 -6.488,-7.642 -6.612,-7.527C-6.716,-7.462 -6.837,-7.384 -6.859,-7.363C-6.886,-7.34 -6.896,-7.326 -6.906,-7.312C-6.938,-7.303 -6.964,-7.297 -7.012,-7.283C-7.521,-7.126 -8.018,-6.968 -8.547,-6.89C-9.947,-6.686 -10.957,-5.035 -10.957,-3.724C-10.957,-2.183 -9.91,-1.085 -8.547,-0.559C-4.546,0.987 0.2,-1.547 2.12,-5.147C3.369,-7.49 2.501,-10.379 0,-11.435" style="fill:rgb(224,223,230);fill-rule:nonzero;"/>
        </g>
        <g transform="matrix(2.08136,0,0,2.08136,784.849,744.522)">
            <path d="M0,-4.602C-0.874,-5.958 -2.853,-6.723 -4.312,-5.733C-5.284,-5.073 -6.256,-4.413 -7.228,-3.754C-8.505,-2.887 -9.193,-1.114 -8.288,0.289C-7.389,1.684 -5.711,2.121 -4.245,1.349C-3.207,0.803 -2.169,0.257 -1.131,-0.29C0.331,-1.059 0.894,-3.215 0,-4.602" style="fill:rgb(224,223,230);fill-rule:nonzero;"/>
        </g>
        <g transform="matrix(2.08136,0,0,2.08136,862.618,726.472)">
            <path d="M0,43.526C-2.173,27.302 -4.214,11.079 -5.975,-5.194C-6.268,-7.903 -10.434,-8.034 -10.309,-5.194C-9.794,6.455 -9.392,18.089 -9.147,29.747C-9.032,35.228 -8.901,40.709 -8.811,46.191C-8.775,48.38 -7.411,58.652 -9.844,61.314L-9.85,61.314C-9.815,61.064 -9.783,60.813 -9.789,60.536C-10.361,37.183 -10.772,13.85 -13.04,-9.415C-13.089,-9.92 -13.368,-10.238 -13.709,-10.387C-13.685,-11.252 -13.917,-12.125 -14.397,-12.866C-11.441,-13.43 -8.815,-15.956 -10.206,-19.282C-12.006,-23.585 -13.313,-28.011 -14.409,-32.541C-15.542,-37.23 -22.502,-36.066 -22.636,-31.427C-22.657,-30.699 -22.559,-29.934 -22.444,-29.162C-22.358,-28.21 -22.259,-27.26 -22.14,-26.315C-22.14,-25.99 -22.153,-25.668 -22.205,-25.358C-22.507,-23.535 -21.832,-23.861 -23.603,-22.71C-25.135,-21.715 -27.229,-21.651 -28.996,-21.458C-34.878,-20.814 -40.935,-21.149 -46.84,-21.198C-59.072,-21.299 -71.275,-21.373 -83.505,-21.108C-85.468,-21.065 -85.428,-18.229 -83.505,-18.087C-67.904,-16.934 -52.28,-16.598 -36.636,-16.729C-31.91,-16.768 -25.604,-16.564 -20.708,-17.949C-20.604,-17.457 -20.51,-16.965 -20.4,-16.472C-20.307,-16.054 -20.177,-15.676 -20.015,-15.334C-26.566,-16.379 -34.232,-15.24 -40.579,-15.185C-49.215,-15.111 -57.852,-15.07 -66.488,-14.888C-83.432,-14.53 -100.385,-14.464 -117.269,-12.908C-119.431,-12.709 -119.412,-9.786 -117.269,-9.56C-100.397,-7.773 -83.437,-7.472 -66.488,-6.88C-58.199,-6.591 -49.907,-6.434 -41.615,-6.248C-37.47,-6.155 -33.324,-6.061 -29.179,-5.97C-25.025,-5.878 -20.682,-5.321 -16.67,-6.527C-16.218,-6.663 -15.825,-6.862 -15.476,-7.098C-17.552,15.399 -17.97,37.957 -18.523,60.536C-18.532,60.91 -18.495,61.255 -18.429,61.579C-30.031,62.223 -41.75,63.788 -53.204,64.748C-60.813,65.386 -68.443,65.969 -76.036,66.761C-82.057,67.389 -88.462,67.915 -94.393,69.477C-96.973,69.49 -99.548,69.578 -102.115,69.782C-103.35,69.88 -103.744,71.695 -102.421,72.039C-87.323,75.967 -71.057,76.423 -55.587,77.986C-40.027,79.559 -24.439,80.756 -9.079,77.084C-6.287,76.417 -5.223,74.112 -5.426,71.858C-2.403,70.552 0.034,67.98 1.15,64.513C3.245,58.011 0.875,50.061 0,43.526" style="fill:rgb(224,223,230);fill-rule:nonzero;"/>
        </g>
        <g transform="matrix(2.08136,0,0,2.08136,609.671,649.455)">
            <path d="M0,105.915C37.113,104.232 74.225,103.358 111.337,101.826C111.107,90.799 110.941,42.776 109.728,9.487C109.58,5.434 106.308,2.209 102.253,2.112C13.704,0 36.5,1.373 3.689,1.983C-0.552,2.061 -3.936,5.541 -3.897,9.783C-3.583,44.59 -0.779,94.575 0,105.915Z" style="fill:none;fill-rule:nonzero;stroke:rgb(82,93,125);stroke-width:1.44px;"/>
        </g>
        <g transform="matrix(2.08125,0.0215901,0.0215901,-2.08125,601.741,690.952)">
            <path d="M-0.002,-0.591C37.881,-0.733 76.007,0.35 113.947,-0.591" style="fill:none;fill-rule:nonzero;stroke:rgb(82,93,125);stroke-width:1.44px;stroke-linecap:round;"/>
        </g>
        <g transform="matrix(2.08136,0,0,2.08136,621.948,677.722)">
            <path d="M0,-4.009C-0.349,-3.461 -0.504,-2.905 -0.504,-2.389C-0.504,-1.064 0.519,0 1.935,0C2.175,0 2.425,-0.03 2.684,-0.095" style="fill:none;fill-rule:nonzero;stroke:rgb(82,93,125);stroke-width:1.44px;stroke-linecap:round;"/>
        </g>
        <g transform="matrix(2.08136,0,0,2.08136,645.562,677.634)">
            <path d="M0,-4.564C-0.464,-4.1 -0.663,-3.548 -0.663,-2.996C-0.663,-1.113 1.407,0 2.547,0C3.336,0 4.442,-0.129 4.795,-0.835" style="fill:none;fill-rule:nonzero;stroke:rgb(82,93,125);stroke-width:1.44px;stroke-linecap:round;"/>
        </g>
        <g transform="matrix(2.08136,0,0,2.08136,670.418,675.711)">
            <path d="M0,-3.242C0,-1.506 1.61,0 3.253,0C3.842,0 4.349,-0.222 4.658,-0.84" style="fill:none;fill-rule:nonzero;stroke:rgb(82,93,125);stroke-width:1.44px;stroke-linecap:round;"/>
        </g>
        <g transform="matrix(2.08136,0,0,2.08136,673.163,816.512)">
            <path d="M0,-45.017C-0.213,-45.024 -0.426,-45.027 -0.637,-45.027C-12.758,-45.027 -22.013,-34.181 -22.013,-22.636C-22.013,-13.511 -15.286,0.019 1.405,0.019C19.69,0.019 23.501,-19.027 23.501,-24.111C23.501,-34.317 15.358,-41.878 5.104,-44.553C3.253,-45.036 1.855,-44.959 0,-45.017Z" style="fill:none;fill-rule:nonzero;stroke:rgb(82,93,125);stroke-width:1.44px;"/>
        </g>
        <g transform="matrix(2.08136,0,0,2.08136,669.982,796.009)">
            <path d="M0,-35.157C-0.711,-26.275 -0.805,-17.312 -0.816,-8.428C6.162,-5.073 13.426,-2.581 20.662,0" style="fill:none;fill-rule:nonzero;stroke:rgb(82,93,125);stroke-width:1.44px;stroke-linecap:round;"/>
        </g>
        <g transform="matrix(1.94153,-0.750025,-0.750025,-1.94153,675.041,787.79)">
            <path d="M-0.895,4.799C7.922,4.636 16.815,4.952 25.738,4.799" style="fill:none;fill-rule:nonzero;stroke:rgb(82,93,125);stroke-width:1.44px;stroke-linecap:round;"/>
        </g>
        <g transform="matrix(2.08136,0,0,2.08136,761.324,741.407)">
            <path d="M0,-9.709C2.611,-9.633 5.254,-9.588 7.872,-9.519C7.949,-6.323 8.183,-3.192 8.459,-0.014C7.999,-0.004 7.54,0 7.081,0C4.9,0 2.724,-0.096 0.545,-0.127C0.216,-3.306 0.054,-6.538 0,-9.709Z" style="fill:none;fill-rule:nonzero;stroke:rgb(82,93,125);stroke-width:1.44px;"/>
        </g>
        <g transform="matrix(-1.5166,1.42548,1.42548,1.5166,784.63,775.707)">
            <path d="M4.228,-11.122C2.4,-9.298 0.599,-7.383 -1.222,-5.53C0.736,-3.324 2.47,-0.907 4.228,1.486C6.222,-0.367 8.287,-2.082 10.331,-3.893C8.391,-6.38 6.213,-8.694 4.228,-11.122Z" style="fill:none;fill-rule:nonzero;stroke:rgb(82,93,125);stroke-width:1.44px;"/>
        </g>
        <g transform="matrix(2.08136,0,0,2.08136,784.857,824.934)">
            <path d="M0,-8.25C0.242,-5.493 0.39,-2.756 0.581,-0.001C-1.91,0.148 -4.401,0.307 -6.893,0.307C-7.647,0.307 -8.4,0.292 -9.154,0.258C-9.546,-2.666 -9.634,-5.614 -9.654,-8.535C-9.198,-8.55 -8.744,-8.557 -8.291,-8.557C-5.532,-8.557 -2.802,-8.306 0,-8.25Z" style="fill:none;fill-rule:nonzero;stroke:rgb(82,93,125);stroke-width:1.44px;"/>
        </g>
        <g transform="matrix(2.07853,0.108561,0.108561,-2.07853,791.09,729.274)">
            <path d="M-0.007,-0.28C3.563,-0.094 7.152,0.009 10.748,-0.281" style="fill:none;fill-rule:nonzero;stroke:rgb(82,93,125);stroke-width:1.44px;stroke-linecap:round;"/>
        </g>
        <g transform="matrix(2.08136,0,0,2.08136,795.013,774.194)">
            <path d="M0,-0.805C0.463,-0.863 0.925,-0.888 1.388,-0.888C4.275,-0.888 7.158,0.083 10.045,0.083C10.507,0.083 10.97,0.058 11.433,0" style="fill:none;fill-rule:nonzero;stroke:rgb(82,93,125);stroke-width:1.44px;stroke-linecap:round;"/>
        </g>
        <g transform="matrix(2.08136,0,0,2.08136,798.485,815.676)">
            <path d="M0,0L10.487,0" style="fill:none;fill-rule:nonzero;stroke:rgb(82,93,125);stroke-width:1.44px;stroke-linecap:round;"/>
        </g>
        <g transform="matrix(0.0869969,2.07955,2.07955,-0.0869969,827.827,771.673)">
            <path d="M-39.625,-41.317C-12.02,-41.27 15.47,-41.529 43.082,-41.317" style="fill:none;fill-rule:nonzero;stroke:rgb(82,93,125);stroke-width:1.44px;stroke-linecap:round;stroke-miterlimit:10;stroke-dasharray:1.92,4.32;"/>
        </g>
    </g>
</svg>
