<?xml version="1.0" encoding="UTF-8" standalone="no"?><!DOCTYPE svg PUBLIC "-//W3C//DTD SVG 1.1//EN" "http://www.w3.org/Graphics/SVG/1.1/DTD/svg11.dtd"><svg width="100%" height="100%" viewBox="0 0 7171 1259" version="1.1" xmlns="http://www.w3.org/2000/svg" xmlns:xlink="http://www.w3.org/1999/xlink" xml:space="preserve" xmlns:serif="http://www.serif.com/" style="fill-rule:evenodd;clip-rule:evenodd;stroke-linejoin:round;stroke-miterlimit:2;"><g><text x="1422.14px" y="579.792px" style="font-family:'SansForgetica-Regular', 'Sans Forgetica';font-size:600px;fill:#fff;">Virtually(Cr<tspan x="4861.34px 5227.34px " y="579.792px 579.792px ">ea</tspan>tiv<tspan x="6430.94px 6796.94px " y="579.792px 579.792px ">e)</tspan></text><text x="1415.88px" y="1040.49px" style="font-family:'AtkinsonHyperlegible-Regular', 'Atkinson Hyperlegible';font-size:395.833px;fill:#fff;">Dream. Design. Develop. Del<tspan x="6332.93px " y="1040.49px ">i</tspan>ver.</text></g><path id="COLLAPSE" d="M740.932,136.103l-47.935,373.944c0,38.429 30.942,69.403 69.334,69.403l373.547,-48.007c11.077,-1.537 22.18,-6.702 30.688,-15.475c21.652,-21.669 21.652,-56.496 0,-78.192l-62.384,-62.45l138.692,-138.574c22.932,-22.955 22.932,-60.125 0,-83.085l-124.516,-124.639c-22.96,-22.954 -60.069,-22.954 -83.029,0l-138.411,138.575l-62.385,-62.193c-21.651,-21.673 -56.467,-21.673 -78.12,-0c-8.759,8.519 -13.923,19.606 -15.481,30.693Zm-199.011,-0c-1.534,-11.087 -6.695,-22.174 -15.457,-30.693c-21.65,-21.673 -56.467,-21.673 -78.117,-0l-62.383,62.193l-138.439,-138.575c-22.934,-22.954 -60.07,-22.954 -83.004,0l-124.515,124.639c-22.961,22.96 -22.961,60.13 -0,83.085l138.689,138.574l-62.383,62.45c-21.65,21.696 -21.65,56.523 -0,78.192c8.51,8.773 19.584,13.938 30.662,15.475l373.571,48.007c38.395,-0 69.335,-30.974 69.335,-69.403l-47.959,-373.944Zm199.011,989.911c1.558,11.087 6.722,22.173 15.481,30.692c21.653,21.673 56.469,21.673 78.12,0l62.385,-62.193l138.411,138.575c22.96,22.955 60.069,22.955 83.029,0l124.516,-124.639c22.932,-22.959 22.932,-60.13 0,-83.085l-138.692,-138.574l62.384,-62.447c21.652,-21.673 21.652,-56.526 0,-78.194c-8.508,-8.773 -19.611,-13.939 -30.688,-15.471l-373.547,-48.012c-38.392,0 -69.334,30.974 -69.334,69.404l47.935,373.944Zm-199.011,-0l47.959,-373.944c0,-38.43 -30.94,-69.404 -69.335,-69.404l-373.571,48.012c-11.078,1.532 -22.152,6.698 -30.662,15.471c-21.65,21.668 -21.65,56.521 -0,78.194l62.383,62.447l-138.689,138.574c-22.961,22.955 -22.961,60.126 -0,83.085l124.515,124.639c22.934,22.955 60.07,22.955 83.004,0l138.439,-138.575l62.383,62.193c21.65,21.673 56.467,21.673 78.117,0c8.762,-8.519 13.923,-19.605 15.457,-30.692Z" style="fill:#0099cb;"/></svg>