<?xml version="1.0" encoding="UTF-8" standalone="no"?><!DOCTYPE svg PUBLIC "-//W3C//DTD SVG 1.1//EN" "http://www.w3.org/Graphics/SVG/1.1/DTD/svg11.dtd"><svg width="100%" height="100%" viewBox="0 0 40 40" version="1.1" xmlns="http://www.w3.org/2000/svg" xmlns:xlink="http://www.w3.org/1999/xlink" xml:space="preserve" xmlns:serif="http://www.serif.com/" style="fill-rule:evenodd;clip-rule:evenodd;stroke-linejoin:round;stroke-miterlimit:2;"><g id="Web-Hero-Man" serif:id="Web Hero Man" opacity="0.4"><path d="M21.742,18.616c0.389,-0.068 0.788,-0.082 1.168,-0.192c0.288,-0.083 0.354,-0.496 0.085,-0.648c-1.001,-0.563 -2.436,-0.246 -3.458,0.109c-0.614,0.212 -1.212,0.471 -1.812,0.718c-0.214,0.088 -2.008,0.976 -2.019,0.429c-0.005,-0.219 -0.277,-0.274 -0.393,-0.106c-0.266,0.381 -0.15,0.941 0.239,1.196c0.673,0.44 1.613,0.023 2.279,-0.222c0.023,-0.009 0.046,-0.017 0.069,-0.026c0.274,-0.13 0.532,-0.263 0.756,-0.373c0.943,-0.46 2.012,-0.955 3.086,-0.885" style="fill:#ffcc80;fill-rule:nonzero;"/><path d="M16.862,29.52c-0.265,-0.893 -0.395,-1.837 0.366,-2.547c0.535,-0.497 0.922,-1.048 1.218,-1.715c0.054,-0.12 0.108,-0.244 0.161,-0.369c0.007,0.033 0.02,0.062 0.034,0.089c-0.02,0.066 -0.04,0.132 -0.057,0.199c-0.105,0.396 0.468,0.657 0.672,0.284c0.028,-0.052 0.055,-0.105 0.082,-0.159c0.102,-0.018 0.201,-0.071 0.269,-0.168c0.025,-0.034 0.049,-0.069 0.073,-0.103c0.173,0.081 0.387,0.076 0.521,-0.081c0.083,-0.097 0.165,-0.196 0.247,-0.295c0.162,0.072 0.355,0.059 0.488,-0.103c0.037,-0.045 0.071,-0.09 0.105,-0.136c0.15,-0.002 0.305,-0.068 0.405,-0.198c0.299,-0.389 0.593,-0.909 0.1,-1.278c-0.171,-0.128 -0.347,-0.156 -0.556,-0.173c-0.27,-0.022 -0.467,-0.079 -0.674,-0.19c0,-0.08 -0.014,-0.157 -0.05,-0.229c-0.007,-0.093 -0.064,-0.171 -0.139,-0.221c0.012,-0.142 0.021,-0.283 0.027,-0.418c0.011,-0.239 -0.338,-0.272 -0.405,-0.055c-0.063,0.204 -0.121,0.409 -0.178,0.615c-0.002,0.004 -0.005,0.007 -0.007,0.011c-0.025,0.048 -0.048,0.096 -0.072,0.144c0.114,-0.431 0.201,-0.862 0.248,-1.283c0.009,-0.081 -0.109,-0.124 -0.161,-0.066c-0.546,0.604 -0.942,1.363 -1.358,2.059c-0.423,0.71 -0.93,1.453 -1.22,2.23c-0.122,0.325 -0.224,0.728 -0.288,1.069c-0.051,0.266 -0.052,0.548 -0.158,0.805c-0.077,0.188 -0.24,0.39 -0.336,0.573c-0.339,0.648 -0.474,1.247 -0.318,1.974c0.135,0.624 1.146,0.355 0.961,-0.265" style="fill:#e0dfe6;fill-rule:nonzero;"/><path d="M18.94,29.171c0.286,0.148 0.552,0.072 0.839,-0.023c0.222,-0.073 0.378,-0.412 0.155,-0.584c-0.012,-0.009 -0.023,-0.018 -0.035,-0.027c0.087,-0.193 -0.017,-0.429 -0.226,-0.488c-0.265,-0.075 -0.508,0.103 -0.558,0.365c-0.033,0.176 0.035,0.315 0.134,0.439c-0.095,0.092 -0.229,0.178 -0.309,0.233c-0.028,0.02 -0.035,0.067 0,0.085" style="fill:#e0dfe6;fill-rule:nonzero;"/><path d="M19.013,27.032c-0.185,0.11 -0.338,0.226 -0.446,0.372c-0.085,-0.058 -0.227,-0.03 -0.213,0.098c0.014,0.121 0.028,0.242 0.041,0.362c0.021,0.183 0.312,0.265 0.353,0.048c0.102,-0.535 0.963,-0.778 1.391,-0.991c0.528,-0.263 1.053,-0.536 1.59,-0.781c0.995,-0.455 2.222,-0.624 3.113,-1.28c0.29,-0.213 0.129,-0.687 -0.252,-0.599c-1.331,0.312 -2.523,1.185 -3.728,1.796c-0.619,0.314 -1.252,0.62 -1.849,0.975" style="fill:#e0dfe6;fill-rule:nonzero;"/><path d="M27.944,22.768c0,-0.03 -0.002,-0.059 -0.007,-0.089c0.077,0.058 0.154,0.115 0.23,0.17c-0.074,-0.028 -0.148,-0.055 -0.223,-0.081m-0.936,0.491c0.202,-0.012 0.401,-0.04 0.593,-0.104c0.119,0.046 0.237,0.096 0.354,0.15c-0.318,-0.035 -0.633,-0.049 -0.947,-0.046m0.25,-1.138c0.061,0.056 0.123,0.11 0.187,0.164c-0.069,-0.017 -0.138,-0.029 -0.208,-0.038c0.012,-0.04 0.02,-0.082 0.021,-0.126m-1.567,1.239c0.118,-0.024 0.237,-0.045 0.356,-0.059c0.189,-0.023 0.381,-0.026 0.572,-0.029c-0.31,0.016 -0.619,0.047 -0.928,0.088m0.121,-1.576c0.037,0.047 0.075,0.093 0.113,0.138c-0.104,-0.015 -0.208,-0.032 -0.309,-0.053c0.068,-0.031 0.135,-0.059 0.196,-0.085m-2.989,0.425c0.114,-0.044 0.225,-0.091 0.333,-0.145c0.113,-0.057 0.154,-0.155 0.147,-0.253c0.014,0.043 0.027,0.086 0.042,0.128c0.015,0.042 0.03,0.084 0.045,0.126c-0.191,0.034 -0.38,0.083 -0.567,0.144m9.779,2.208c-0.566,-0.193 -1.126,-0.431 -1.673,-0.698c-0.047,-0.093 -0.139,-0.163 -0.279,-0.165c-0.018,-0 -0.036,-0.002 -0.053,-0.003c-0.458,-0.236 -0.905,-0.49 -1.334,-0.757c-0.558,-0.346 -1.096,-0.733 -1.606,-1.145c-0.325,-0.262 -0.635,-0.582 -0.975,-0.843c-0.345,-0.411 -0.77,-0.774 -1.243,-1.057c-0.131,-0.162 -0.268,-0.317 -0.42,-0.455c-0.618,-0.562 -1.916,-0.938 -2.696,-0.571c-0.012,0.005 -0.019,0.014 -0.026,0.022c-0.044,-0.037 -0.1,-0.067 -0.171,-0.081c-0.128,-0.026 -0.257,-0.04 -0.385,-0.048c-1.073,-0.07 -2.142,0.425 -3.085,0.885c-0.225,0.11 -0.482,0.243 -0.757,0.373c-1.114,0.53 -2.513,1.015 -3.144,-0.303c-0.027,-0.055 -0.107,-0.024 -0.109,0.03c-0.047,1.312 1.54,1.629 2.537,1.384c0.772,-0.189 1.476,-0.597 2.196,-0.92c0.883,-0.396 1.676,-0.569 2.638,-0.599c0.257,-0.008 0.41,-0.246 0.401,-0.463c0.038,0.037 0.077,0.069 0.117,0.1c-0.019,0.108 -0.006,0.213 0.018,0.333c0.014,0.069 0.032,0.136 0.053,0.203c0.011,0.033 0.022,0.066 0.035,0.099c0.007,0.017 0.041,0.104 0.038,0.084c0.018,0.135 0.099,0.253 0.209,0.306c0.094,0.52 0.209,1.039 0.367,1.539c-0.064,-0.105 -0.186,-0.179 -0.327,-0.145c-0.362,0.087 -0.705,0.262 -1.045,0.41c-0.159,0.069 -0.319,0.136 -0.477,0.207c-0.185,0.082 -0.497,0.312 -0.705,0.274c-0.1,-0.017 -0.175,0.094 -0.101,0.173c0.263,0.281 0.674,0.09 0.993,-0.003c0.308,-0.09 0.628,-0.17 0.94,-0.271c-0.28,0.105 -0.554,0.227 -0.823,0.344c-0.216,0.094 -0.058,0.421 0.156,0.369c0.587,-0.141 1.197,-0.212 1.775,-0.385c0.133,0.237 0.302,0.432 0.537,0.52c-0.023,0.121 0.019,0.254 0.139,0.314c0.079,0.04 0.15,0.087 0.224,0.131c-0.019,0.065 0.021,0.152 0.104,0.152c1.393,-0.015 2.799,-0.032 4.141,0.392c1.219,0.386 2.349,1.005 3.565,1.4c2.215,0.719 4.76,0.585 6.939,-0.24l-0,-1.724c-0.782,0.414 -1.561,0.817 -2.452,1.044c-1.389,0.353 -2.883,0.25 -4.236,-0.212" style="fill:#e0dfe6;fill-rule:nonzero;"/><path d="M0.08,26.56c-0.06,0.035 -0.11,0.109 -0.104,0.181c0.011,0.142 0.077,0.248 0.207,0.314c0.134,0.069 0.286,0.073 0.413,-0.016c0.103,-0.073 0.154,-0.193 0.103,-0.314c-0.047,-0.111 -0.16,-0.166 -0.276,-0.148c-0.007,-0.002 -0.031,-0.002 -0.035,-0.001c-0.009,-0 -0.028,-0.002 -0.044,-0.001c-0.019,-0.01 -0.046,-0.016 -0.062,-0.021c-0.005,-0.002 -0.011,-0.004 -0.015,-0.006c0.004,0.002 0.011,0.006 0.024,0.012c-0.069,-0.034 -0.143,-0.04 -0.211,-0" style="fill:#e0dfe6;fill-rule:nonzero;"/><path d="M4.028,23.347c0.229,0.041 0.424,-0.089 0.641,-0.148c0.236,-0.065 0.525,-0.03 0.696,-0.227c0.149,-0.17 0.136,-0.435 -0.072,-0.557c-0.279,-0.164 -0.598,0.003 -0.859,0.138c-0.212,0.11 -0.512,0.265 -0.563,0.518c-0.023,0.11 0.031,0.253 0.157,0.276" style="fill:#e0dfe6;fill-rule:nonzero;"/><path d="M7.411,25.057c0.6,0.517 1.51,1.222 2.339,1.043c0.368,-0.079 0.488,-0.589 0.222,-0.84c-0.298,-0.281 -0.653,-0.343 -1.011,-0.529c-0.366,-0.19 -0.705,-0.434 -1.04,-0.675c-0.711,-0.512 -1.356,-1.055 -2.151,-1.44c-0.156,-0.075 -0.354,0.085 -0.251,0.252c0.504,0.823 1.161,1.558 1.892,2.189" style="fill:#e0dfe6;fill-rule:nonzero;"/><path d="M18.025,14.304c0.064,0.083 0.044,0.191 0.093,0.281c0.04,0.073 0.116,0.136 0.181,0.187c0.109,0.086 0.239,0.141 0.375,0.169c-0.002,0.004 -0.004,0.008 -0.005,0.012c-0.114,0.362 0.257,0.718 0.613,0.613c0.824,-0.242 1.365,-1.34 1.607,-2.107c0.262,-0.832 0.311,-1.82 0.038,-2.656c-0.021,-0.065 -0.12,-0.071 -0.138,0c-0.205,0.799 -0.431,1.535 -0.849,2.256c-0.113,0.194 -0.232,0.387 -0.359,0.574c-0.067,-0.014 -0.138,-0.014 -0.21,0.003c-0.241,0.058 -0.396,0.221 -0.615,0.322c-0.103,0.048 -0.212,0.077 -0.319,0.117c-0.079,0.029 -0.264,0.144 -0.325,0.116c-0.077,-0.034 -0.138,0.048 -0.087,0.113" style="fill:#e0dfe6;fill-rule:nonzero;"/><path d="M14.466,10.413c0.479,0.136 0.98,0.178 1.458,0.319c0.626,0.185 0.848,0.462 1.062,1.042c0.101,0.272 0.366,0.372 0.587,0.315c-0.004,0.014 -0.009,0.027 -0.012,0.041c-0.052,0.19 0.22,0.309 0.32,0.135c0.233,-0.408 0.213,-0.925 0.135,-1.374c-0.014,-0.084 -0.136,-0.057 -0.141,0.019c-0.005,0.082 -0.017,0.161 -0.031,0.239c-0.4,-1.139 -2.45,-1.015 -3.378,-0.874c-0.073,0.011 -0.063,0.121 0,0.138" style="fill:#e0dfe6;fill-rule:nonzero;"/><path d="M16.325,19.357c0.009,0.001 0.019,0.002 0.028,0.002c0.086,0 0.162,-0.063 0.176,-0.151c0.028,-0.183 0.042,-0.355 0.042,-0.511c0,-0.074 -0.002,-0.144 -0.007,-0.21c0,0.072 -0.043,0.14 -0.114,0.167c-0.077,0.03 -0.157,0.06 -0.238,0.09c-0.002,0.126 -0.014,0.262 -0.036,0.409c-0.015,0.098 0.052,0.189 0.149,0.204" style="fill:#525d7d;fill-rule:nonzero;"/><path d="M13.729,11.937l0.144,-0.05c0.053,-0.018 0.106,-0.037 0.159,-0.055c0.127,-0.557 0.29,-1.103 0.489,-1.631c-0.117,-0.024 -0.233,-0.055 -0.348,-0.094c-0.234,0.627 -0.42,1.278 -0.554,1.942c0.017,-0.051 0.056,-0.093 0.11,-0.112" style="fill:#525d7d;fill-rule:nonzero;"/><path d="M16.553,18.423c0.003,0.01 0.006,0.02 0.008,0.03c-0.069,-0.889 -0.523,-1.025 -0.927,-1.144c-0.529,-0.156 -1.128,-0.333 -1.131,-2.549c-0,-0.098 -0.078,-0.177 -0.175,-0.179l-0.274,-0.006c-0.114,-0.002 -0.228,-0.005 -0.343,-0.007c0.006,-0.777 0.086,-1.56 0.234,-2.328l-0.099,0.035c-0.02,0.006 -0.039,0.01 -0.058,0.01c-0.075,-0 -0.144,-0.047 -0.169,-0.121c-0.008,-0.022 -0.011,-0.045 -0.01,-0.067c-0.168,0.844 -0.255,1.706 -0.255,2.56l-0,0.086c0,0.097 0.078,0.176 0.174,0.178c0.173,0.004 0.346,0.008 0.519,0.011l0.1,0.003c0.034,2.141 0.648,2.499 1.386,2.716c0.348,0.103 0.596,0.178 0.662,0.717c0.043,-0.016 0.085,-0.032 0.127,-0.048c0.092,-0.035 0.195,0.011 0.231,0.103" style="fill:#525d7d;fill-rule:nonzero;"/><path d="M12.877,8.262c0.379,0.111 0.835,0.162 1.421,0.162c0.922,0 1.796,-0.173 2.568,-0.326c0.611,-0.121 1.139,-0.226 1.577,-0.226c1.639,0 2.645,2.039 2.645,3.501c0,2.542 -0.985,3.412 -1.854,4.18c-0.051,0.046 -0.103,0.091 -0.154,0.137c-0.101,-0.28 -0.145,-0.491 -0.145,-0.693c0,-0.532 0.267,-1.018 0.481,-1.409c0.16,-0.292 0.286,-0.522 0.286,-0.728c0,-0.253 -0.093,-0.677 -0.717,-0.677c-0.578,0 -0.922,0.482 -1.189,0.984c-0.063,-0.034 -0.127,-0.068 -0.194,-0.102c0.135,-0.705 0.217,-1.418 0.217,-1.702c-0,-0.532 -0.12,-0.905 -0.366,-1.142c-0.372,-0.359 -0.962,-0.337 -1.587,-0.314c-1.082,0.04 -2.299,0.086 -2.989,-1.645m3.003,2.002c0.57,-0.021 1.062,-0.04 1.326,0.214c0.172,0.166 0.255,0.456 0.255,0.885c0,0.249 -0.082,1 -0.236,1.765c-0.016,0.079 0.024,0.159 0.096,0.195c0.167,0.083 0.318,0.163 0.461,0.245c0.042,0.024 0.093,0.03 0.14,0.016c0.047,-0.014 0.086,-0.047 0.108,-0.091c0.288,-0.571 0.561,-0.952 0.955,-0.952c0.302,-0 0.36,0.112 0.36,0.319c-0,0.114 -0.118,0.329 -0.242,0.556c-0.234,0.427 -0.525,0.958 -0.525,1.581c0,0.335 0.1,0.655 0.219,0.954c-0.543,0.527 -0.977,1.138 -0.977,2.245c-0,0.294 0.034,0.596 0.103,0.896c0.018,0.083 0.092,0.139 0.174,0.139c0.013,0 0.026,-0.001 0.039,-0.004c0.097,-0.022 0.157,-0.118 0.135,-0.214c-0.062,-0.274 -0.094,-0.549 -0.094,-0.817c0,-0.086 0.004,-0.167 0.009,-0.246c-0.034,0.013 -0.068,0.027 -0.101,0.041c-0.091,0.038 -0.196,-0.006 -0.233,-0.097c-0.038,-0.092 0.006,-0.196 0.097,-0.233c0.099,-0.041 0.198,-0.081 0.296,-0.121c0.175,-0.789 0.669,-1.227 1.226,-1.719c0.925,-0.818 1.975,-1.745 1.975,-4.448c-0,-0.864 -0.299,-1.815 -0.799,-2.546c-0.578,-0.846 -1.361,-1.312 -2.204,-1.312c-0.473,-0 -1.017,0.108 -1.647,0.232c-0.755,0.15 -1.612,0.32 -2.498,0.32c-0.737,-0 -1.243,-0.082 -1.641,-0.267c-0.064,-0.03 -0.14,-0.019 -0.193,0.028c-0.054,0.047 -0.074,0.12 -0.053,0.188c0.406,1.287 1.062,1.85 1.762,2.091c0.115,0.039 0.231,0.07 0.348,0.094c0.469,0.096 0.942,0.079 1.359,0.063" style="fill:#525d7d;fill-rule:nonzero;"/><path d="M16.786,14.981c-0.077,-0.062 -0.19,-0.049 -0.251,0.028c-0.325,0.406 -0.647,0.64 -0.882,0.64c-0.086,-0 -0.179,-0.017 -0.277,-0.035c-0.084,-0.015 -0.171,-0.031 -0.259,-0.037c-0.098,-0.007 -0.184,0.068 -0.19,0.166c-0.007,0.099 0.068,0.184 0.166,0.19c0.068,0.005 0.142,0.018 0.219,0.032c0.109,0.02 0.222,0.041 0.341,0.041c0.448,-0 0.878,-0.421 1.161,-0.774c0.061,-0.077 0.049,-0.189 -0.028,-0.251" style="fill:#525d7d;fill-rule:nonzero;"/><path d="M13.787,12.285c0.02,-0 0.039,-0.004 0.059,-0.01l0.099,-0.035l0.045,-0.015c0.304,-0.106 0.592,-0.206 0.894,-0.281c0.095,-0.024 0.153,-0.121 0.129,-0.217c-0.023,-0.096 -0.12,-0.154 -0.216,-0.13c-0.261,0.065 -0.516,0.149 -0.765,0.235c-0.053,0.018 -0.106,0.037 -0.159,0.055l-0.144,0.05c-0.054,0.019 -0.093,0.061 -0.11,0.112c-0.006,0.015 -0.009,0.032 -0.01,0.048c-0.001,0.022 0.002,0.045 0.009,0.067c0.026,0.074 0.095,0.121 0.169,0.121" style="fill:#525d7d;fill-rule:nonzero;"/><path d="M16.705,11.577c-0.364,-0.064 -0.809,-0.128 -1.272,-0.109c-0.099,0.004 -0.175,0.088 -0.171,0.186c0.004,0.099 0.087,0.175 0.186,0.171c0.431,-0.017 0.85,0.043 1.196,0.104c0.01,0.001 0.02,0.002 0.031,0.002c0.085,0 0.16,-0.061 0.175,-0.148c0.017,-0.097 -0.048,-0.19 -0.145,-0.206" style="fill:#525d7d;fill-rule:nonzero;"/><path d="M14.49,13.055l-0.076,-0.075c0.001,-0.001 0.002,-0.002 0.003,-0.003c0.002,0 0.004,-0 0.007,-0c0.051,-0 0.065,0.047 0.069,0.07c-0.001,0.003 -0.002,0.006 -0.003,0.008m-0.011,0.022c-0.013,0.007 -0.034,0.013 -0.061,0.013l-0.001,-0c-0.006,-0.004 -0.02,-0.023 -0.02,-0.048c-0,-0.029 0.01,-0.05 0.017,-0.061l0.075,0.075c-0.003,0.009 -0.006,0.016 -0.01,0.021m-0.054,-0.344c-0.066,-0 -0.126,0.026 -0.179,0.079c0,0 -0.001,0 -0.001,0.001c-0.028,0.023 -0.104,0.084 -0.105,0.2c-0.002,0.017 -0.004,0.033 -0.004,0.049c0,0.163 0.149,0.272 0.288,0.272c0.135,0 0.33,-0.114 0.33,-0.292c-0,-0.185 -0.17,-0.309 -0.329,-0.309" style="fill:#525d7d;fill-rule:nonzero;"/><path d="M15.775,12.911c-0.006,-0.003 -0.02,-0.022 -0.02,-0.048c-0,-0.029 0.01,-0.05 0.017,-0.061l0.075,0.076c-0.003,0.008 -0.006,0.015 -0.01,0.021c-0.013,0.006 -0.034,0.012 -0.061,0.012l-0.001,0Zm-0,-0.112c0.002,-0 0.004,-0.001 0.007,-0.001c0.051,0 0.065,0.048 0.069,0.07c-0.001,0.003 -0.002,0.006 -0.003,0.009l-0.076,-0.075c0.001,-0.001 0.002,-0.002 0.003,-0.003m0.337,0.064c-0,-0.185 -0.17,-0.309 -0.329,-0.309c-0.065,0 -0.126,0.027 -0.179,0.079c0,0.001 -0.001,0.001 -0.001,0.001c-0.028,0.023 -0.104,0.085 -0.105,0.202c-0.002,0.016 -0.003,0.032 -0.003,0.048c-0,0.162 0.148,0.272 0.287,0.272c0.135,-0 0.33,-0.114 0.33,-0.293" style="fill:#525d7d;fill-rule:nonzero;"/><path d="M11.842,20.61c0,-1.201 1.165,-1.295 1.521,-1.295c0.065,0 0.13,0.001 0.195,0.002c0.067,0.001 0.135,0.002 0.203,0.002c0.289,0 0.601,-0.042 0.919,-0.11c-0,-0.006 -0.001,-0.013 -0.001,-0.02c-0,-0.073 0.004,-0.15 0.014,-0.227c0.011,-0.098 0.101,-0.168 0.198,-0.156c0.098,0.011 0.168,0.1 0.156,0.198c-0.005,0.041 -0.005,0.08 -0.007,0.119c0.403,-0.106 0.805,-0.243 1.172,-0.379c0.081,-0.03 0.161,-0.061 0.238,-0.09c0.071,-0.027 0.115,-0.095 0.115,-0.167c-0,-0.011 -0.001,-0.022 -0.004,-0.034c-0.002,-0.01 -0.004,-0.02 -0.008,-0.03c-0.035,-0.092 -0.139,-0.138 -0.231,-0.103c-0.041,0.016 -0.084,0.032 -0.126,0.048c-0.759,0.286 -1.691,0.594 -2.435,0.594c-0.067,-0 -0.133,-0.001 -0.198,-0.002c-0.067,-0.001 -0.134,-0.002 -0.2,-0.002c-1.384,-0 -1.878,0.853 -1.878,1.652c0,0.221 0.043,0.455 0.128,0.728c0.084,-0.143 0.171,-0.285 0.259,-0.426c-0.019,-0.106 -0.03,-0.206 -0.03,-0.302" style="fill:#525d7d;fill-rule:nonzero;"/><path d="M26.259,20.003c-1.985,-1.673 -3.699,-3.119 -5.701,-3.119c-0.595,0 -1.425,0.298 -2.314,0.656c-0.098,0.04 -0.196,0.08 -0.295,0.121c-0.091,0.037 -0.135,0.141 -0.098,0.233c0.038,0.091 0.142,0.135 0.233,0.097c0.034,-0.014 0.068,-0.028 0.102,-0.041c0.893,-0.365 1.798,-0.708 2.372,-0.708c1.031,-0 2.001,0.428 2.987,1.084c0.246,0.027 0.492,0.06 0.736,0.103c0.097,0.017 0.162,0.11 0.144,0.207c-0.017,0.097 -0.109,0.162 -0.207,0.145c-0.013,-0.002 -0.026,-0.004 -0.038,-0.006c0.598,0.448 1.209,0.962 1.848,1.501c2.461,2.075 5.25,4.427 9.248,4.427c1.612,-0 2.793,-0.262 4.013,-0.849l0,-0.401c-1.233,0.619 -2.403,0.893 -4.013,0.893c-3.867,-0 -6.603,-2.307 -9.017,-4.343" style="fill:#525d7d;fill-rule:nonzero;"/><path d="M9.418,29.123c0.07,-0.011 0.142,-0.02 0.213,-0.031c0.08,-2.932 1.15,-6.023 3.038,-8.746c0.056,-0.081 0.036,-0.192 -0.045,-0.248c-0.082,-0.057 -0.193,-0.037 -0.249,0.045c-0.176,0.253 -0.342,0.51 -0.503,0.769c-0.088,0.141 -0.175,0.283 -0.259,0.426c-0.389,0.661 -0.731,1.339 -1.027,2.027c0.048,0.011 0.093,0.023 0.142,0.034c0.096,0.023 0.155,0.119 0.132,0.215c-0.022,0.096 -0.118,0.156 -0.214,0.133c-0.068,-0.016 -0.133,-0.033 -0.199,-0.049c-0.294,0.723 -0.537,1.454 -0.722,2.188c0.067,0.032 0.132,0.062 0.191,0.088c0.09,0.041 0.131,0.146 0.09,0.236c-0.029,0.067 -0.094,0.106 -0.163,0.106c-0.024,0 -0.049,-0.005 -0.072,-0.016c-0.041,-0.018 -0.085,-0.038 -0.129,-0.058c-0.233,1.016 -0.359,2.032 -0.372,3.03c0.011,-0.074 0.069,-0.136 0.148,-0.149" style="fill:#525d7d;fill-rule:nonzero;"/><path d="M9.445,29.478c-0.086,0 -0.162,-0.063 -0.176,-0.151c-0,-0.001 -0,-0.003 -0,-0.005c-0.001,0.042 -0.003,0.084 -0.003,0.126c-0,0.62 0.043,1.24 0.129,1.843c0.013,0.089 0.09,0.153 0.177,0.153c0.009,-0 0.017,-0.001 0.026,-0.002c0.097,-0.014 0.165,-0.104 0.151,-0.202c-0.083,-0.584 -0.125,-1.185 -0.126,-1.786c-0.05,0.008 -0.1,0.014 -0.15,0.022c-0.009,0.002 -0.019,0.002 -0.028,0.002" style="fill:#525d7d;fill-rule:nonzero;"/><path d="M16.257,20.506c1.243,-0 1.848,-0.415 2.488,-0.854c0.711,-0.488 1.445,-0.991 3.209,-1.041c-0.012,-0.045 -0.024,-0.09 -0.037,-0.136c-0.025,-0.095 0.032,-0.193 0.127,-0.218c0.012,-0.003 0.024,-0.005 0.036,-0.006c-1.968,0.03 -2.801,0.601 -3.538,1.106c-0.618,0.425 -1.153,0.791 -2.285,0.791c-0.286,0 -1.222,-0.069 -1.222,-0.959c0,-0.021 0.003,-0.044 0.004,-0.065c0.002,-0.04 0.003,-0.079 0.007,-0.12c0.012,-0.098 -0.058,-0.187 -0.156,-0.198c-0.097,-0.012 -0.187,0.058 -0.198,0.156c-0.01,0.077 -0.014,0.154 -0.014,0.227c-0,0.007 0.001,0.014 0.001,0.021c0.01,0.799 0.612,1.296 1.578,1.296" style="fill:#525d7d;fill-rule:nonzero;"/><path d="M22.082,18.251c0.083,-0.004 0.159,0.05 0.181,0.133c0.021,0.076 0.041,0.151 0.061,0.225c0.62,0.004 1.243,0.06 1.857,0.166c0.012,0.002 0.025,0.004 0.038,0.006c0.098,0.017 0.19,-0.048 0.207,-0.145c0.018,-0.097 -0.047,-0.19 -0.144,-0.207c-0.244,-0.043 -0.49,-0.076 -0.736,-0.103c-0.433,-0.049 -0.869,-0.076 -1.302,-0.076c-0.055,-0 -0.109,0 -0.162,0.001" style="fill:#525d7d;fill-rule:nonzero;"/><path d="M4.087,24.269c-0.023,0.01 -0.047,0.015 -0.071,0.015c-0.069,-0 -0.135,-0.04 -0.164,-0.108c-0.014,-0.034 -0.027,-0.069 -0.041,-0.103c-0.037,0.028 -0.083,0.044 -0.13,0.042c-0.486,-0.018 -0.986,-0.066 -1.486,-0.144c-0.168,-0.026 -0.304,-0.155 -0.338,-0.322c-0.024,-0.119 -0.046,-0.238 -0.066,-0.357c-0.075,-0.008 -0.148,-0.017 -0.219,-0.026c-0.098,-0.014 -0.166,-0.104 -0.153,-0.201c0.013,-0.098 0.103,-0.167 0.201,-0.153c0.038,0.005 0.076,0.009 0.114,0.014c-0.033,-0.231 -0.059,-0.462 -0.077,-0.692c-0.071,-0.009 -0.141,-0.018 -0.21,-0.027c-0.098,-0.014 -0.166,-0.104 -0.152,-0.202c0.013,-0.098 0.103,-0.166 0.201,-0.152c0.046,0.006 0.092,0.012 0.138,0.018c-0.008,-0.172 -0.013,-0.343 -0.014,-0.513c0,-0.077 0.032,-0.152 0.088,-0.205c0.057,-0.054 0.131,-0.082 0.21,-0.077c0.244,0.014 0.493,0.037 0.734,0.059c0.153,0.014 0.309,0.028 0.466,0.04c-0.007,-0.072 -0.015,-0.143 -0.021,-0.216c-0.005,-0.054 0.016,-0.104 0.051,-0.14c-0.155,-0.012 -0.311,-0.026 -0.463,-0.04c-0.244,-0.022 -0.496,-0.045 -0.746,-0.06c-0.177,-0.01 -0.349,0.054 -0.476,0.174c-0.128,0.121 -0.2,0.291 -0.2,0.466c0.002,0.781 0.084,1.576 0.244,2.361c0.064,0.313 0.318,0.556 0.634,0.605c0.513,0.079 1.027,0.129 1.527,0.147c0.164,0.006 0.324,-0.061 0.434,-0.183c0.024,-0.026 0.044,-0.054 0.062,-0.084c-0.019,0.028 -0.044,0.05 -0.077,0.064" style="fill:#525d7d;fill-rule:nonzero;"/><path d="M3.454,20.93c0.007,0.09 0.017,0.179 0.026,0.268c0.057,-0 0.111,-0.029 0.144,-0.076c0.035,-0.052 0.041,-0.117 0.016,-0.174c-0.166,-0.375 -0.337,-0.822 -0.337,-1.301c0,-0.28 0.079,-0.515 0.234,-0.701c0.051,-0.061 0.131,-0.091 0.211,-0.077c0.078,0.014 0.144,0.069 0.172,0.143c0.655,1.768 1.905,3.555 6.527,4.686c0.066,0.016 0.131,0.033 0.199,0.049c0.096,0.023 0.192,-0.037 0.215,-0.133c0.022,-0.096 -0.037,-0.192 -0.133,-0.215c-0.048,-0.011 -0.094,-0.023 -0.142,-0.034c-3.866,-0.937 -5.301,-2.325 -6.023,-3.763c-0.08,0.013 -0.158,0.026 -0.233,0.039c-0.01,0.002 -0.021,0.003 -0.031,0.003c-0.085,0 -0.16,-0.061 -0.176,-0.148c-0.017,-0.097 0.049,-0.19 0.146,-0.207c0.044,-0.007 0.091,-0.015 0.138,-0.023c-0.055,-0.126 -0.105,-0.252 -0.152,-0.378c-0.072,-0.194 -0.243,-0.336 -0.447,-0.371c-0.204,-0.035 -0.413,0.042 -0.545,0.2c-0.164,0.196 -0.264,0.431 -0.301,0.698c0.041,0.004 0.081,0.009 0.122,0.011c0.098,0.006 0.174,0.09 0.169,0.188c-0.006,0.096 -0.085,0.169 -0.179,0.169c-0.003,0 -0.006,0 -0.01,0c-0.038,-0.002 -0.076,-0.007 -0.114,-0.011c0.019,0.369 0.118,0.711 0.237,1.018c0.022,-0.013 0.047,-0.022 0.074,-0.024c0.098,-0.007 0.185,0.065 0.193,0.164" style="fill:#525d7d;fill-rule:nonzero;"/><path d="M9.843,26.316c0.068,-0 0.133,-0.039 0.163,-0.106c0.04,-0.09 -0,-0.196 -0.09,-0.236c-0.06,-0.027 -0.124,-0.056 -0.192,-0.088c-0.891,-0.418 -2.45,-1.288 -4.054,-2.835c-0.205,-0.197 -0.52,-0.219 -0.75,-0.051c-0.322,0.235 -0.625,0.416 -0.926,0.556c0.059,0.163 0.12,0.323 0.186,0.478c0.024,0.055 0.018,0.116 -0.011,0.163c0.064,-0.107 0.09,-0.234 0.072,-0.36l-0.001,-0.002c0.291,-0.143 0.584,-0.322 0.891,-0.547c0.089,-0.065 0.212,-0.056 0.291,0.02c1.682,1.622 3.319,2.518 4.219,2.934c0.044,0.02 0.089,0.04 0.129,0.058c0.024,0.011 0.049,0.016 0.073,0.016" style="fill:#525d7d;fill-rule:nonzero;"/><path d="M4.181,24.034c-0.067,-0.154 -0.128,-0.315 -0.186,-0.478c-0.254,-0.712 -0.427,-1.502 -0.515,-2.358c-0.009,-0.089 -0.019,-0.178 -0.026,-0.268c-0.008,-0.099 -0.095,-0.172 -0.193,-0.164c-0.027,0.002 -0.052,0.011 -0.074,0.024c-0.014,0.008 -0.027,0.018 -0.038,0.029c-0.035,0.036 -0.056,0.086 -0.051,0.14c0.006,0.073 0.014,0.144 0.021,0.216c0.026,0.266 0.06,0.526 0.102,0.78c0.069,-0 0.139,-0.001 0.208,-0.001c0.101,-0 0.18,0.078 0.18,0.177c0.001,0.099 -0.078,0.179 -0.177,0.18c-0.049,0.001 -0.098,0.001 -0.147,0.001c0.045,0.229 0.098,0.452 0.157,0.67c0.076,-0.001 0.152,-0.002 0.229,-0.004c0.093,-0.002 0.18,0.076 0.182,0.175c0.002,0.098 -0.076,0.18 -0.175,0.182c-0.044,0.001 -0.088,0.002 -0.133,0.003c0.08,0.253 0.168,0.499 0.267,0.735c0.014,0.034 0.027,0.069 0.041,0.103c0.029,0.067 0.095,0.108 0.164,0.108c0.024,-0 0.048,-0.005 0.071,-0.015c0.032,-0.014 0.058,-0.036 0.077,-0.064c0.001,-0.002 0.003,-0.005 0.005,-0.008c0.029,-0.047 0.035,-0.108 0.011,-0.163" style="fill:#525d7d;fill-rule:nonzero;"/><path d="M1.734,22.926c-0.038,-0.005 -0.076,-0.009 -0.114,-0.014c-0.098,-0.014 -0.187,0.055 -0.201,0.153c-0.013,0.097 0.056,0.187 0.153,0.201c0.071,0.009 0.145,0.018 0.219,0.026c0.341,0.036 0.717,0.053 1.167,0.053c0.195,-0 0.391,-0.003 0.587,-0.007c0.044,-0.001 0.088,-0.002 0.133,-0.003c0.098,-0.002 0.177,-0.084 0.174,-0.182c-0.002,-0.099 -0.089,-0.177 -0.182,-0.175c-0.076,0.002 -0.153,0.003 -0.229,0.004c-0.161,0.003 -0.322,0.006 -0.483,0.006c-0.479,-0 -0.872,-0.02 -1.224,-0.062" style="fill:#525d7d;fill-rule:nonzero;"/><path d="M1.634,21.871c-0.046,-0.006 -0.092,-0.012 -0.138,-0.018c-0.098,-0.014 -0.188,0.054 -0.201,0.152c-0.014,0.098 0.054,0.188 0.152,0.202c0.069,0.009 0.139,0.018 0.21,0.027c0.457,0.053 0.957,0.078 1.553,0.078c0.024,0 0.049,-0 0.074,-0c0.049,-0 0.098,-0 0.147,-0.001c0.099,-0.001 0.178,-0.081 0.177,-0.18c-0,-0.099 -0.079,-0.177 -0.18,-0.177c-0.069,0 -0.139,0.001 -0.209,0.001l-0.009,-0c-0.61,-0 -1.115,-0.027 -1.576,-0.084" style="fill:#525d7d;fill-rule:nonzero;"/><path d="M23.31,22.278c-0.052,-0.105 -0.104,-0.214 -0.157,-0.325l-0.284,0.089c-0.462,0.146 -0.935,0.296 -1.407,0.451c0.093,-0.028 0.19,0.022 0.221,0.114l0.057,0.171c0.415,-0.135 0.83,-0.266 1.237,-0.395l0.333,-0.105Z" style="fill:#525d7d;fill-rule:nonzero;"/><path d="M20.054,21.205c-0.029,-0.066 -0.092,-0.105 -0.165,-0.107c-0.072,0.001 -0.136,0.044 -0.163,0.11c-0.626,1.496 -1.118,3.105 -1.464,4.781c0.141,-0.107 0.285,-0.214 0.434,-0.319c0.304,-1.371 0.706,-2.692 1.202,-3.938c0.223,0.497 0.421,0.916 0.612,1.296c0.04,0.081 0.134,0.118 0.218,0.089c0.223,-0.078 0.447,-0.153 0.672,-0.228l-0.056,-0.169c-0.031,-0.092 0.018,-0.191 0.108,-0.224c-0.231,0.076 -0.463,0.153 -0.693,0.232c-0.214,-0.434 -0.44,-0.923 -0.705,-1.523" style="fill:#525d7d;fill-rule:nonzero;"/><path d="M17.647,31.421c-0.009,0.312 -0.013,0.631 -0.013,0.948c0,0.099 0.08,0.179 0.179,0.179c0.098,-0 0.178,-0.08 0.178,-0.179c0,-0.306 0.005,-0.613 0.013,-0.914c-0.033,0.004 -0.067,0.006 -0.1,0.006c-0.087,0 -0.173,-0.014 -0.257,-0.04" style="fill:#525d7d;fill-rule:nonzero;"/><path d="M20.119,26.739c0.013,-0.014 0.029,-0.022 0.045,-0.031c-0.573,0.276 -1.132,0.576 -1.673,0.904c-0.066,0.041 -0.099,0.12 -0.081,0.195c0.105,0.432 0.318,0.837 0.615,1.17c0.049,0.056 0.128,0.075 0.197,0.049c0.069,-0.027 0.115,-0.093 0.115,-0.167l-0,-0.517c0.189,0 0.376,0.004 0.565,0.007l0.134,0.003c0.081,0.002 0.146,0.068 0.146,0.149c0,0.321 0.008,0.646 0.016,0.961l0.005,0.205c0.004,0.131 -0.065,0.253 -0.179,0.318l-0.21,0.12c-0.109,0.063 -0.22,0.126 -0.331,0.19c0.023,0.022 0.045,0.047 0.069,0.069c0.074,0.066 0.08,0.179 0.014,0.252c-0.036,0.039 -0.084,0.059 -0.133,0.059c-0.043,0 -0.085,-0.015 -0.12,-0.045c-0.053,-0.048 -0.103,-0.1 -0.152,-0.152c-0.169,0.095 -0.337,0.19 -0.507,0.285c0.021,0.019 0.041,0.039 0.063,0.058c0.074,0.065 0.081,0.178 0.016,0.252c-0.036,0.04 -0.085,0.06 -0.134,0.06c-0.042,0 -0.085,-0.014 -0.118,-0.044c-0.054,-0.048 -0.105,-0.096 -0.155,-0.146c-0.061,0.034 -0.122,0.068 -0.184,0.101c-0.119,0.065 -0.261,0.078 -0.39,0.036c-0.129,-0.042 -0.237,-0.137 -0.295,-0.259c-0.227,-0.475 -0.307,-1.269 -0.307,-3.034c-0,-0.236 0.099,-0.464 0.272,-0.626c1.17,-1.091 2.678,-2.08 4.609,-3.023c0.08,-0.039 0.119,-0.132 0.091,-0.217l-0.381,-1.143l-0.057,-0.171c-0.031,-0.092 -0.128,-0.142 -0.221,-0.114c-0.001,0 -0.003,0 -0.005,0.001c-0.002,0 -0.003,0.001 -0.005,0.002c-0.09,0.033 -0.139,0.132 -0.108,0.224l0.056,0.169l0.333,0.997c-1.158,0.572 -2.163,1.163 -3.037,1.784c-0.149,0.105 -0.293,0.212 -0.434,0.319c-0.389,0.296 -0.751,0.599 -1.085,0.911c-0.245,0.229 -0.386,0.552 -0.386,0.887c0,0.352 0.003,0.665 0.01,0.947c0.064,0.002 0.128,0.003 0.192,0.007c0.099,0.004 0.175,0.088 0.17,0.187c-0.005,0.098 -0.088,0.175 -0.187,0.169c-0.054,-0.002 -0.109,-0.003 -0.163,-0.006c0.011,0.266 0.026,0.5 0.046,0.706c0.06,-0.006 0.121,-0.009 0.18,-0.015c0.096,-0.009 0.186,0.063 0.195,0.161c0.009,0.099 -0.063,0.186 -0.161,0.195c-0.057,0.005 -0.114,0.009 -0.17,0.014c0.053,0.35 0.128,0.609 0.231,0.823c0.1,0.21 0.285,0.372 0.506,0.444c0.002,0.001 0.005,0.001 0.007,0.002c0.083,0.026 0.17,0.04 0.257,0.04c0.033,-0 0.066,-0.002 0.099,-0.006c0.107,-0.013 0.212,-0.045 0.308,-0.097c0.564,-0.305 1.131,-0.629 1.68,-0.943l0.21,-0.12c0.227,-0.13 0.365,-0.374 0.359,-0.636l-0.005,-0.206c-0.008,-0.313 -0.016,-0.635 -0.016,-0.952c-0,-0.274 -0.223,-0.501 -0.497,-0.506l-0.134,-0.003c-0.252,-0.004 -0.504,-0.009 -0.753,-0.006c-0.098,0.002 -0.176,0.081 -0.176,0.179l-0,0.131c-0.078,-0.142 -0.141,-0.292 -0.188,-0.448c0.462,-0.276 0.938,-0.532 1.425,-0.77c-0.031,-0.029 -0.061,-0.058 -0.092,-0.086c-0.071,-0.069 -0.074,-0.182 -0.006,-0.253" style="fill:#525d7d;fill-rule:nonzero;"/><path d="M22.082,18.251l-0.002,-0c-0.011,0.001 -0.023,0.002 -0.035,0.006c-0.095,0.025 -0.152,0.123 -0.127,0.218c0.012,0.046 0.025,0.091 0.037,0.136c0.385,1.424 0.798,2.487 1.199,3.342c0.052,0.111 0.105,0.22 0.157,0.325c0.288,0.582 0.568,1.065 0.823,1.506c0.132,0.229 0.257,0.445 0.375,0.659c0.085,0.156 0.093,0.345 0.022,0.507c-0.071,0.162 -0.216,0.284 -0.388,0.327c-1.38,0.34 -2.703,0.818 -3.954,1.419c0.061,-0.022 0.132,-0.011 0.183,0.037c0.063,0.06 0.127,0.12 0.19,0.18c1.165,-0.541 2.39,-0.975 3.666,-1.289c0.279,-0.069 0.514,-0.267 0.63,-0.53c0.116,-0.263 0.102,-0.571 -0.036,-0.822c-0.119,-0.219 -0.245,-0.436 -0.379,-0.667c-0.635,-1.097 -1.421,-2.455 -2.119,-4.996c-0.02,-0.074 -0.04,-0.149 -0.061,-0.225c-0.022,-0.083 -0.098,-0.137 -0.181,-0.133" style="fill:#525d7d;fill-rule:nonzero;"/><path d="M18.045,29.952c-0.042,-0.09 -0.147,-0.129 -0.237,-0.088c-0.09,0.042 -0.129,0.148 -0.088,0.237c0.138,0.299 0.342,0.582 0.605,0.842c0.05,0.05 0.101,0.098 0.155,0.146c0.034,0.03 0.076,0.044 0.118,0.044c0.049,0 0.098,-0.02 0.134,-0.06c0.065,-0.074 0.058,-0.187 -0.016,-0.252c-0.022,-0.019 -0.042,-0.039 -0.063,-0.058c-0.27,-0.251 -0.475,-0.524 -0.608,-0.811" style="fill:#525d7d;fill-rule:nonzero;"/><path d="M18.798,29.421c-0.058,-0.08 -0.171,-0.097 -0.25,-0.039c-0.08,0.058 -0.097,0.17 -0.039,0.249c0.044,0.061 0.088,0.123 0.132,0.186c0.16,0.226 0.326,0.456 0.519,0.661c0.05,0.052 0.099,0.104 0.153,0.152c0.034,0.03 0.077,0.045 0.119,0.045c0.049,0 0.098,-0.02 0.133,-0.059c0.066,-0.073 0.06,-0.186 -0.013,-0.252c-0.024,-0.022 -0.046,-0.047 -0.07,-0.069c-0.202,-0.201 -0.379,-0.445 -0.549,-0.685c-0.046,-0.064 -0.09,-0.127 -0.135,-0.189" style="fill:#525d7d;fill-rule:nonzero;"/><path d="M17.164,28.928c0.004,-0.099 -0.072,-0.183 -0.17,-0.188c-0.064,-0.003 -0.128,-0.004 -0.192,-0.006c-0.579,-0.026 -1.161,-0.04 -1.732,-0.04c-1.854,-0 -3.683,0.135 -5.439,0.398c-0.071,0.011 -0.143,0.02 -0.213,0.031c-0.079,0.012 -0.137,0.075 -0.149,0.149c-0.002,0.016 -0.003,0.033 -0.001,0.05c0.001,0.002 0,0.004 0.001,0.005c0.013,0.088 0.09,0.151 0.176,0.151c0.009,0 0.018,-0 0.028,-0.002c0.05,-0.008 0.1,-0.014 0.15,-0.022c1.758,-0.267 3.589,-0.403 5.447,-0.403c0.575,-0 1.161,0.015 1.743,0.04c0.055,0.003 0.109,0.004 0.164,0.006c0.099,0.006 0.182,-0.071 0.187,-0.169" style="fill:#525d7d;fill-rule:nonzero;"/><path d="M17.234,29.943c-0.009,-0.098 -0.099,-0.17 -0.195,-0.161c-0.059,0.006 -0.12,0.009 -0.18,0.015c-0.941,0.082 -1.899,0.128 -2.827,0.171c-1.341,0.062 -2.728,0.127 -4.09,0.305c-0.098,0.013 -0.167,0.103 -0.154,0.2c0.011,0.09 0.088,0.156 0.177,0.156c0.007,-0 0.015,-0.001 0.023,-0.002c1.347,-0.176 2.727,-0.24 4.06,-0.302c0.936,-0.044 1.902,-0.09 2.855,-0.173c0.056,-0.005 0.113,-0.009 0.17,-0.014c0.098,-0.009 0.17,-0.096 0.161,-0.195" style="fill:#525d7d;fill-rule:nonzero;"/><path d="M34.705,28.52c-1.015,-0.009 -2.064,-0.018 -3.097,-0.018c-2.565,0 -4.523,0.057 -6.349,0.183c-0.097,0.007 -0.171,0.089 -0.166,0.186c0.016,0.343 0.034,0.686 0.054,1.028c0.077,0.021 0.154,0.043 0.232,0.061c0.096,0.021 0.157,0.117 0.135,0.213c-0.019,0.083 -0.093,0.139 -0.174,0.139c-0.013,0 -0.027,-0.001 -0.04,-0.004c-0.044,-0.01 -0.087,-0.023 -0.13,-0.034c0.044,0.727 0.094,1.45 0.144,2.157c0.007,0.093 0.083,0.165 0.176,0.166c4.617,0.053 9.251,0.086 13.799,0.114l0,-0.357c-4.493,-0.028 -9.069,-0.061 -13.63,-0.112c-0.074,-1.051 -0.149,-2.133 -0.201,-3.212c1.768,-0.118 3.675,-0.17 6.15,-0.17c1.031,-0 2.08,0.008 3.094,0.017c1.015,0.008 2.064,0.017 3.097,0.017c0.57,0 1.06,-0.002 1.49,-0.006l0,-0.358c-0.429,0.005 -0.92,0.007 -1.49,0.007c-1.031,-0 -2.08,-0.009 -3.094,-0.017" style="fill:#525d7d;fill-rule:nonzero;"/><path d="M27.32,30.658c-0.303,-0 -0.514,-0.185 -0.514,-0.451c-0,-0.218 0.142,-0.46 0.345,-0.46l0.014,-0c0.089,0.004 0.151,0.02 0.213,0.055c0.299,0.168 0.364,0.384 0.364,0.453c0,0.262 -0.217,0.403 -0.422,0.403m0.233,-1.167c-0.143,-0.081 -0.273,-0.096 -0.371,-0.101c-0.446,-0.022 -0.734,0.415 -0.734,0.817c0,0.184 0.061,0.35 0.165,0.483c0.027,-0.04 0.055,-0.081 0.084,-0.121c0.058,-0.079 0.169,-0.097 0.249,-0.039c0.08,0.058 0.098,0.17 0.04,0.249c-0.033,0.045 -0.064,0.091 -0.096,0.138c0.126,0.063 0.271,0.098 0.43,0.098c0.383,0 0.779,-0.284 0.779,-0.76c0,-0.211 -0.143,-0.538 -0.546,-0.764" style="fill:#525d7d;fill-rule:nonzero;"/><path d="M26.946,30.53c-0.08,-0.058 -0.191,-0.04 -0.25,0.04c-0.028,0.039 -0.056,0.08 -0.083,0.12c-0.045,0.066 -0.089,0.132 -0.132,0.197c-0.118,0.181 -0.23,0.353 -0.365,0.504c-0.065,0.073 -0.059,0.186 0.015,0.252c0.034,0.03 0.077,0.045 0.119,0.045c0.049,0 0.098,-0.02 0.133,-0.06c0.152,-0.171 0.277,-0.361 0.397,-0.546c0.036,-0.054 0.073,-0.11 0.11,-0.165c0.032,-0.047 0.063,-0.093 0.096,-0.138c0.057,-0.079 0.04,-0.191 -0.04,-0.249" style="fill:#525d7d;fill-rule:nonzero;"/><path d="M28.934,30.319c0.088,-0.052 0.172,-0.089 0.253,-0.119c-0.015,-0.282 -0.029,-0.565 -0.047,-0.847c-0.006,-0.098 -0.087,-0.172 -0.189,-0.167c-0.099,0.006 -0.173,0.091 -0.167,0.19c0.02,0.317 0.036,0.634 0.052,0.951c0.003,0.053 0.006,0.107 0.009,0.161c-0.005,-0.067 0.027,-0.134 0.089,-0.169" style="fill:#525d7d;fill-rule:nonzero;"/><path d="M28.868,30.562c-0.012,-0.02 -0.019,-0.043 -0.022,-0.066c0.013,0.262 0.027,0.524 0.043,0.785c0.006,0.095 0.085,0.168 0.178,0.168c0.004,-0 0.008,-0 0.012,-0c0.098,-0.007 0.173,-0.091 0.167,-0.19c-0.014,-0.227 -0.026,-0.454 -0.038,-0.681c-0.031,0.016 -0.062,0.031 -0.096,0.05c-0.086,0.05 -0.195,0.02 -0.244,-0.066" style="fill:#525d7d;fill-rule:nonzero;"/><path d="M29.953,30.774c0.001,-0.237 0.001,-0.423 -0.123,-0.548c-0.067,-0.067 -0.158,-0.101 -0.27,-0.101c-0.121,0 -0.244,0.026 -0.373,0.075c-0.081,0.03 -0.165,0.068 -0.253,0.119c-0.062,0.035 -0.094,0.102 -0.089,0.169c0,0.003 0,0.006 0.001,0.008c0.003,0.023 0.01,0.046 0.022,0.066c0.049,0.086 0.158,0.116 0.244,0.066c0.033,-0.019 0.065,-0.034 0.096,-0.05c0.131,-0.064 0.245,-0.096 0.352,-0.096c0.008,0 0.014,0.001 0.018,0.001c0.018,0.046 0.018,0.186 0.018,0.29c-0.001,0.163 -0.001,0.365 0.037,0.593c0.014,0.087 0.09,0.149 0.176,0.149c0.01,-0 0.019,-0.001 0.029,-0.002c0.098,-0.017 0.163,-0.109 0.147,-0.206c-0.033,-0.198 -0.032,-0.376 -0.032,-0.533" style="fill:#525d7d;fill-rule:nonzero;"/><path d="M30.189,30.086c0.006,0.098 0.011,0.197 0.017,0.294c0.016,0.297 0.033,0.605 0.06,0.906c0.008,0.093 0.086,0.163 0.177,0.163c0.006,-0 0.011,-0.001 0.016,-0.001c0.099,-0.009 0.171,-0.096 0.162,-0.194c-0.026,-0.294 -0.042,-0.599 -0.059,-0.894c-0.004,-0.079 -0.009,-0.161 -0.014,-0.242c-0.113,-0.005 -0.223,-0.016 -0.33,-0.029c-0.01,-0.001 -0.019,-0.002 -0.029,-0.003" style="fill:#525d7d;fill-rule:nonzero;"/><path d="M30.526,29.76c-0.007,-0.102 -0.014,-0.204 -0.023,-0.305c-0.009,-0.099 -0.097,-0.171 -0.194,-0.162c-0.098,0.008 -0.17,0.095 -0.162,0.193c0.007,0.079 0.012,0.159 0.018,0.238c0.032,0.004 0.064,0.007 0.095,0.01c0.091,0.011 0.18,0.021 0.266,0.026" style="fill:#525d7d;fill-rule:nonzero;"/><path d="M30.702,29.894c0,-0.055 0.025,-0.103 0.064,-0.136c-0.076,0.007 -0.156,0.007 -0.24,0.002c-0.086,-0.005 -0.176,-0.015 -0.266,-0.026c-0.031,-0.003 -0.064,-0.006 -0.095,-0.01c-0.104,-0.012 -0.209,-0.022 -0.316,-0.022c-0.099,0 -0.179,0.08 -0.179,0.179c-0,0.098 0.08,0.178 0.179,0.178c0.11,0 0.222,0.013 0.34,0.027c0.01,0.001 0.019,0.002 0.029,0.003c0.107,0.013 0.218,0.024 0.331,0.029c0.03,0.001 0.06,0.004 0.092,0.004c0.068,0 0.132,-0.004 0.195,-0.011c0.033,-0.004 0.062,-0.017 0.087,-0.036c-0.014,-0.001 -0.028,-0.002 -0.042,-0.002c-0.099,-0 -0.179,-0.08 -0.179,-0.179" style="fill:#525d7d;fill-rule:nonzero;"/><path d="M31.558,29.772c-0.007,-0.101 -0.013,-0.203 -0.022,-0.304c-0.009,-0.098 -0.098,-0.171 -0.194,-0.162c-0.098,0.008 -0.171,0.095 -0.162,0.193c0.007,0.079 0.012,0.159 0.018,0.238c0.031,0.004 0.064,0.007 0.095,0.011c0.091,0.01 0.179,0.019 0.265,0.024" style="fill:#525d7d;fill-rule:nonzero;"/><path d="M31.221,30.099c0.006,0.099 0.012,0.197 0.017,0.294c0.017,0.298 0.033,0.605 0.06,0.906c0.008,0.093 0.086,0.163 0.178,0.163c0.005,-0 0.01,-0 0.016,-0.001c0.098,-0.009 0.171,-0.095 0.162,-0.194c-0.026,-0.294 -0.043,-0.599 -0.059,-0.893c-0.004,-0.08 -0.009,-0.162 -0.014,-0.243c-0.113,-0.005 -0.224,-0.016 -0.331,-0.029c-0.01,-0.001 -0.019,-0.002 -0.029,-0.003" style="fill:#525d7d;fill-rule:nonzero;"/><path d="M32.024,29.925c-0.012,-0.097 -0.1,-0.168 -0.199,-0.156c-0.048,0.006 -0.098,0.009 -0.152,0.009c-0.039,0 -0.077,-0.003 -0.115,-0.006c-0.087,-0.005 -0.174,-0.014 -0.266,-0.024c-0.031,-0.004 -0.063,-0.007 -0.095,-0.011c-0.104,-0.011 -0.209,-0.022 -0.316,-0.022c-0.044,0 -0.084,0.017 -0.115,0.043c-0.039,0.033 -0.064,0.081 -0.064,0.136c-0,0.099 0.08,0.179 0.179,0.179c0.014,-0 0.028,0.001 0.042,0.002c0.097,0.002 0.195,0.012 0.298,0.024c0.01,0.001 0.019,0.002 0.029,0.003c0.107,0.013 0.218,0.024 0.331,0.029c0.03,0.001 0.061,0.004 0.092,0.004c0.069,0 0.133,-0.003 0.195,-0.011c0.098,-0.012 0.168,-0.101 0.156,-0.199" style="fill:#525d7d;fill-rule:nonzero;"/><path d="M32.274,30.955c-0.012,0 -0.024,-0 -0.036,-0.001c-0.001,-0.076 -0.001,-0.152 -0.001,-0.226l0,-0.083c0.191,0.025 0.27,0.122 0.276,0.149c-0,0.14 -0.15,0.161 -0.239,0.161m-0.134,-0.674c-0.032,-0 -0.064,0.001 -0.095,0.004c-0.093,0.007 -0.165,0.084 -0.165,0.178l0,0.265c0,0.401 0.002,0.829 0.023,1.268c0.004,0.096 0.083,0.17 0.178,0.17c0.003,0 0.006,0 0.009,-0c0.098,-0.005 0.174,-0.088 0.17,-0.187c-0.011,-0.225 -0.017,-0.449 -0.02,-0.667c0.428,0.015 0.63,-0.261 0.63,-0.518c-0,-0.247 -0.279,-0.513 -0.73,-0.513" style="fill:#525d7d;fill-rule:nonzero;"/><path d="M33.174,30.182c-0.096,0.019 -0.159,0.113 -0.14,0.21c0.01,0.049 0.01,0.089 0.01,0.15c0,0.099 0.08,0.179 0.179,0.179c0.098,-0 0.178,-0.08 0.178,-0.179c0,-0.07 0,-0.136 -0.016,-0.22c-0.019,-0.097 -0.114,-0.16 -0.211,-0.14" style="fill:#525d7d;fill-rule:nonzero;"/><path d="M33.223,30.999c-0.098,-0 -0.178,0.08 -0.178,0.179l-0,0.119c-0,0.098 0.08,0.178 0.178,0.178c0.099,0 0.179,-0.08 0.179,-0.178l-0,-0.119c-0,-0.099 -0.08,-0.179 -0.179,-0.179" style="fill:#525d7d;fill-rule:nonzero;"/><path d="M34.861,29.703c0.048,-0.086 0.017,-0.195 -0.069,-0.243c-0.086,-0.048 -0.195,-0.017 -0.243,0.069c-0.097,0.174 -0.191,0.35 -0.284,0.526c-0.144,0.272 -0.294,0.554 -0.454,0.818c-0.051,0.085 -0.024,0.195 0.06,0.246c0.029,0.017 0.061,0.025 0.093,0.025c0.06,0 0.119,-0.03 0.153,-0.086c0.165,-0.273 0.317,-0.559 0.464,-0.836c0.092,-0.173 0.184,-0.347 0.28,-0.519" style="fill:#525d7d;fill-rule:nonzero;"/><path d="M35.487,29.685c-0.079,-0.059 -0.191,-0.043 -0.25,0.035c-0.139,0.185 -0.258,0.382 -0.372,0.572c-0.159,0.261 -0.308,0.509 -0.504,0.726c-0.066,0.074 -0.06,0.187 0.013,0.252c0.034,0.031 0.077,0.046 0.119,0.046c0.049,0 0.098,-0.02 0.133,-0.059c0.219,-0.243 0.384,-0.516 0.544,-0.78c0.116,-0.191 0.225,-0.371 0.353,-0.542c0.059,-0.079 0.043,-0.191 -0.036,-0.25" style="fill:#525d7d;fill-rule:nonzero;"/><path d="M37.415,30.358c0.065,-0.034 0.141,-0.024 0.195,0.019c-0.002,-0.051 -0.025,-0.1 -0.067,-0.133c-0.077,-0.062 -0.19,-0.049 -0.251,0.029c-0.169,0.213 -0.329,0.432 -0.466,0.628c-0.014,-0.024 -0.027,-0.047 -0.041,-0.069c-0.062,-0.105 -0.123,-0.207 -0.18,-0.293c-0.031,-0.048 -0.082,-0.078 -0.139,-0.081c-0.056,-0.003 -0.111,0.02 -0.147,0.064c-0.08,0.096 -0.158,0.193 -0.235,0.29c-0.034,0.044 -0.069,0.087 -0.105,0.131c-0.01,-0.022 -0.02,-0.044 -0.03,-0.066c-0.07,-0.155 -0.143,-0.314 -0.225,-0.47c-0.045,-0.088 -0.153,-0.121 -0.241,-0.076c-0.087,0.046 -0.121,0.154 -0.075,0.241c0.077,0.148 0.148,0.303 0.216,0.453c0.05,0.11 0.1,0.219 0.153,0.328c0.027,0.054 0.079,0.091 0.138,0.099c0.008,0.001 0.015,0.001 0.023,0.001c0.052,0 0.101,-0.022 0.136,-0.062c0.1,-0.118 0.196,-0.239 0.29,-0.356c0.024,-0.031 0.048,-0.061 0.072,-0.091c0.014,0.023 0.028,0.047 0.042,0.071c0.062,0.103 0.126,0.21 0.189,0.308c0.033,0.051 0.088,0.081 0.148,0.082c0.059,0 0.116,-0.028 0.15,-0.077c0.12,-0.175 0.27,-0.39 0.434,-0.609c-0.02,-0.04 -0.039,-0.081 -0.059,-0.12c-0.046,-0.088 -0.012,-0.196 0.075,-0.241" style="fill:#525d7d;fill-rule:nonzero;"/><path d="M39.223,30.299c-0.168,0.212 -0.328,0.432 -0.465,0.628c-0.014,-0.023 -0.029,-0.047 -0.042,-0.07c-0.063,-0.104 -0.123,-0.205 -0.179,-0.292c-0.031,-0.047 -0.083,-0.077 -0.139,-0.081c-0.058,-0.003 -0.112,0.021 -0.148,0.064c-0.08,0.096 -0.158,0.194 -0.235,0.291c-0.035,0.044 -0.07,0.088 -0.104,0.131c-0.011,-0.023 -0.021,-0.045 -0.031,-0.068c-0.071,-0.154 -0.143,-0.313 -0.224,-0.469c-0.012,-0.022 -0.028,-0.041 -0.047,-0.056c-0.054,-0.043 -0.13,-0.053 -0.194,-0.019c-0.088,0.045 -0.122,0.153 -0.076,0.241c0.02,0.039 0.039,0.08 0.059,0.12c0.054,0.11 0.107,0.222 0.157,0.331c0.05,0.11 0.1,0.22 0.154,0.33c0.026,0.054 0.078,0.091 0.138,0.098c0.007,0.001 0.015,0.002 0.022,0.002c0.052,-0 0.102,-0.023 0.136,-0.063c0.1,-0.117 0.196,-0.238 0.289,-0.355c0.025,-0.031 0.049,-0.061 0.073,-0.092c0.014,0.023 0.028,0.046 0.042,0.07c0.062,0.104 0.126,0.211 0.189,0.31c0.033,0.05 0.088,0.081 0.148,0.082c0.062,-0.001 0.116,-0.028 0.15,-0.078c0.11,-0.16 0.246,-0.354 0.394,-0.553l-0,-0.138c-0.007,-0.013 -0.013,-0.026 -0.019,-0.038c-0.034,-0.064 -0.024,-0.14 0.019,-0.193l-0,-0.184c-0.026,0.011 -0.049,0.028 -0.067,0.051" style="fill:#525d7d;fill-rule:nonzero;"/><path d="M39.271,30.625c0.006,0.012 0.012,0.025 0.018,0.038l0,-0.231c-0.042,0.053 -0.052,0.129 -0.018,0.193" style="fill:#525d7d;fill-rule:nonzero;"/><path d="M25.341,30.312c0.081,0 0.155,-0.056 0.174,-0.139c0.022,-0.096 -0.039,-0.192 -0.135,-0.213c-0.078,-0.018 -0.155,-0.04 -0.232,-0.061c-1.778,-0.477 -3.242,-1.714 -4.586,-2.985c-0.063,-0.061 -0.127,-0.121 -0.19,-0.181c-0.051,-0.048 -0.122,-0.059 -0.183,-0.037c-0.009,0.003 -0.017,0.007 -0.025,0.012c-0.016,0.009 -0.032,0.017 -0.045,0.031c-0.068,0.071 -0.065,0.184 0.006,0.253c0.031,0.028 0.061,0.057 0.092,0.086c1.433,1.363 2.998,2.71 4.954,3.196c0.043,0.011 0.086,0.024 0.13,0.034c0.013,0.003 0.027,0.004 0.04,0.004" style="fill:#525d7d;fill-rule:nonzero;"/></g></svg>