<?xml version="1.0" encoding="UTF-8" standalone="no"?><!DOCTYPE svg PUBLIC "-//W3C//DTD SVG 1.1//EN" "http://www.w3.org/Graphics/SVG/1.1/DTD/svg11.dtd"><svg width="100%" height="100%" viewBox="0 0 40 40" version="1.1" xmlns="http://www.w3.org/2000/svg" xmlns:xlink="http://www.w3.org/1999/xlink" xml:space="preserve" xmlns:serif="http://www.serif.com/" style="fill-rule:evenodd;clip-rule:evenodd;stroke-linejoin:round;stroke-miterlimit:2;"><g id="Web-Hero-Man" serif:id="Web Hero Man" opacity="0.4"><path d="M22.281,21.125c0.272,-0.048 0.551,-0.057 0.816,-0.134c0.201,-0.058 0.247,-0.346 0.059,-0.452c-0.699,-0.394 -1.701,-0.172 -2.415,0.075c-0.428,0.149 -0.846,0.329 -1.265,0.502c-0.149,0.062 -1.402,0.682 -1.41,0.299c-0.003,-0.152 -0.193,-0.191 -0.275,-0.074c-0.185,0.267 -0.104,0.658 0.168,0.835c0.469,0.308 1.126,0.017 1.591,-0.154c0.016,-0.006 0.032,-0.012 0.048,-0.018c0.192,-0.092 0.372,-0.185 0.528,-0.261c0.659,-0.321 1.405,-0.667 2.155,-0.618" style="fill:#ffcc80;fill-rule:nonzero;"/><path d="M18.874,28.739c-0.186,-0.623 -0.277,-1.283 0.255,-1.778c0.373,-0.347 0.644,-0.732 0.851,-1.198c0.037,-0.084 0.075,-0.17 0.112,-0.257c0.005,0.022 0.014,0.043 0.024,0.062c-0.014,0.046 -0.028,0.092 -0.04,0.138c-0.073,0.277 0.327,0.459 0.469,0.198c0.02,-0.035 0.039,-0.073 0.057,-0.11c0.072,-0.013 0.14,-0.05 0.189,-0.117c0.017,-0.024 0.033,-0.048 0.05,-0.072c0.121,0.056 0.27,0.053 0.364,-0.057c0.058,-0.068 0.115,-0.137 0.172,-0.206c0.114,0.05 0.248,0.041 0.341,-0.072c0.026,-0.031 0.05,-0.063 0.074,-0.095c0.104,-0.001 0.213,-0.047 0.282,-0.138c0.209,-0.272 0.415,-0.635 0.07,-0.892c-0.119,-0.09 -0.242,-0.109 -0.388,-0.121c-0.189,-0.016 -0.326,-0.056 -0.471,-0.133c0,-0.056 -0.009,-0.11 -0.035,-0.16c-0.004,-0.065 -0.044,-0.119 -0.097,-0.154c0.008,-0.1 0.015,-0.198 0.019,-0.292c0.008,-0.167 -0.236,-0.19 -0.283,-0.038c-0.044,0.142 -0.084,0.285 -0.124,0.429c-0.001,0.002 -0.004,0.005 -0.005,0.007c-0.017,0.034 -0.033,0.067 -0.05,0.101c0.079,-0.301 0.14,-0.602 0.173,-0.896c0.006,-0.057 -0.076,-0.086 -0.112,-0.046c-0.382,0.422 -0.658,0.952 -0.948,1.438c-0.296,0.495 -0.65,1.015 -0.853,1.557c-0.085,0.227 -0.156,0.508 -0.201,0.746c-0.035,0.186 -0.036,0.384 -0.11,0.563c-0.054,0.131 -0.168,0.272 -0.234,0.4c-0.237,0.452 -0.332,0.871 -0.222,1.378c0.093,0.436 0.799,0.248 0.671,-0.185" style="fill:#e0dfe6;fill-rule:nonzero;"/><path d="M20.325,28.496c0.199,0.103 0.385,0.049 0.586,-0.017c0.154,-0.051 0.263,-0.287 0.107,-0.408c-0.008,-0.006 -0.016,-0.012 -0.024,-0.018c0.061,-0.135 -0.012,-0.3 -0.157,-0.341c-0.186,-0.053 -0.356,0.072 -0.39,0.255c-0.023,0.123 0.024,0.22 0.093,0.306c-0.066,0.065 -0.16,0.125 -0.215,0.163c-0.02,0.014 -0.025,0.047 -0,0.06" style="fill:#e0dfe6;fill-rule:nonzero;"/><path d="M20.376,27.002c-0.13,0.076 -0.236,0.157 -0.312,0.259c-0.059,-0.04 -0.159,-0.02 -0.149,0.069c0.01,0.085 0.02,0.169 0.029,0.253c0.015,0.128 0.218,0.185 0.246,0.033c0.072,-0.373 0.673,-0.543 0.971,-0.691c0.369,-0.184 0.736,-0.375 1.111,-0.546c0.695,-0.318 1.552,-0.436 2.174,-0.894c0.202,-0.149 0.09,-0.48 -0.176,-0.418c-0.93,0.217 -1.762,0.827 -2.603,1.254c-0.432,0.219 -0.875,0.433 -1.291,0.681" style="fill:#e0dfe6;fill-rule:nonzero;"/><path d="M26.612,24.024c-0,-0.021 -0.001,-0.041 -0.005,-0.062c0.054,0.041 0.107,0.08 0.161,0.119c-0.052,-0.019 -0.104,-0.038 -0.156,-0.057m-0.654,0.343c0.142,-0.008 0.28,-0.028 0.414,-0.073c0.083,0.032 0.166,0.068 0.247,0.105c-0.221,-0.024 -0.441,-0.034 -0.661,-0.032m0.175,-0.795c0.043,0.039 0.086,0.078 0.13,0.115c-0.048,-0.012 -0.096,-0.02 -0.145,-0.026c0.009,-0.028 0.014,-0.058 0.015,-0.089m-1.095,0.866c0.083,-0.017 0.166,-0.032 0.249,-0.042c0.132,-0.015 0.266,-0.018 0.4,-0.02c-0.217,0.011 -0.433,0.033 -0.649,0.062m0.085,-1.1c0.026,0.032 0.052,0.064 0.079,0.096c-0.073,-0.011 -0.145,-0.023 -0.216,-0.038c0.048,-0.021 0.094,-0.041 0.137,-0.058m-2.087,0.296c0.079,-0.031 0.157,-0.064 0.232,-0.102c0.079,-0.039 0.108,-0.108 0.103,-0.176c0.01,0.03 0.019,0.06 0.03,0.09c0.01,0.029 0.02,0.058 0.031,0.087c-0.134,0.024 -0.266,0.059 -0.396,0.101m6.828,1.542c-0.395,-0.135 -0.786,-0.301 -1.167,-0.487c-0.033,-0.066 -0.098,-0.115 -0.195,-0.116c-0.013,0 -0.025,-0.001 -0.038,-0.002c-0.319,-0.165 -0.631,-0.342 -0.931,-0.528c-0.39,-0.242 -0.765,-0.512 -1.122,-0.8c-0.226,-0.183 -0.443,-0.406 -0.68,-0.588c-0.241,-0.288 -0.538,-0.541 -0.868,-0.739c-0.092,-0.113 -0.188,-0.221 -0.294,-0.317c-0.431,-0.393 -1.338,-0.656 -1.882,-0.399c-0.008,0.003 -0.013,0.009 -0.018,0.015c-0.031,-0.026 -0.07,-0.047 -0.12,-0.056c-0.089,-0.018 -0.179,-0.029 -0.268,-0.034c-0.75,-0.049 -1.497,0.297 -2.155,0.618c-0.157,0.076 -0.336,0.169 -0.528,0.261c-0.778,0.369 -1.755,0.708 -2.196,-0.212c-0.018,-0.038 -0.075,-0.017 -0.076,0.021c-0.033,0.916 1.076,1.138 1.772,0.967c0.539,-0.133 1.03,-0.418 1.533,-0.643c0.617,-0.277 1.17,-0.398 1.842,-0.418c0.18,-0.006 0.286,-0.172 0.28,-0.324c0.026,0.026 0.054,0.049 0.082,0.07c-0.014,0.076 -0.004,0.149 0.013,0.232c0.009,0.049 0.021,0.096 0.037,0.143c0.007,0.023 0.015,0.046 0.024,0.068c0.005,0.012 0.028,0.073 0.027,0.059c0.012,0.094 0.068,0.177 0.145,0.214c0.066,0.363 0.146,0.725 0.257,1.075c-0.045,-0.074 -0.13,-0.126 -0.229,-0.102c-0.252,0.061 -0.492,0.183 -0.73,0.286c-0.111,0.048 -0.222,0.096 -0.333,0.145c-0.128,0.057 -0.346,0.218 -0.492,0.192c-0.07,-0.013 -0.122,0.065 -0.07,0.12c0.183,0.197 0.47,0.063 0.693,-0.002c0.215,-0.063 0.439,-0.119 0.656,-0.189c-0.195,0.074 -0.386,0.159 -0.574,0.24c-0.151,0.066 -0.041,0.294 0.109,0.258c0.41,-0.099 0.835,-0.148 1.239,-0.269c0.093,0.166 0.211,0.302 0.375,0.363c-0.016,0.085 0.014,0.178 0.097,0.22c0.055,0.027 0.105,0.06 0.156,0.091c-0.013,0.045 0.015,0.106 0.073,0.106c0.973,-0.011 1.954,-0.022 2.892,0.274c0.851,0.269 1.64,0.701 2.489,0.977c1.547,0.502 3.324,0.409 4.846,-0.167l-0,-1.204c-0.546,0.289 -1.09,0.57 -1.712,0.729c-0.97,0.246 -2.014,0.174 -2.959,-0.148" style="fill:#e0dfe6;fill-rule:nonzero;"/><path d="M7.154,26.672c-0.041,0.024 -0.076,0.076 -0.072,0.126c0.008,0.1 0.054,0.174 0.144,0.22c0.094,0.048 0.2,0.051 0.289,-0.012c0.072,-0.05 0.107,-0.134 0.072,-0.219c-0.033,-0.077 -0.112,-0.116 -0.193,-0.103c-0.005,-0.001 -0.021,-0.001 -0.024,-0.001c-0.007,0 -0.02,-0.001 -0.031,-0.001c-0.013,-0.006 -0.032,-0.01 -0.043,-0.014c-0.004,-0.001 -0.008,-0.003 -0.011,-0.004c0.003,0.001 0.008,0.004 0.017,0.008c-0.048,-0.024 -0.1,-0.028 -0.148,0" style="fill:#e0dfe6;fill-rule:nonzero;"/><path d="M9.911,24.429c0.161,0.028 0.297,-0.062 0.448,-0.104c0.165,-0.045 0.366,-0.02 0.486,-0.158c0.104,-0.119 0.095,-0.304 -0.05,-0.389c-0.195,-0.115 -0.417,0.002 -0.6,0.096c-0.148,0.077 -0.357,0.186 -0.393,0.362c-0.016,0.077 0.021,0.177 0.109,0.193" style="fill:#e0dfe6;fill-rule:nonzero;"/><path d="M12.274,25.622c0.419,0.361 1.054,0.854 1.633,0.729c0.257,-0.055 0.341,-0.412 0.155,-0.587c-0.208,-0.196 -0.456,-0.239 -0.705,-0.369c-0.256,-0.132 -0.493,-0.303 -0.727,-0.471c-0.497,-0.358 -0.947,-0.737 -1.502,-1.006c-0.109,-0.052 -0.247,0.059 -0.176,0.176c0.353,0.575 0.811,1.088 1.322,1.528" style="fill:#e0dfe6;fill-rule:nonzero;"/><path d="M19.685,18.114c0.045,0.058 0.031,0.133 0.066,0.196c0.028,0.051 0.08,0.095 0.126,0.131c0.076,0.06 0.167,0.098 0.261,0.118c-0,0.003 -0.002,0.005 -0.003,0.008c-0.079,0.253 0.179,0.501 0.428,0.428c0.576,-0.169 0.953,-0.936 1.122,-1.471c0.184,-0.581 0.217,-1.271 0.027,-1.854c-0.015,-0.046 -0.084,-0.05 -0.097,-0c-0.142,0.557 -0.3,1.071 -0.592,1.574c-0.079,0.136 -0.162,0.271 -0.251,0.401c-0.046,-0.009 -0.096,-0.009 -0.146,0.003c-0.169,0.04 -0.277,0.154 -0.43,0.224c-0.072,0.034 -0.148,0.054 -0.223,0.082c-0.055,0.021 -0.184,0.101 -0.227,0.081c-0.053,-0.024 -0.096,0.034 -0.061,0.079" style="fill:#e0dfe6;fill-rule:nonzero;"/><path d="M17.2,15.397c0.335,0.095 0.685,0.124 1.019,0.223c0.436,0.129 0.592,0.322 0.741,0.727c0.07,0.19 0.255,0.26 0.41,0.22c-0.003,0.01 -0.006,0.019 -0.009,0.029c-0.036,0.133 0.154,0.216 0.224,0.094c0.162,-0.284 0.149,-0.646 0.094,-0.959c-0.01,-0.059 -0.095,-0.04 -0.098,0.013c-0.004,0.057 -0.012,0.112 -0.022,0.167c-0.279,-0.795 -1.711,-0.709 -2.359,-0.61c-0.051,0.007 -0.044,0.084 0,0.096" style="fill:#e0dfe6;fill-rule:nonzero;"/><path d="M18.499,21.642c0.006,0.001 0.012,0.002 0.019,0.002c0.06,-0 0.113,-0.044 0.123,-0.106c0.019,-0.127 0.029,-0.247 0.029,-0.357c0,-0.051 -0.001,-0.1 -0.004,-0.146c-0,0.05 -0.031,0.097 -0.08,0.116c-0.054,0.021 -0.11,0.042 -0.167,0.063c-0.001,0.088 -0.009,0.184 -0.025,0.286c-0.01,0.068 0.037,0.132 0.105,0.142" style="fill:#525d7d;fill-rule:nonzero;"/><path d="M16.686,16.461l0.1,-0.035c0.037,-0.013 0.074,-0.025 0.111,-0.038c0.089,-0.389 0.203,-0.77 0.341,-1.139c-0.081,-0.017 -0.162,-0.038 -0.243,-0.066c-0.163,0.438 -0.292,0.893 -0.386,1.356c0.012,-0.035 0.039,-0.065 0.077,-0.078" style="fill:#525d7d;fill-rule:nonzero;"/><path d="M18.657,20.99c0.003,0.007 0.005,0.014 0.006,0.021c-0.048,-0.621 -0.365,-0.716 -0.647,-0.799c-0.369,-0.109 -0.788,-0.232 -0.79,-1.78c-0,-0.068 -0.054,-0.123 -0.122,-0.124l-0.191,-0.005c-0.08,-0.001 -0.16,-0.003 -0.24,-0.005c0.004,-0.542 0.06,-1.089 0.164,-1.625l-0.07,0.024c-0.013,0.005 -0.027,0.007 -0.04,0.007c-0.052,-0 -0.101,-0.033 -0.118,-0.084c-0.006,-0.016 -0.008,-0.032 -0.007,-0.047c-0.117,0.589 -0.178,1.191 -0.178,1.787l-0,0.061c0,0.067 0.054,0.122 0.121,0.124c0.121,0.003 0.242,0.005 0.363,0.008l0.07,0.001c0.024,1.495 0.452,1.746 0.967,1.897c0.244,0.072 0.416,0.124 0.463,0.501c0.03,-0.011 0.059,-0.023 0.088,-0.034c0.065,-0.024 0.137,0.008 0.161,0.072" style="fill:#525d7d;fill-rule:nonzero;"/><path d="M16.091,13.895c0.265,0.078 0.583,0.113 0.992,0.113c0.644,0 1.254,-0.121 1.793,-0.228c0.427,-0.084 0.795,-0.157 1.102,-0.157c1.144,-0 1.847,1.423 1.847,2.444c-0,1.775 -0.688,2.383 -1.295,2.919c-0.036,0.032 -0.072,0.064 -0.108,0.096c-0.071,-0.196 -0.101,-0.343 -0.101,-0.484c0,-0.371 0.186,-0.711 0.336,-0.984c0.112,-0.204 0.2,-0.365 0.2,-0.508c-0,-0.177 -0.065,-0.473 -0.501,-0.473c-0.404,0 -0.644,0.337 -0.83,0.687c-0.044,-0.024 -0.089,-0.047 -0.136,-0.071c0.094,-0.492 0.152,-0.99 0.152,-1.188c-0,-0.372 -0.084,-0.633 -0.256,-0.798c-0.26,-0.251 -0.672,-0.236 -1.108,-0.219c-0.756,0.028 -1.606,0.06 -2.087,-1.149m2.097,1.398c0.397,-0.015 0.741,-0.028 0.925,0.149c0.121,0.116 0.179,0.318 0.179,0.619c0,0.173 -0.057,0.697 -0.165,1.232c-0.011,0.055 0.016,0.111 0.067,0.136c0.116,0.058 0.222,0.114 0.322,0.171c0.03,0.017 0.065,0.021 0.098,0.011c0.033,-0.01 0.06,-0.033 0.075,-0.063c0.201,-0.399 0.391,-0.665 0.667,-0.665c0.211,-0 0.251,0.078 0.251,0.223c0,0.08 -0.082,0.229 -0.169,0.388c-0.163,0.298 -0.366,0.669 -0.366,1.104c-0,0.234 0.07,0.458 0.153,0.666c-0.38,0.368 -0.683,0.795 -0.683,1.568c0,0.205 0.024,0.416 0.072,0.626c0.013,0.057 0.065,0.097 0.122,0.097c0.009,-0 0.018,-0.001 0.027,-0.003c0.068,-0.016 0.11,-0.083 0.094,-0.15c-0.043,-0.191 -0.065,-0.383 -0.065,-0.57c-0,-0.06 0.002,-0.117 0.006,-0.172c-0.024,0.009 -0.047,0.019 -0.071,0.029c-0.063,0.026 -0.137,-0.005 -0.163,-0.068c-0.026,-0.064 0.005,-0.137 0.069,-0.163c0.069,-0.029 0.138,-0.057 0.206,-0.084c0.122,-0.551 0.468,-0.857 0.856,-1.201c0.647,-0.571 1.379,-1.218 1.379,-3.106c0,-0.603 -0.208,-1.267 -0.557,-1.778c-0.404,-0.59 -0.951,-0.916 -1.539,-0.916c-0.331,0 -0.711,0.075 -1.15,0.163c-0.528,0.104 -1.126,0.223 -1.745,0.223c-0.514,-0 -0.868,-0.058 -1.146,-0.187c-0.045,-0.02 -0.098,-0.013 -0.135,0.02c-0.037,0.032 -0.051,0.084 -0.037,0.131c0.284,0.899 0.742,1.292 1.231,1.46c0.08,0.028 0.161,0.049 0.243,0.066c0.327,0.067 0.657,0.055 0.949,0.044" style="fill:#525d7d;fill-rule:nonzero;"/><path d="M18.82,18.587c-0.053,-0.043 -0.132,-0.035 -0.175,0.019c-0.227,0.284 -0.451,0.447 -0.616,0.447c-0.06,-0 -0.125,-0.012 -0.193,-0.024c-0.059,-0.011 -0.119,-0.022 -0.181,-0.026c-0.068,-0.005 -0.128,0.047 -0.133,0.116c-0.004,0.069 0.048,0.128 0.116,0.133c0.048,0.003 0.099,0.012 0.153,0.022c0.076,0.014 0.155,0.028 0.238,0.028c0.313,0 0.614,-0.293 0.811,-0.54c0.043,-0.054 0.034,-0.132 -0.02,-0.175" style="fill:#525d7d;fill-rule:nonzero;"/><path d="M16.726,16.704c0.014,-0 0.028,-0.002 0.041,-0.007l0.069,-0.024l0.032,-0.011c0.213,-0.074 0.413,-0.144 0.624,-0.196c0.067,-0.017 0.107,-0.085 0.091,-0.152c-0.017,-0.066 -0.085,-0.107 -0.152,-0.09c-0.182,0.045 -0.36,0.104 -0.534,0.164c-0.037,0.013 -0.074,0.025 -0.111,0.038l-0.1,0.035c-0.038,0.013 -0.065,0.043 -0.077,0.078c-0.004,0.011 -0.006,0.022 -0.007,0.034c-0.001,0.015 0.001,0.031 0.006,0.047c0.018,0.051 0.067,0.084 0.118,0.084" style="fill:#525d7d;fill-rule:nonzero;"/><path d="M18.764,16.209c-0.254,-0.044 -0.565,-0.089 -0.889,-0.075c-0.068,0.003 -0.122,0.061 -0.119,0.13c0.003,0.069 0.061,0.122 0.13,0.119c0.301,-0.012 0.594,0.03 0.835,0.072c0.007,0.001 0.015,0.002 0.022,0.002c0.059,0 0.112,-0.043 0.122,-0.103c0.012,-0.068 -0.033,-0.133 -0.101,-0.145" style="fill:#525d7d;fill-rule:nonzero;"/><path d="M17.217,17.242l-0.053,-0.052c0.001,-0.001 0.001,-0.002 0.002,-0.003c0.001,0 0.003,0 0.005,0c0.036,0 0.045,0.033 0.048,0.049c-0.001,0.002 -0.001,0.004 -0.002,0.006m-0.007,0.015c-0.01,0.005 -0.024,0.009 -0.043,0.009l-0.001,0c-0.004,-0.002 -0.014,-0.016 -0.014,-0.033c-0,-0.021 0.007,-0.035 0.012,-0.043l0.053,0.053c-0.002,0.006 -0.005,0.011 -0.007,0.014m-0.038,-0.24c-0.046,-0 -0.088,0.018 -0.125,0.055c-0,0 -0.001,0 -0.001,0.001c-0.02,0.016 -0.073,0.059 -0.073,0.14c-0.002,0.011 -0.003,0.022 -0.003,0.034c0,0.113 0.104,0.19 0.201,0.19c0.094,-0 0.23,-0.08 0.23,-0.204c0,-0.129 -0.118,-0.216 -0.229,-0.216" style="fill:#525d7d;fill-rule:nonzero;"/><path d="M18.114,17.141c-0.004,-0.002 -0.014,-0.015 -0.014,-0.033c0,-0.02 0.007,-0.035 0.013,-0.043l0.052,0.053c-0.002,0.006 -0.005,0.011 -0.007,0.015c-0.01,0.004 -0.024,0.008 -0.043,0.008l-0.001,0Zm0,-0.078c0.002,-0 0.003,-0 0.006,-0c0.035,-0 0.045,0.033 0.047,0.048c-0,0.002 -0.001,0.004 -0.002,0.006l-0.052,-0.052c0,-0.001 0.001,-0.001 0.001,-0.002m0.236,0.045c-0,-0.129 -0.119,-0.216 -0.23,-0.216c-0.046,0 -0.088,0.019 -0.125,0.055c0,0.001 -0,0.001 -0.001,0.001c-0.02,0.016 -0.072,0.059 -0.073,0.141c-0.001,0.011 -0.002,0.022 -0.002,0.033c-0,0.114 0.103,0.19 0.201,0.19c0.093,0 0.23,-0.079 0.23,-0.204" style="fill:#525d7d;fill-rule:nonzero;"/><path d="M15.368,22.517c0,-0.838 0.813,-0.904 1.062,-0.904c0.045,0 0.091,0.001 0.136,0.002c0.047,0 0.094,0.001 0.142,0.001c0.202,-0 0.42,-0.03 0.642,-0.077c-0.001,-0.004 -0.001,-0.009 -0.001,-0.014c-0,-0.051 0.003,-0.104 0.01,-0.158c0.008,-0.069 0.07,-0.118 0.138,-0.11c0.069,0.009 0.117,0.071 0.109,0.139c-0.003,0.029 -0.004,0.056 -0.005,0.083c0.282,-0.074 0.562,-0.17 0.819,-0.265c0.056,-0.021 0.112,-0.042 0.166,-0.063c0.05,-0.019 0.08,-0.066 0.08,-0.116c-0,-0.008 -0.001,-0.016 -0.002,-0.024c-0.002,-0.007 -0.004,-0.014 -0.006,-0.021c-0.025,-0.064 -0.097,-0.096 -0.161,-0.072c-0.029,0.012 -0.059,0.023 -0.089,0.034c-0.529,0.2 -1.18,0.415 -1.7,0.415c-0.046,-0 -0.093,-0.001 -0.138,-0.002c-0.047,-0.001 -0.093,-0.001 -0.14,-0.001c-0.967,-0 -1.311,0.596 -1.311,1.153c-0,0.155 0.03,0.318 0.089,0.508c0.059,-0.099 0.12,-0.198 0.181,-0.297c-0.013,-0.074 -0.021,-0.144 -0.021,-0.211" style="fill:#525d7d;fill-rule:nonzero;"/><path d="M25.435,22.094c-1.386,-1.169 -2.582,-2.178 -3.981,-2.178c-0.415,-0 -0.995,0.208 -1.615,0.458c-0.069,0.027 -0.137,0.055 -0.207,0.084c-0.063,0.026 -0.094,0.099 -0.068,0.163c0.026,0.063 0.1,0.094 0.163,0.068c0.024,-0.01 0.047,-0.02 0.071,-0.029c0.623,-0.255 1.256,-0.495 1.656,-0.495c0.721,0 1.398,0.299 2.086,0.757c0.172,0.02 0.344,0.042 0.514,0.073c0.068,0.012 0.113,0.076 0.101,0.144c-0.012,0.068 -0.077,0.113 -0.145,0.101c-0.009,-0.001 -0.018,-0.002 -0.027,-0.004c0.418,0.313 0.845,0.672 1.291,1.048c1.719,1.449 3.666,3.091 6.457,3.091c1.126,0 1.951,-0.182 2.803,-0.593l0,-0.279c-0.861,0.432 -1.678,0.623 -2.803,0.623c-2.7,-0 -4.61,-1.611 -6.296,-3.032" style="fill:#525d7d;fill-rule:nonzero;"/><path d="M13.675,28.462c0.05,-0.008 0.099,-0.014 0.149,-0.022c0.056,-2.047 0.803,-4.206 2.121,-6.107c0.04,-0.056 0.025,-0.134 -0.031,-0.173c-0.057,-0.04 -0.135,-0.026 -0.174,0.031c-0.122,0.177 -0.238,0.356 -0.351,0.537c-0.062,0.099 -0.122,0.198 -0.181,0.297c-0.271,0.463 -0.51,0.936 -0.717,1.416c0.033,0.008 0.065,0.016 0.099,0.024c0.067,0.016 0.109,0.083 0.093,0.15c-0.016,0.067 -0.083,0.109 -0.15,0.093c-0.048,-0.011 -0.093,-0.023 -0.139,-0.034c-0.205,0.504 -0.375,1.015 -0.504,1.528c0.047,0.022 0.092,0.043 0.133,0.061c0.063,0.028 0.091,0.102 0.063,0.165c-0.02,0.046 -0.066,0.074 -0.114,0.074c-0.017,-0 -0.034,-0.004 -0.05,-0.011c-0.029,-0.013 -0.06,-0.027 -0.09,-0.041c-0.163,0.709 -0.251,1.419 -0.26,2.116c0.008,-0.052 0.048,-0.095 0.103,-0.104" style="fill:#525d7d;fill-rule:nonzero;"/><path d="M13.694,28.71c-0.06,0 -0.113,-0.044 -0.123,-0.105c0,-0.002 0,-0.003 0,-0.004c-0,0.029 -0.002,0.059 -0.002,0.088c0,0.433 0.031,0.866 0.091,1.287c0.009,0.062 0.062,0.107 0.123,0.107c0.006,-0 0.012,-0.001 0.018,-0.002c0.068,-0.009 0.115,-0.073 0.106,-0.141c-0.059,-0.407 -0.088,-0.827 -0.088,-1.247c-0.035,0.006 -0.07,0.01 -0.105,0.016c-0.007,0.001 -0.013,0.001 -0.02,0.001" style="fill:#525d7d;fill-rule:nonzero;"/><path d="M18.451,22.445c0.868,-0 1.29,-0.29 1.737,-0.597c0.496,-0.34 1.01,-0.692 2.241,-0.726c-0.008,-0.032 -0.017,-0.063 -0.025,-0.095c-0.018,-0.067 0.022,-0.135 0.088,-0.153c0.008,-0.002 0.017,-0.003 0.025,-0.004c-1.374,0.021 -1.956,0.42 -2.47,0.773c-0.432,0.296 -0.806,0.552 -1.596,0.552c-0.2,0 -0.853,-0.048 -0.853,-0.67c-0,-0.014 0.002,-0.03 0.003,-0.046c0.001,-0.027 0.001,-0.054 0.005,-0.083c0.008,-0.068 -0.041,-0.13 -0.109,-0.139c-0.069,-0.008 -0.131,0.041 -0.139,0.11c-0.007,0.054 -0.01,0.107 -0.01,0.158c0,0.005 0.001,0.01 0.001,0.014c0.007,0.559 0.428,0.906 1.102,0.906" style="fill:#525d7d;fill-rule:nonzero;"/><path d="M22.519,20.87c0.057,-0.003 0.111,0.035 0.126,0.093c0.014,0.053 0.029,0.105 0.043,0.157c0.432,0.003 0.868,0.042 1.296,0.116c0.009,0.002 0.018,0.003 0.027,0.004c0.068,0.012 0.132,-0.033 0.144,-0.101c0.013,-0.068 -0.033,-0.132 -0.101,-0.144c-0.17,-0.031 -0.341,-0.053 -0.513,-0.073c-0.303,-0.034 -0.607,-0.053 -0.91,-0.053c-0.038,0 -0.075,0.001 -0.112,0.001" style="fill:#525d7d;fill-rule:nonzero;"/><path d="M9.953,25.073c-0.016,0.007 -0.033,0.01 -0.05,0.01c-0.048,-0 -0.094,-0.028 -0.114,-0.076c-0.01,-0.023 -0.019,-0.048 -0.029,-0.072c-0.026,0.02 -0.058,0.031 -0.09,0.03c-0.34,-0.012 -0.689,-0.046 -1.038,-0.1c-0.118,-0.019 -0.212,-0.109 -0.236,-0.226c-0.017,-0.083 -0.032,-0.166 -0.047,-0.249c-0.052,-0.005 -0.103,-0.011 -0.152,-0.018c-0.069,-0.009 -0.116,-0.072 -0.107,-0.14c0.009,-0.069 0.071,-0.117 0.14,-0.107c0.026,0.003 0.053,0.006 0.08,0.01c-0.023,-0.162 -0.041,-0.323 -0.054,-0.484c-0.05,-0.006 -0.099,-0.012 -0.147,-0.019c-0.068,-0.009 -0.116,-0.072 -0.106,-0.14c0.009,-0.069 0.072,-0.116 0.141,-0.107c0.031,0.005 0.064,0.009 0.096,0.013c-0.006,-0.12 -0.009,-0.239 -0.01,-0.358c0,-0.054 0.023,-0.107 0.062,-0.144c0.039,-0.037 0.091,-0.056 0.146,-0.053c0.171,0.01 0.345,0.026 0.513,0.041c0.106,0.01 0.216,0.019 0.325,0.028c-0.005,-0.05 -0.011,-0.1 -0.015,-0.151c-0.003,-0.038 0.012,-0.072 0.036,-0.097c-0.108,-0.009 -0.217,-0.019 -0.323,-0.028c-0.171,-0.016 -0.347,-0.032 -0.521,-0.042c-0.124,-0.008 -0.244,0.037 -0.333,0.121c-0.089,0.084 -0.139,0.203 -0.139,0.325c0.001,0.546 0.059,1.101 0.17,1.649c0.045,0.219 0.223,0.388 0.443,0.422c0.358,0.056 0.717,0.091 1.066,0.103c0.115,0.005 0.226,-0.042 0.304,-0.128c0.016,-0.018 0.03,-0.038 0.042,-0.058c-0.012,0.019 -0.03,0.035 -0.053,0.045" style="fill:#525d7d;fill-rule:nonzero;"/><path d="M9.51,22.741c0.006,0.063 0.013,0.125 0.019,0.187c0.039,-0 0.078,-0.02 0.101,-0.053c0.024,-0.036 0.028,-0.082 0.011,-0.122c-0.116,-0.261 -0.235,-0.574 -0.235,-0.908c-0,-0.195 0.054,-0.36 0.163,-0.49c0.035,-0.042 0.091,-0.063 0.147,-0.053c0.055,0.009 0.101,0.048 0.12,0.1c0.458,1.234 1.331,2.482 4.558,3.272c0.046,0.011 0.091,0.023 0.139,0.034c0.067,0.016 0.134,-0.026 0.15,-0.093c0.016,-0.067 -0.026,-0.134 -0.093,-0.15c-0.034,-0.008 -0.066,-0.016 -0.099,-0.024c-2.7,-0.654 -3.701,-1.623 -4.206,-2.627c-0.056,0.009 -0.11,0.018 -0.163,0.027c-0.007,0.001 -0.014,0.002 -0.021,0.002c-0.06,-0 -0.112,-0.043 -0.123,-0.104c-0.012,-0.067 0.034,-0.132 0.102,-0.144c0.031,-0.005 0.064,-0.011 0.096,-0.016c-0.038,-0.088 -0.073,-0.176 -0.106,-0.264c-0.05,-0.135 -0.17,-0.235 -0.312,-0.259c-0.143,-0.025 -0.288,0.029 -0.381,0.14c-0.114,0.137 -0.184,0.3 -0.21,0.487c0.029,0.003 0.057,0.006 0.085,0.008c0.069,0.004 0.122,0.062 0.118,0.131c-0.004,0.067 -0.059,0.118 -0.124,0.118c-0.003,0 -0.005,0 -0.007,-0c-0.027,-0.002 -0.053,-0.005 -0.08,-0.008c0.013,0.258 0.082,0.497 0.165,0.711c0.016,-0.009 0.033,-0.015 0.052,-0.017c0.068,-0.005 0.129,0.046 0.134,0.115" style="fill:#525d7d;fill-rule:nonzero;"/><path d="M13.972,26.502c0.048,-0 0.093,-0.028 0.114,-0.074c0.028,-0.063 -0,-0.137 -0.063,-0.165c-0.042,-0.018 -0.087,-0.039 -0.134,-0.061c-0.622,-0.292 -1.711,-0.9 -2.831,-1.98c-0.143,-0.138 -0.363,-0.153 -0.523,-0.036c-0.225,0.164 -0.437,0.291 -0.647,0.388c0.041,0.114 0.083,0.226 0.13,0.335c0.017,0.038 0.012,0.08 -0.008,0.113c0.044,-0.075 0.063,-0.163 0.05,-0.251l-0,-0.002c0.203,-0.099 0.407,-0.225 0.622,-0.381c0.062,-0.046 0.147,-0.04 0.203,0.014c1.175,1.132 2.318,1.758 2.946,2.048c0.031,0.014 0.062,0.028 0.09,0.041c0.017,0.007 0.034,0.011 0.051,0.011" style="fill:#525d7d;fill-rule:nonzero;"/><path d="M10.019,24.909c-0.047,-0.109 -0.09,-0.221 -0.13,-0.335c-0.178,-0.497 -0.298,-1.048 -0.36,-1.646c-0.006,-0.062 -0.013,-0.124 -0.018,-0.187c-0.006,-0.069 -0.066,-0.12 -0.135,-0.115c-0.019,0.002 -0.036,0.008 -0.051,0.017c-0.01,0.006 -0.019,0.013 -0.027,0.021c-0.025,0.025 -0.039,0.059 -0.036,0.097c0.004,0.051 0.01,0.101 0.015,0.151c0.018,0.186 0.042,0.367 0.071,0.545c0.048,-0.001 0.097,-0.001 0.146,-0.001c0.07,-0 0.125,0.055 0.125,0.123c0.001,0.069 -0.054,0.126 -0.123,0.126c-0.035,0.001 -0.069,0.001 -0.103,0.001c0.031,0.16 0.068,0.316 0.109,0.468c0.053,-0.001 0.107,-0.002 0.16,-0.003c0.065,-0.001 0.126,0.053 0.128,0.122c0.001,0.069 -0.054,0.126 -0.123,0.127c-0.03,0.001 -0.061,0.001 -0.092,0.002c0.055,0.177 0.117,0.348 0.185,0.513c0.01,0.024 0.019,0.049 0.03,0.072c0.02,0.048 0.066,0.076 0.114,0.076c0.017,-0 0.033,-0.003 0.05,-0.01c0.022,-0.01 0.04,-0.026 0.053,-0.045c0.001,-0.002 0.002,-0.004 0.004,-0.006c0.02,-0.033 0.024,-0.075 0.008,-0.113" style="fill:#525d7d;fill-rule:nonzero;"/><path d="M8.31,24.135c-0.027,-0.004 -0.054,-0.007 -0.08,-0.01c-0.069,-0.01 -0.131,0.038 -0.14,0.107c-0.009,0.068 0.039,0.131 0.107,0.14c0.049,0.007 0.101,0.012 0.152,0.018c0.238,0.025 0.501,0.037 0.815,0.037c0.137,0 0.274,-0.002 0.41,-0.005c0.031,-0.001 0.062,-0.001 0.093,-0.002c0.069,-0.001 0.123,-0.058 0.122,-0.127c-0.002,-0.069 -0.063,-0.123 -0.127,-0.122c-0.054,0.001 -0.107,0.002 -0.16,0.003c-0.113,0.002 -0.225,0.004 -0.338,0.004c-0.334,-0 -0.608,-0.014 -0.854,-0.043" style="fill:#525d7d;fill-rule:nonzero;"/><path d="M8.24,23.398c-0.032,-0.004 -0.065,-0.008 -0.096,-0.013c-0.069,-0.009 -0.132,0.038 -0.141,0.107c-0.01,0.068 0.038,0.131 0.106,0.14c0.048,0.007 0.097,0.013 0.147,0.019c0.319,0.037 0.668,0.055 1.084,0.055c0.017,0 0.035,-0 0.052,-0c0.034,-0 0.068,-0 0.103,-0.001c0.069,-0 0.124,-0.057 0.124,-0.126c-0.001,-0.068 -0.056,-0.123 -0.126,-0.123c-0.049,0 -0.097,0 -0.146,0.001l-0.007,-0c-0.426,-0 -0.778,-0.019 -1.1,-0.059" style="fill:#525d7d;fill-rule:nonzero;"/><path d="M23.376,23.682c-0.036,-0.073 -0.073,-0.149 -0.109,-0.227l-0.199,0.062c-0.323,0.103 -0.653,0.207 -0.982,0.315c0.064,-0.019 0.133,0.016 0.154,0.08l0.04,0.119c0.289,-0.094 0.579,-0.186 0.863,-0.276l0.233,-0.073Z" style="fill:#525d7d;fill-rule:nonzero;"/><path d="M21.102,22.933c-0.02,-0.046 -0.064,-0.073 -0.115,-0.075c-0.05,0.001 -0.095,0.031 -0.114,0.077c-0.437,1.045 -0.78,2.168 -1.022,3.339c0.098,-0.075 0.199,-0.15 0.303,-0.223c0.212,-0.957 0.493,-1.88 0.839,-2.75c0.156,0.347 0.294,0.639 0.428,0.905c0.028,0.056 0.093,0.082 0.152,0.062c0.155,-0.054 0.312,-0.107 0.47,-0.159l-0.04,-0.118c-0.021,-0.064 0.013,-0.134 0.076,-0.157c-0.162,0.053 -0.323,0.107 -0.484,0.162c-0.15,-0.303 -0.308,-0.644 -0.493,-1.063" style="fill:#525d7d;fill-rule:nonzero;"/><path d="M19.422,30.067c-0.006,0.217 -0.009,0.44 -0.009,0.662c-0,0.069 0.055,0.125 0.124,0.125c0.069,-0 0.125,-0.056 0.125,-0.125c0,-0.214 0.003,-0.429 0.009,-0.639c-0.023,0.003 -0.047,0.005 -0.07,0.005c-0.06,-0 -0.121,-0.01 -0.179,-0.028" style="fill:#525d7d;fill-rule:nonzero;"/><path d="M21.148,26.797c0.009,-0.009 0.02,-0.015 0.031,-0.021c-0.4,0.193 -0.79,0.402 -1.168,0.631c-0.046,0.028 -0.069,0.083 -0.056,0.136c0.073,0.302 0.221,0.584 0.429,0.817c0.034,0.039 0.089,0.052 0.137,0.034c0.049,-0.018 0.081,-0.065 0.081,-0.117l-0,-0.36c0.132,-0 0.262,0.002 0.395,0.005l0.093,0.002c0.056,0.001 0.102,0.047 0.102,0.104c-0,0.224 0.006,0.451 0.011,0.67l0.004,0.144c0.002,0.091 -0.046,0.176 -0.125,0.222l-0.147,0.084c-0.076,0.044 -0.154,0.088 -0.231,0.132c0.016,0.016 0.031,0.033 0.048,0.049c0.051,0.046 0.055,0.124 0.009,0.176c-0.024,0.027 -0.058,0.041 -0.092,0.041c-0.03,0 -0.06,-0.011 -0.084,-0.032c-0.037,-0.034 -0.072,-0.07 -0.106,-0.106c-0.118,0.067 -0.236,0.133 -0.354,0.199c0.014,0.013 0.029,0.027 0.044,0.04c0.051,0.046 0.056,0.125 0.011,0.177c-0.025,0.027 -0.059,0.042 -0.094,0.042c-0.029,-0 -0.059,-0.011 -0.082,-0.031c-0.038,-0.034 -0.074,-0.068 -0.108,-0.102c-0.043,0.024 -0.086,0.047 -0.128,0.07c-0.084,0.045 -0.183,0.055 -0.273,0.025c-0.09,-0.029 -0.165,-0.095 -0.206,-0.18c-0.159,-0.332 -0.215,-0.886 -0.215,-2.119c0,-0.165 0.07,-0.324 0.191,-0.437c0.817,-0.762 1.869,-1.453 3.218,-2.111c0.056,-0.027 0.083,-0.092 0.063,-0.152l-0.266,-0.798l-0.039,-0.119c-0.022,-0.064 -0.09,-0.099 -0.154,-0.08c-0.002,0 -0.003,0.001 -0.004,0.001c-0.001,0 -0.002,0.001 -0.003,0.001c-0.064,0.023 -0.098,0.093 -0.076,0.157l0.039,0.118l0.232,0.696c-0.808,0.4 -1.51,0.812 -2.12,1.246c-0.104,0.073 -0.205,0.148 -0.303,0.223c-0.272,0.206 -0.524,0.418 -0.758,0.635c-0.171,0.16 -0.269,0.386 -0.269,0.62c-0,0.246 0.002,0.465 0.007,0.661c0.044,0.002 0.089,0.003 0.134,0.005c0.069,0.003 0.122,0.062 0.118,0.13c-0.003,0.069 -0.061,0.123 -0.13,0.119c-0.038,-0.002 -0.076,-0.002 -0.114,-0.004c0.007,0.186 0.018,0.349 0.032,0.492c0.042,-0.003 0.084,-0.006 0.126,-0.01c0.067,-0.006 0.129,0.044 0.136,0.113c0.006,0.068 -0.044,0.129 -0.113,0.136c-0.039,0.003 -0.079,0.006 -0.118,0.009c0.037,0.245 0.089,0.425 0.161,0.575c0.07,0.147 0.199,0.26 0.354,0.31c0.001,0.001 0.003,0.001 0.004,0.002c0.058,0.018 0.119,0.027 0.18,0.027c0.023,0 0.046,-0.001 0.069,-0.004c0.075,-0.008 0.148,-0.031 0.215,-0.067c0.394,-0.213 0.79,-0.44 1.173,-0.659l0.146,-0.084c0.16,-0.091 0.256,-0.261 0.251,-0.444l-0.003,-0.144c-0.006,-0.218 -0.012,-0.443 -0.012,-0.664c0,-0.192 -0.155,-0.35 -0.347,-0.354l-0.093,-0.002c-0.176,-0.003 -0.352,-0.006 -0.526,-0.004c-0.068,0.001 -0.123,0.057 -0.123,0.125l0,0.092c-0.054,-0.1 -0.098,-0.205 -0.131,-0.313c0.323,-0.193 0.655,-0.372 0.995,-0.538c-0.021,-0.02 -0.043,-0.04 -0.064,-0.06c-0.05,-0.048 -0.051,-0.127 -0.004,-0.177" style="fill:#525d7d;fill-rule:nonzero;"/><path d="M22.519,20.87l-0.002,0c-0.008,0.001 -0.016,0.002 -0.024,0.004c-0.067,0.018 -0.107,0.086 -0.089,0.153c0.009,0.032 0.017,0.063 0.026,0.095c0.269,0.994 0.557,1.736 0.837,2.333c0.037,0.078 0.073,0.154 0.11,0.227c0.201,0.406 0.396,0.744 0.574,1.052c0.093,0.16 0.18,0.31 0.262,0.46c0.06,0.109 0.065,0.241 0.016,0.354c-0.05,0.113 -0.152,0.199 -0.271,0.228c-0.964,0.238 -1.888,0.571 -2.761,0.991c0.043,-0.015 0.092,-0.008 0.127,0.026c0.044,0.042 0.089,0.084 0.133,0.126c0.813,-0.378 1.669,-0.681 2.56,-0.901c0.195,-0.048 0.359,-0.186 0.44,-0.37c0.081,-0.183 0.071,-0.398 -0.025,-0.574c-0.083,-0.152 -0.172,-0.304 -0.265,-0.465c-0.443,-0.766 -0.992,-1.715 -1.479,-3.489c-0.014,-0.052 -0.029,-0.104 -0.043,-0.157c-0.015,-0.058 -0.069,-0.096 -0.126,-0.093" style="fill:#525d7d;fill-rule:nonzero;"/><path d="M19.699,29.041c-0.029,-0.063 -0.102,-0.09 -0.165,-0.061c-0.063,0.028 -0.09,0.103 -0.061,0.165c0.096,0.209 0.238,0.406 0.422,0.588c0.035,0.034 0.07,0.068 0.108,0.102c0.024,0.02 0.053,0.031 0.082,0.031c0.035,-0 0.069,-0.015 0.094,-0.042c0.046,-0.052 0.041,-0.131 -0.011,-0.177c-0.015,-0.013 -0.029,-0.027 -0.044,-0.04c-0.189,-0.175 -0.332,-0.365 -0.425,-0.566" style="fill:#525d7d;fill-rule:nonzero;"/><path d="M20.225,28.67c-0.04,-0.056 -0.119,-0.068 -0.174,-0.027c-0.056,0.04 -0.068,0.118 -0.028,0.174c0.031,0.042 0.062,0.086 0.093,0.13c0.112,0.157 0.227,0.318 0.362,0.461c0.035,0.036 0.069,0.072 0.107,0.106c0.024,0.021 0.053,0.032 0.083,0.032c0.034,0 0.068,-0.014 0.093,-0.041c0.046,-0.052 0.042,-0.13 -0.009,-0.176c-0.017,-0.016 -0.033,-0.033 -0.049,-0.049c-0.141,-0.14 -0.265,-0.31 -0.383,-0.478c-0.032,-0.044 -0.064,-0.089 -0.095,-0.132" style="fill:#525d7d;fill-rule:nonzero;"/><path d="M19.084,28.325c0.003,-0.068 -0.05,-0.127 -0.119,-0.13c-0.044,-0.002 -0.089,-0.003 -0.134,-0.005c-0.404,-0.018 -0.81,-0.028 -1.209,-0.028c-1.295,0 -2.571,0.094 -3.798,0.278c-0.05,0.008 -0.1,0.014 -0.149,0.022c-0.055,0.009 -0.095,0.052 -0.103,0.104c-0.002,0.011 -0.003,0.023 -0.001,0.035c0,0.001 -0,0.002 0,0.004c0.01,0.061 0.063,0.105 0.123,0.105c0.007,0 0.013,-0 0.02,-0.001c0.034,-0.006 0.07,-0.01 0.105,-0.016c1.227,-0.186 2.506,-0.281 3.803,-0.281c0.402,-0 0.811,0.01 1.218,0.028c0.038,0.002 0.076,0.002 0.113,0.004c0.07,0.004 0.128,-0.05 0.131,-0.119" style="fill:#525d7d;fill-rule:nonzero;"/><path d="M19.133,29.035c-0.006,-0.069 -0.069,-0.119 -0.136,-0.113c-0.041,0.004 -0.084,0.007 -0.126,0.01c-0.657,0.058 -1.326,0.09 -1.974,0.12c-0.936,0.043 -1.905,0.088 -2.856,0.213c-0.068,0.009 -0.116,0.072 -0.107,0.14c0.008,0.063 0.061,0.108 0.123,0.108c0.005,0 0.011,0 0.016,-0.001c0.941,-0.123 1.904,-0.168 2.836,-0.211c0.653,-0.03 1.328,-0.062 1.993,-0.121c0.039,-0.003 0.079,-0.006 0.119,-0.01c0.068,-0.006 0.119,-0.067 0.112,-0.135" style="fill:#525d7d;fill-rule:nonzero;"/><path d="M31.333,28.041c-0.709,-0.006 -1.442,-0.012 -2.163,-0.012c-1.791,-0 -3.158,0.039 -4.433,0.127c-0.068,0.005 -0.119,0.062 -0.116,0.13c0.011,0.24 0.024,0.479 0.038,0.718c0.054,0.015 0.107,0.03 0.162,0.042c0.067,0.015 0.109,0.082 0.094,0.149c-0.013,0.058 -0.065,0.098 -0.122,0.098c-0.009,-0 -0.018,-0.001 -0.027,-0.004c-0.031,-0.007 -0.061,-0.016 -0.091,-0.023c0.031,0.508 0.066,1.012 0.1,1.506c0.005,0.065 0.059,0.115 0.124,0.116c3.223,0.037 6.459,0.06 9.635,0.079l0,-0.249c-3.137,-0.019 -6.333,-0.042 -9.518,-0.078c-0.051,-0.734 -0.104,-1.489 -0.14,-2.243c1.235,-0.082 2.566,-0.119 4.294,-0.119c0.72,0 1.453,0.006 2.161,0.012c0.708,0.006 1.441,0.012 2.162,0.012c0.398,0 0.741,-0.001 1.041,-0.004l0,-0.25c-0.3,0.003 -0.642,0.005 -1.041,0.005c-0.72,-0 -1.452,-0.006 -2.16,-0.012" style="fill:#525d7d;fill-rule:nonzero;"/><path d="M26.176,29.534c-0.211,-0 -0.359,-0.13 -0.359,-0.315c0,-0.152 0.099,-0.322 0.241,-0.322l0.01,0.001c0.062,0.003 0.105,0.014 0.149,0.038c0.208,0.117 0.254,0.268 0.254,0.316c-0,0.183 -0.152,0.282 -0.295,0.282m0.163,-0.815c-0.1,-0.056 -0.191,-0.067 -0.259,-0.071c-0.312,-0.015 -0.512,0.29 -0.512,0.571c-0,0.129 0.042,0.244 0.114,0.337c0.02,-0.028 0.039,-0.056 0.059,-0.084c0.04,-0.056 0.118,-0.068 0.174,-0.028c0.056,0.041 0.068,0.119 0.028,0.175c-0.023,0.031 -0.045,0.063 -0.067,0.095c0.088,0.044 0.189,0.069 0.3,0.069c0.268,0 0.544,-0.198 0.544,-0.531c0,-0.147 -0.099,-0.375 -0.381,-0.533" style="fill:#525d7d;fill-rule:nonzero;"/><path d="M25.915,29.444c-0.056,-0.04 -0.134,-0.028 -0.174,0.028c-0.02,0.028 -0.04,0.056 -0.059,0.084c-0.031,0.046 -0.062,0.092 -0.091,0.138c-0.083,0.126 -0.161,0.246 -0.255,0.352c-0.046,0.051 -0.041,0.13 0.01,0.176c0.024,0.021 0.053,0.031 0.083,0.031c0.034,0 0.069,-0.014 0.093,-0.042c0.106,-0.119 0.193,-0.252 0.277,-0.381c0.025,-0.038 0.051,-0.077 0.077,-0.116c0.022,-0.032 0.044,-0.064 0.067,-0.095c0.04,-0.056 0.028,-0.134 -0.028,-0.175" style="fill:#525d7d;fill-rule:nonzero;"/><path d="M27.303,29.297c0.062,-0.036 0.12,-0.062 0.177,-0.083c-0.01,-0.197 -0.02,-0.394 -0.033,-0.591c-0.004,-0.069 -0.061,-0.121 -0.132,-0.117c-0.069,0.004 -0.121,0.064 -0.117,0.132c0.014,0.222 0.026,0.443 0.037,0.664c0.002,0.038 0.004,0.076 0.006,0.113c-0.004,-0.047 0.019,-0.093 0.062,-0.118" style="fill:#525d7d;fill-rule:nonzero;"/><path d="M27.257,29.467c-0.008,-0.015 -0.013,-0.03 -0.015,-0.046c0.009,0.183 0.019,0.365 0.03,0.548c0.004,0.066 0.059,0.117 0.124,0.117c0.003,0 0.006,0 0.008,-0c0.069,-0.004 0.121,-0.064 0.117,-0.132c-0.01,-0.159 -0.018,-0.317 -0.026,-0.476c-0.022,0.011 -0.044,0.022 -0.067,0.035c-0.06,0.034 -0.136,0.014 -0.171,-0.046" style="fill:#525d7d;fill-rule:nonzero;"/><path d="M28.015,29.614c0,-0.165 0,-0.295 -0.086,-0.382c-0.047,-0.047 -0.11,-0.07 -0.189,-0.07c-0.084,-0 -0.17,0.018 -0.26,0.052c-0.057,0.021 -0.115,0.047 -0.177,0.083c-0.043,0.025 -0.066,0.071 -0.062,0.118c0,0.002 0,0.004 0.001,0.006c0.002,0.016 0.007,0.031 0.015,0.046c0.034,0.06 0.111,0.08 0.17,0.046c0.024,-0.013 0.046,-0.024 0.068,-0.035c0.091,-0.045 0.171,-0.067 0.245,-0.067c0.006,0 0.01,0.001 0.013,0.001c0.013,0.032 0.012,0.13 0.012,0.202c0,0.114 -0,0.255 0.026,0.414c0.01,0.061 0.063,0.104 0.123,0.104c0.007,0 0.014,-0 0.021,-0.001c0.068,-0.012 0.114,-0.076 0.102,-0.144c-0.023,-0.138 -0.022,-0.263 -0.022,-0.373" style="fill:#525d7d;fill-rule:nonzero;"/><path d="M28.179,29.134c0.004,0.069 0.009,0.138 0.012,0.206c0.012,0.207 0.023,0.422 0.042,0.632c0.006,0.065 0.06,0.114 0.124,0.114c0.004,-0 0.008,-0 0.011,-0.001c0.069,-0.006 0.12,-0.066 0.113,-0.135c-0.018,-0.206 -0.029,-0.418 -0.041,-0.624c-0.003,-0.056 -0.006,-0.113 -0.009,-0.169c-0.079,-0.004 -0.157,-0.011 -0.232,-0.02c-0.006,-0.001 -0.013,-0.002 -0.02,-0.003" style="fill:#525d7d;fill-rule:nonzero;"/><path d="M28.415,28.907c-0.005,-0.071 -0.01,-0.143 -0.016,-0.213c-0.006,-0.069 -0.068,-0.12 -0.135,-0.114c-0.069,0.006 -0.12,0.067 -0.114,0.136c0.005,0.054 0.009,0.11 0.013,0.166c0.022,0.002 0.044,0.004 0.066,0.007c0.063,0.007 0.126,0.014 0.186,0.018" style="fill:#525d7d;fill-rule:nonzero;"/><path d="M28.538,29c-0,-0.038 0.017,-0.072 0.045,-0.095c-0.054,0.005 -0.11,0.005 -0.168,0.002c-0.061,-0.004 -0.123,-0.011 -0.186,-0.018c-0.022,-0.003 -0.044,-0.005 -0.066,-0.007c-0.073,-0.009 -0.146,-0.016 -0.221,-0.016c-0.069,0 -0.125,0.056 -0.125,0.125c0,0.069 0.056,0.125 0.125,0.125c0.077,-0 0.155,0.009 0.238,0.018c0.006,0.001 0.013,0.002 0.02,0.003c0.074,0.008 0.152,0.016 0.231,0.02c0.021,0.001 0.042,0.003 0.064,0.003c0.048,-0 0.092,-0.003 0.136,-0.008c0.023,-0.003 0.044,-0.012 0.061,-0.026c-0.01,0 -0.02,-0.001 -0.029,-0.001c-0.069,-0 -0.125,-0.056 -0.125,-0.125" style="fill:#525d7d;fill-rule:nonzero;"/><path d="M29.136,28.915c-0.005,-0.071 -0.01,-0.142 -0.016,-0.212c-0.006,-0.069 -0.068,-0.119 -0.135,-0.113c-0.069,0.006 -0.12,0.066 -0.114,0.135c0.005,0.055 0.009,0.11 0.013,0.166c0.022,0.002 0.045,0.004 0.067,0.007c0.063,0.008 0.124,0.014 0.185,0.017" style="fill:#525d7d;fill-rule:nonzero;"/><path d="M28.9,29.144c0.004,0.068 0.009,0.137 0.012,0.205c0.012,0.208 0.023,0.422 0.042,0.632c0.006,0.065 0.06,0.114 0.124,0.114c0.004,0 0.008,-0 0.011,-0c0.069,-0.006 0.12,-0.067 0.113,-0.136c-0.018,-0.205 -0.029,-0.418 -0.041,-0.624c-0.003,-0.056 -0.006,-0.113 -0.009,-0.169c-0.079,-0.004 -0.157,-0.011 -0.231,-0.02c-0.007,-0.001 -0.014,-0.002 -0.021,-0.002" style="fill:#525d7d;fill-rule:nonzero;"/><path d="M29.461,29.022c-0.008,-0.068 -0.07,-0.117 -0.139,-0.109c-0.033,0.004 -0.068,0.006 -0.106,0.006c-0.027,0 -0.054,-0.002 -0.081,-0.004c-0.06,-0.003 -0.121,-0.009 -0.185,-0.017c-0.022,-0.003 -0.044,-0.005 -0.067,-0.007c-0.072,-0.008 -0.145,-0.015 -0.22,-0.015c-0.031,-0 -0.059,0.011 -0.08,0.029c-0.028,0.023 -0.045,0.057 -0.045,0.095c-0,0.069 0.056,0.125 0.125,0.125c0.009,-0 0.019,0.001 0.029,0.001c0.068,0.002 0.137,0.009 0.208,0.018c0.007,0 0.014,0.001 0.02,0.002c0.075,0.009 0.153,0.016 0.231,0.02c0.022,0.001 0.043,0.003 0.065,0.003c0.048,-0 0.093,-0.003 0.136,-0.008c0.068,-0.008 0.117,-0.07 0.109,-0.139" style="fill:#525d7d;fill-rule:nonzero;"/><path d="M29.636,29.741c-0.009,0 -0.017,0 -0.026,-0.001c-0,-0.053 -0,-0.106 -0,-0.158l-0,-0.058c0.133,0.018 0.188,0.086 0.192,0.105c0,0.098 -0.104,0.112 -0.166,0.112m-0.094,-0.47c-0.022,-0 -0.044,0 -0.066,0.002c-0.065,0.005 -0.115,0.059 -0.116,0.124l0,0.185c0,0.28 0.002,0.58 0.016,0.886c0.004,0.067 0.059,0.119 0.125,0.119c0.002,-0 0.004,-0 0.006,-0c0.069,-0.004 0.122,-0.062 0.119,-0.131c-0.008,-0.157 -0.012,-0.313 -0.014,-0.466c0.298,0.011 0.44,-0.182 0.44,-0.361c-0,-0.172 -0.195,-0.358 -0.51,-0.358" style="fill:#525d7d;fill-rule:nonzero;"/><path d="M30.264,29.201c-0.067,0.014 -0.111,0.08 -0.098,0.147c0.007,0.034 0.007,0.062 0.007,0.105c0,0.069 0.056,0.125 0.125,0.125c0.069,-0 0.125,-0.056 0.125,-0.125c-0,-0.049 -0,-0.095 -0.012,-0.154c-0.013,-0.067 -0.079,-0.111 -0.147,-0.098" style="fill:#525d7d;fill-rule:nonzero;"/><path d="M30.298,29.772c-0.068,-0 -0.124,0.056 -0.124,0.125l-0,0.083c-0,0.069 0.056,0.125 0.124,0.125c0.069,-0 0.125,-0.056 0.125,-0.125l0,-0.083c0,-0.069 -0.056,-0.125 -0.125,-0.125" style="fill:#525d7d;fill-rule:nonzero;"/><path d="M31.442,28.867c0.033,-0.06 0.012,-0.136 -0.048,-0.17c-0.06,-0.033 -0.136,-0.012 -0.17,0.048c-0.068,0.122 -0.133,0.245 -0.198,0.368c-0.101,0.19 -0.205,0.386 -0.317,0.571c-0.036,0.059 -0.017,0.136 0.042,0.171c0.02,0.013 0.042,0.019 0.064,0.019c0.043,-0 0.084,-0.022 0.107,-0.061c0.116,-0.19 0.222,-0.39 0.324,-0.584c0.065,-0.121 0.129,-0.242 0.196,-0.362" style="fill:#525d7d;fill-rule:nonzero;"/><path d="M31.879,28.854c-0.055,-0.041 -0.133,-0.03 -0.174,0.025c-0.097,0.129 -0.18,0.266 -0.261,0.399c-0.11,0.183 -0.215,0.355 -0.351,0.507c-0.047,0.052 -0.042,0.13 0.009,0.177c0.024,0.021 0.053,0.032 0.083,0.032c0.034,-0 0.068,-0.014 0.093,-0.042c0.153,-0.169 0.268,-0.36 0.38,-0.545c0.081,-0.133 0.157,-0.259 0.246,-0.378c0.042,-0.055 0.03,-0.133 -0.025,-0.175" style="fill:#525d7d;fill-rule:nonzero;"/><path d="M33.226,29.324c0.045,-0.023 0.098,-0.017 0.135,0.013c-0.001,-0.035 -0.017,-0.069 -0.046,-0.093c-0.054,-0.042 -0.133,-0.033 -0.176,0.021c-0.117,0.148 -0.229,0.302 -0.325,0.438c-0.009,-0.016 -0.019,-0.032 -0.028,-0.048c-0.044,-0.073 -0.086,-0.144 -0.126,-0.205c-0.022,-0.033 -0.058,-0.054 -0.097,-0.056c-0.039,-0.002 -0.078,0.014 -0.103,0.045c-0.056,0.067 -0.11,0.135 -0.164,0.203c-0.024,0.03 -0.048,0.06 -0.073,0.091c-0.007,-0.015 -0.014,-0.031 -0.021,-0.047c-0.049,-0.107 -0.1,-0.218 -0.157,-0.328c-0.032,-0.061 -0.107,-0.084 -0.169,-0.052c-0.061,0.031 -0.084,0.107 -0.052,0.168c0.054,0.103 0.103,0.211 0.151,0.316c0.035,0.077 0.07,0.153 0.107,0.229c0.018,0.038 0.054,0.064 0.096,0.069c0.005,0.001 0.011,0.001 0.016,0.001c0.036,0 0.071,-0.016 0.095,-0.044c0.07,-0.081 0.137,-0.166 0.202,-0.248c0.017,-0.021 0.034,-0.042 0.051,-0.064c0.009,0.017 0.019,0.033 0.029,0.05c0.043,0.072 0.088,0.147 0.132,0.215c0.023,0.036 0.061,0.057 0.103,0.058c0.041,-0.001 0.081,-0.02 0.105,-0.054c0.084,-0.123 0.189,-0.273 0.303,-0.426c-0.014,-0.028 -0.027,-0.056 -0.041,-0.084c-0.032,-0.061 -0.008,-0.136 0.053,-0.168" style="fill:#525d7d;fill-rule:nonzero;"/><path d="M34.488,29.283c-0.118,0.149 -0.229,0.302 -0.325,0.439c-0.01,-0.017 -0.02,-0.033 -0.029,-0.049c-0.044,-0.073 -0.086,-0.144 -0.125,-0.204c-0.022,-0.033 -0.058,-0.054 -0.097,-0.056c-0.04,-0.003 -0.078,0.014 -0.104,0.044c-0.055,0.067 -0.11,0.135 -0.164,0.204c-0.024,0.03 -0.048,0.06 -0.072,0.091c-0.008,-0.016 -0.015,-0.032 -0.022,-0.048c-0.049,-0.107 -0.1,-0.218 -0.157,-0.327c-0.008,-0.016 -0.019,-0.029 -0.032,-0.04c-0.038,-0.03 -0.091,-0.036 -0.136,-0.013c-0.061,0.032 -0.085,0.107 -0.053,0.168c0.015,0.028 0.028,0.056 0.042,0.084c0.038,0.077 0.074,0.155 0.109,0.232c0.035,0.077 0.07,0.153 0.107,0.23c0.019,0.037 0.055,0.063 0.097,0.069c0.005,0 0.01,0.001 0.016,0.001c0.036,-0 0.07,-0.016 0.094,-0.044c0.07,-0.082 0.137,-0.166 0.202,-0.248c0.017,-0.021 0.034,-0.043 0.051,-0.064c0.01,0.016 0.02,0.032 0.029,0.049c0.044,0.072 0.088,0.147 0.133,0.216c0.022,0.035 0.061,0.057 0.103,0.057c0.043,-0 0.081,-0.019 0.105,-0.054c0.076,-0.112 0.171,-0.247 0.274,-0.386l0,-0.097c-0.004,-0.009 -0.008,-0.018 -0.013,-0.026c-0.023,-0.045 -0.016,-0.098 0.013,-0.135l0,-0.128c-0.017,0.008 -0.033,0.019 -0.046,0.035" style="fill:#525d7d;fill-rule:nonzero;"/><path d="M34.521,29.511c0.005,0.008 0.009,0.017 0.013,0.026l0,-0.161c-0.029,0.037 -0.036,0.09 -0.013,0.135" style="fill:#525d7d;fill-rule:nonzero;"/><path d="M24.794,29.293c0.057,-0 0.108,-0.04 0.122,-0.098c0.015,-0.067 -0.027,-0.134 -0.095,-0.149c-0.054,-0.012 -0.108,-0.027 -0.162,-0.042c-1.241,-0.333 -2.263,-1.197 -3.202,-2.085c-0.044,-0.042 -0.089,-0.084 -0.133,-0.126c-0.035,-0.034 -0.084,-0.041 -0.127,-0.026c-0.007,0.002 -0.012,0.005 -0.018,0.009c-0.011,0.006 -0.022,0.012 -0.031,0.021c-0.048,0.05 -0.046,0.129 0.004,0.177c0.021,0.02 0.043,0.04 0.064,0.06c1.001,0.952 2.094,1.892 3.459,2.232c0.031,0.008 0.061,0.016 0.091,0.023c0.01,0.003 0.019,0.004 0.028,0.004" style="fill:#525d7d;fill-rule:nonzero;"/></g></svg>